<?xml version="1.0"?>
<svg xmlns="http://www.w3.org/2000/svg" xmlns:xlink="http://www.w3.org/1999/xlink" version="1.1" id="Layer_1" x="0px" y="0px" viewBox="0 0 512 512" style="enable-background:new 0 0 512 512;" xml:space="preserve" width="512px" height="512px" class=""><g transform="matrix(1 -4.89859e-16 -4.89859e-16 -1 2.34340e-14 512)"><g>
	<g>
		<g>
			<path d="M396.641,13.853c-20.773-11.469-41.352-13.719-42.218-13.81C354.144,0.015,353.865,0,353.585,0H224.723     c-30.88,0-54.75,9.163-70.948,27.233c-19.5,21.756-22.247,50.348-22.277,64.473c-22.081,1.964-38.324,11.907-48.361,29.633     c-17.576,31.043-11.052,79.28-2.486,114.279c10.379,42.399,28.018,83.035,40.896,104.495     c14.606,24.341,30.714,37.963,44.932,45.529c-0.049,0.36-0.083,0.725-0.083,1.099v117.172c0,4.468,3.62,8.088,8.088,8.088h230.97     c4.468,0,8.088-3.62,8.088-8.088V386.74c0-2.43-1.076-4.604-2.773-6.086c8.769-7.326,15.8-17.474,20.882-30.311     c8.22-20.771,8.315-41.263,8.315-42.125V86.383C439.967,54.582,424.985,29.501,396.641,13.853z M397.367,495.824H182.572V394.828     h17.952c0.113,0.001,0.23,0.002,0.341,0.002c0.095,0,0.183-0.001,0.276-0.002h196.226V495.824z M423.791,308.218     c0,0.18-0.082,18.239-7.18,36.171c-8.94,22.585-24.657,34.037-46.715,34.037H204.988c-0.414,0-0.757,0.022-1.166,0.084     c-0.174,0.024-0.796,0.1-1.801,0.142h-2.868c-10.957-0.407-39.081-5.774-63.735-46.862     c-27.445-45.741-64.752-155.594-38.205-202.483c8.278-14.62,22.185-21.748,42.515-21.789c2.709,0.138,34.494,2.52,34.494,37.586     v65.245c0,4.468,3.62,8.088,8.088,8.088s8.088-3.62,8.088-8.088v-65.245c0-26.676-13.787-39.965-25.353-46.415     c-6.327-3.527-12.656-5.367-17.343-6.32c-0.014-11.462,2.005-36.435,18.195-54.426c13.001-14.444,32.791-21.767,58.826-21.767     h128.388c2.644,0.334,19.195,2.719,35.711,11.838c23.203,12.81,34.968,32.449,34.968,58.37V308.218z" data-original="#000000" class="active-path" data-old_color="#000000" fill="#9A9DA2"/>
			<path d="M199.15,466.06c0,4.468,3.62,8.088,8.088,8.088h24.851c4.468,0,8.088-3.62,8.088-8.088s-3.62-8.088-8.088-8.088h-16.763     v-25.294h147.598v25.294h-99.56c-4.468,0-8.088,3.62-8.088,8.088s3.62,8.088,8.088,8.088h107.648c4.468,0,8.088-3.62,8.088-8.088     v-41.47c0-4.468-3.62-8.088-8.088-8.088H207.237c-4.467,0-8.088,3.621-8.088,8.088V466.06z" data-original="#000000" class="active-path" data-old_color="#000000" fill="#9A9DA2"/>
		</g>
	</g>
</g></g> </svg>
