<?xml version="1.0" encoding="iso-8859-1"?>
<!-- Generator: Adobe Illustrator 18.1.1, SVG Export Plug-In . SVG Version: 6.00 Build 0)  -->
<svg xmlns="http://www.w3.org/2000/svg" xmlns:xlink="http://www.w3.org/1999/xlink" version="1.1" id="Capa_1" x="0px" y="0px" viewBox="0 0 429.388 429.388" style="enable-background:new 0 0 429.388 429.388;" xml:space="preserve" width="512px" height="512px">
<g>
	<g id="Layer_1_62_">
		<path d="M429.36,207.844v-86.622c0-5.987-4.854-10.84-10.841-10.84c-5.988,0-10.842,4.853-10.842,10.84v19.926L225.534,37.783    v-7.248c0-5.989-4.853-10.841-10.841-10.841s-10.841,4.852-10.841,10.841v7.248L21.709,141.148v-19.926    c0-5.987-4.854-10.84-10.841-10.84c-5.988,0-10.842,4.853-10.842,10.84v86.622C0.021,207.976,0,208.105,0,208.236v75.153    c0,3.717,1.997,7.146,5.229,8.98l204.368,115.979c1.58,0.895,3.339,1.345,5.097,1.345c1.758,0,3.517-0.45,5.097-1.345    l204.368-115.979c3.232-1.835,5.229-5.264,5.229-8.98v-75.153C429.387,208.105,429.365,207.976,429.36,207.844z M21.709,176.297    v-0.128l11.914-6.759l12.101,6.866L33.698,183.1L21.709,176.297z M214.693,235.374c-5.988,0-10.841,4.853-10.841,10.841v9.113    L96.981,194.681l117.712-66.805l117.712,66.805l-106.871,60.647v-9.113C225.534,240.226,220.681,235.374,214.693,235.374z     M225.534,86.538V72.804l160.814,91.264l-12.1,6.865L225.534,86.538z M203.852,86.538L55.138,170.932l-12.1-6.865l160.814-91.264    V86.538z M87.566,200.022l116.286,65.99v13.652L75.54,206.846L87.566,200.022z M225.534,266.012l116.286-65.99l12.026,6.824    l-128.312,72.818V266.012z M383.663,176.276l12.101-6.866l11.914,6.759v0.128l-11.988,6.804L383.663,176.276z M407.677,151.836    v0.127l-11.914,6.76L225.534,62.119v-13.65L407.677,151.836z M203.852,48.469v13.649L33.623,158.722l-11.914-6.76v-0.127    L203.852,48.469z M66.125,212.189l137.727,78.16v16.647L51.458,220.512L66.125,212.189z M225.534,306.997V290.35l137.727-78.16    l14.667,8.323L225.534,306.997z" fill="#9a9da2"/>
	</g>
</g>
<g>
</g>
<g>
</g>
<g>
</g>
<g>
</g>
<g>
</g>
<g>
</g>
<g>
</g>
<g>
</g>
<g>
</g>
<g>
</g>
<g>
</g>
<g>
</g>
<g>
</g>
<g>
</g>
<g>
</g>
</svg>
