<?xml version="1.0" encoding="iso-8859-1"?>
<!-- Generator: Adobe Illustrator 19.0.0, SVG Export Plug-In . SVG Version: 6.00 Build 0)  -->
<svg xmlns="http://www.w3.org/2000/svg" xmlns:xlink="http://www.w3.org/1999/xlink" version="1.1" id="Layer_1" x="0px" y="0px" viewBox="0 0 512 512" style="enable-background:new 0 0 512 512;" xml:space="preserve" width="512px" height="512px">
<g>
	<g>
		<g>
			<path d="M85.157,337.547c4.909,0,8.887-3.978,8.887-8.887V222.501c0-4.909-3.978-8.887-8.887-8.887     c-4.909,0-8.887,3.978-8.887,8.887V328.66C76.271,333.568,80.25,337.547,85.157,337.547z" fill="#9a9da2"/>
			<path d="M115.82,179.965H40.332c-4.909,0-8.887,3.978-8.887,8.887v173.457c0,4.909,3.978,8.887,8.887,8.887h75.488     c4.909,0,8.887-3.978,8.887-8.887V188.851C124.706,183.942,120.729,179.965,115.82,179.965z M106.933,353.421H49.219V197.738     h57.714V353.421z" fill="#9a9da2"/>
			<path d="M487.705,161.622c-19.157-34.59-50.087-53.033-91.991-54.913c-13.591-31.734-50.724-50.218-87.572-42.553     c-52.618,10.952-84.896,32.719-101.162,68.327c-20.015,6.177-40.07,13.804-59.4,23.201c-6.831-8.228-17.13-13.478-28.634-13.478     h-81.74C16.691,142.206,0,158.898,0,179.414v192.332c0,20.515,16.691,37.205,37.206,37.205h81.739     c11.247,0,21.336-5.023,28.166-12.937c37.26,20.976,70.471,34.062,106.693,42.122c36.027,8.016,76.307,11.435,134.687,11.435     c46.763,0,79.103-14.626,98.866-44.713C504.169,379.265,512,342.086,512,287.85C512,232.434,504.053,191.144,487.705,161.622z      M118.947,391.178h-81.74c-10.716,0-19.433-8.717-19.433-19.432V179.414c0-10.716,8.718-19.433,19.433-19.433h81.739     c10.715,0,19.432,8.717,19.432,19.433v192.332h0.001C138.379,382.461,129.661,391.178,118.947,391.178z M311.763,81.557     c15.08-3.141,30.607-0.846,43.719,6.458c8.475,4.721,15.363,11.149,20.161,18.664c-32.773,0.698-87.091,4.38-144.393,18.984     C243.125,108.948,265.392,91.208,311.763,81.557z M388.49,431.8c-107.617,0-163.536-12.172-233.31-51.635     c0.628-2.707,0.972-5.523,0.972-8.419V179.414c0-2.653-0.284-5.241-0.815-7.738c87.706-42.658,191.748-47.364,233.154-47.364     c39.185,0,66.554,15.022,83.666,45.921c14.851,26.82,22.071,65.292,22.071,117.62C494.227,391.44,464.581,431.8,388.49,431.8z" fill="#9a9da2"/>
		</g>
	</g>
</g>
<g>
</g>
<g>
</g>
<g>
</g>
<g>
</g>
<g>
</g>
<g>
</g>
<g>
</g>
<g>
</g>
<g>
</g>
<g>
</g>
<g>
</g>
<g>
</g>
<g>
</g>
<g>
</g>
<g>
</g>
</svg>
