<?xml version="1.0" encoding="iso-8859-1"?>
<!-- Generator: Adobe Illustrator 19.0.0, SVG Export Plug-In . SVG Version: 6.00 Build 0)  -->
<svg xmlns="http://www.w3.org/2000/svg" xmlns:xlink="http://www.w3.org/1999/xlink" version="1.1" id="Layer_1" x="0px" y="0px" viewBox="0 0 512 512" style="enable-background:new 0 0 512 512;" xml:space="preserve" width="512px" height="512px">
<g>
	<g>
		<path d="M423.169,186.682c-10.115-7.22-24.097-13.553-41.557-18.825c-33.791-10.202-78.401-15.82-125.612-15.82    c-47.211,0-91.821,5.618-125.612,15.82c-17.46,5.271-31.443,11.604-41.557,18.825c-16.996,12.131-20.564,25.156-20.564,33.947    v49.749c0,14.713,5.882,36.567,33.909,57.136c19.036,13.972,45.401,25.047,76.242,32.027c1.248,0.282,2.511,0.421,3.767,0.421    c3.782,0,7.498-1.257,10.53-3.635L256,306.715l63.281,49.612c4.04,3.166,9.289,4.347,14.297,3.214    c30.843-6.981,57.208-18.055,76.245-32.027c28.027-20.57,33.91-42.424,33.91-57.136v-49.749    C443.733,211.838,440.165,198.813,423.169,186.682z M409.6,270.378c0,20.594-30.775,42.275-75.773,53.98l-67.297-52.76    c-3.092-2.425-6.811-3.635-10.53-3.635c-3.719,0-7.439,1.212-10.529,3.635l-67.301,52.76c-44.997-11.704-75.77-33.387-75.77-53.98    v-49.612c0.725-2.346,9.66-12.357,42.007-21.441c30.207-8.482,69.838-13.154,111.593-13.154s81.386,4.671,111.593,13.154    c32.347,9.083,41.282,19.095,42.007,21.441V270.378z" fill="#9a9da2"/>
	</g>
</g>
<g>
	<g>
		<path d="M17.067,203.562C7.641,203.562,0,211.203,0,220.629v49.749c0,9.425,7.641,17.067,17.067,17.067    s17.067-7.641,17.067-17.067v-49.749C34.133,211.203,26.492,203.562,17.067,203.562z" fill="#9a9da2"/>
	</g>
</g>
<g>
	<g>
		<path d="M494.933,203.562c-9.425,0-17.067,7.641-17.067,17.067v49.749c0,9.425,7.641,17.067,17.067,17.067    S512,279.803,512,270.378v-49.749C512,211.203,504.359,203.562,494.933,203.562z" fill="#9a9da2"/>
	</g>
</g>
<g>
</g>
<g>
</g>
<g>
</g>
<g>
</g>
<g>
</g>
<g>
</g>
<g>
</g>
<g>
</g>
<g>
</g>
<g>
</g>
<g>
</g>
<g>
</g>
<g>
</g>
<g>
</g>
<g>
</g>
</svg>
