<?xml version="1.0" encoding="iso-8859-1"?>
<!-- Generator: Adobe Illustrator 18.0.0, SVG Export Plug-In . SVG Version: 6.00 Build 0)  -->
<!DOCTYPE svg PUBLIC "-//W3C//DTD SVG 1.1//EN" "http://www.w3.org/Graphics/SVG/1.1/DTD/svg11.dtd">
<svg xmlns="http://www.w3.org/2000/svg" xmlns:xlink="http://www.w3.org/1999/xlink" version="1.1" id="Capa_1" x="0px" y="0px" viewBox="0 0 217.902 217.902" style="enable-background:new 0 0 217.902 217.902;" xml:space="preserve" width="512px" height="512px">
<g>
	<path d="M58.008,29.165l-14.32-2.081l-6.404-12.976c-1.053-2.133-3.226-3.484-5.604-3.484c-2.379,0-4.552,1.351-5.605,3.484   l-6.404,12.976l-14.32,2.081c-2.354,0.342-4.31,1.991-5.045,4.254c-0.735,2.263-0.122,4.747,1.582,6.407l10.362,10.1L9.803,64.188   c-0.402,2.345,0.562,4.715,2.486,6.113c1.924,1.399,4.476,1.582,6.582,0.476l12.809-6.734l12.809,6.734   c0.914,0.48,1.913,0.718,2.908,0.718c0.007,0,0.013,0.001,0.021,0c3.452,0,6.25-2.798,6.25-6.25c0-0.539-0.068-1.062-0.196-1.561   L51.11,49.926l10.362-10.1c1.704-1.66,2.317-4.144,1.582-6.407C62.319,31.157,60.362,29.508,58.008,29.165z M40.031,43.268   c-1.473,1.435-2.146,3.505-1.798,5.533l0.861,5.019l-4.507-2.37c-0.91-0.479-1.909-0.718-2.908-0.718s-1.998,0.239-2.908,0.718   l-4.507,2.37l0.861-5.019c0.348-2.028-0.325-4.097-1.798-5.533l-3.646-3.554l5.038-0.732c2.036-0.296,3.795-1.574,4.706-3.419   l2.254-4.566l2.254,4.566c0.91,1.845,2.67,3.123,4.706,3.419l5.039,0.732L40.031,43.268z" fill="#9a9da2"/>
	<path d="M58.008,164.948l-14.32-2.081l-6.404-12.976c-1.053-2.133-3.226-3.484-5.604-3.484c-2.379,0-4.552,1.351-5.605,3.484   l-6.404,12.976l-14.32,2.081c-2.354,0.342-4.31,1.991-5.045,4.254c-0.735,2.263-0.122,4.747,1.582,6.407l10.362,10.1L9.803,199.97   c-0.402,2.345,0.562,4.715,2.486,6.113c1.924,1.398,4.476,1.583,6.582,0.476l12.809-6.734l12.809,6.734   c0.914,0.48,1.913,0.718,2.908,0.718c0.007,0,0.013,0.001,0.021,0c3.452,0,6.25-2.798,6.25-6.25c0-0.539-0.068-1.062-0.196-1.561   l-2.361-13.758l10.362-10.1c1.704-1.66,2.317-4.144,1.582-6.407C62.319,166.939,60.362,165.29,58.008,164.948z M40.031,179.051   c-1.473,1.436-2.146,3.505-1.798,5.533l0.861,5.019l-4.507-2.37c-0.91-0.479-1.909-0.718-2.908-0.718s-1.998,0.239-2.908,0.718   l-4.507,2.37l0.861-5.019c0.348-2.028-0.325-4.097-1.798-5.533l-3.646-3.554l5.038-0.732c2.036-0.296,3.795-1.574,4.706-3.419   l2.254-4.566l2.254,4.566c0.91,1.845,2.67,3.123,4.706,3.419l5.039,0.732L40.031,179.051z" fill="#9a9da2"/>
	<path d="M58.008,97.057l-14.32-2.081L37.284,82c-1.053-2.133-3.226-3.484-5.604-3.484c-2.379,0-4.552,1.351-5.605,3.484   l-6.404,12.976l-14.32,2.081c-2.354,0.342-4.31,1.991-5.045,4.254c-0.735,2.263-0.122,4.746,1.582,6.407l10.362,10.1l-2.447,14.262   c-0.402,2.345,0.562,4.715,2.486,6.113c1.924,1.398,4.476,1.581,6.582,0.476l12.809-6.734l12.809,6.734   c0.914,0.48,1.913,0.718,2.908,0.718c0.007,0,0.013,0,0.021,0c3.452,0,6.25-2.798,6.25-6.25c0-0.539-0.068-1.062-0.196-1.561   l-2.361-13.758l10.362-10.1c1.704-1.66,2.317-4.144,1.582-6.407C62.319,99.048,60.362,97.399,58.008,97.057z M40.031,111.16   c-1.473,1.436-2.146,3.505-1.798,5.533l0.861,5.019l-4.507-2.37c-0.91-0.479-1.909-0.718-2.908-0.718s-1.998,0.239-2.908,0.718   l-4.507,2.37l0.861-5.019c0.348-2.028-0.325-4.097-1.798-5.533l-3.646-3.554l5.038-0.732c2.036-0.296,3.795-1.574,4.706-3.419   l2.254-4.566l2.254,4.566c0.91,1.845,2.67,3.123,4.706,3.419l5.039,0.732L40.031,111.16z" fill="#9a9da2"/>
	<path d="M87.11,48.56h123.293c4.143,0,7.5-3.358,7.5-7.5s-3.357-7.5-7.5-7.5H87.11c-4.142,0-7.5,3.358-7.5,7.5   S82.967,48.56,87.11,48.56z" fill="#9a9da2"/>
	<path d="M210.402,101.451H87.11c-4.142,0-7.5,3.358-7.5,7.5s3.358,7.5,7.5,7.5h123.293c4.143,0,7.5-3.358,7.5-7.5   S214.545,101.451,210.402,101.451z" fill="#9a9da2"/>
	<path d="M210.402,169.342H87.11c-4.142,0-7.5,3.358-7.5,7.5c0,4.142,3.358,7.5,7.5,7.5h123.293c4.143,0,7.5-3.358,7.5-7.5   C217.902,172.7,214.545,169.342,210.402,169.342z" fill="#9a9da2"/>
</g>
<g>
</g>
<g>
</g>
<g>
</g>
<g>
</g>
<g>
</g>
<g>
</g>
<g>
</g>
<g>
</g>
<g>
</g>
<g>
</g>
<g>
</g>
<g>
</g>
<g>
</g>
<g>
</g>
<g>
</g>
</svg>
