<?xml version="1.0" encoding="iso-8859-1"?>
<!-- Generator: Adobe Illustrator 19.0.0, SVG Export Plug-In . SVG Version: 6.00 Build 0)  -->
<svg xmlns="http://www.w3.org/2000/svg" xmlns:xlink="http://www.w3.org/1999/xlink" version="1.1" id="Layer_1" x="0px" y="0px" viewBox="0 0 512.001 512.001" style="enable-background:new 0 0 512.001 512.001;" xml:space="preserve" width="512px" height="512px">
<g>
	<g>
		<path d="M96.537,0.119c-4.13-0.729-8.079,2.033-8.808,6.167L0.119,503.074c-0.73,4.137,2.032,8.079,6.167,8.809    C6.732,511.962,7.177,512,7.616,512c3.62,0,6.828-2.596,7.479-6.285l87.61-496.788C103.434,4.791,100.673,0.847,96.537,0.119z" fill="#9a9da2"/>
	</g>
</g>
<g>
	<g>
		<path d="M462.336,222.129L424.272,6.286c-0.729-4.135-4.674-6.896-8.808-6.167c-4.135,0.73-6.897,4.673-6.167,8.809    l38.064,215.843c0.651,3.689,3.859,6.285,7.479,6.285c0.438-0.001,0.882-0.04,1.329-0.118    C460.305,230.208,463.066,226.266,462.336,222.129z" fill="#9a9da2"/>
	</g>
</g>
<g>
	<g>
		<path d="M511.882,503.074l-44.039-249.713c-0.729-4.137-4.674-6.894-8.808-6.167c-4.135,0.73-6.897,4.673-6.167,8.809    l44.039,249.713c0.651,3.689,3.859,6.285,7.479,6.285c0.439,0,0.883-0.039,1.33-0.117    C509.851,511.153,512.612,507.209,511.882,503.074z" fill="#9a9da2"/>
	</g>
</g>
<g>
	<g>
		<path d="M150.184,0.055c-4.171-0.486-7.949,2.498-8.435,6.669l-0.824,7.049c-0.488,4.171,2.498,7.948,6.669,8.436    c0.3,0.036,0.598,0.052,0.893,0.052c3.804,0,7.09-2.85,7.542-6.721l0.824-7.049C157.342,4.319,154.355,0.542,150.184,0.055z" fill="#9a9da2"/>
	</g>
</g>
<g>
	<g>
		<path d="M113.998,309.275c-4.157-0.485-7.948,2.496-8.436,6.668l-1.608,13.735c-0.488,4.171,2.497,7.948,6.668,8.436    c0.3,0.036,0.598,0.052,0.894,0.052c3.804,0,7.089-2.85,7.542-6.72l1.608-13.735C121.153,313.54,118.169,309.763,113.998,309.275z    " fill="#9a9da2"/>
	</g>
</g>
<g>
	<g>
		<path d="M108.716,354.405c-4.155-0.488-7.948,2.496-8.436,6.668l-1.608,13.735c-0.488,4.171,2.497,7.948,6.668,8.436    c0.3,0.035,0.598,0.052,0.894,0.052c3.804,0,7.089-2.85,7.542-6.72l1.608-13.735C115.872,358.671,112.887,354.893,108.716,354.405    z" fill="#9a9da2"/>
	</g>
</g>
<g>
	<g>
		<path d="M145.686,38.498c-4.17-0.492-7.949,2.497-8.435,6.669l-1.607,13.735c-0.488,4.171,2.498,7.948,6.669,8.436    c0.3,0.035,0.598,0.052,0.893,0.052c3.804,0,7.09-2.85,7.542-6.721l1.607-13.735C152.842,42.762,149.857,38.986,145.686,38.498z" fill="#9a9da2"/>
	</g>
</g>
<g>
	<g>
		<path d="M103.433,399.534c-4.166-0.488-7.949,2.497-8.435,6.669l-1.607,13.735c-0.488,4.171,2.498,7.948,6.669,8.436    c0.3,0.036,0.598,0.052,0.893,0.052c3.804,0,7.09-2.85,7.542-6.721l1.607-13.735C110.59,403.799,107.604,400.023,103.433,399.534z    " fill="#9a9da2"/>
	</g>
</g>
<g>
	<g>
		<path d="M140.405,83.628c-4.155-0.486-7.948,2.496-8.436,6.668l-1.608,13.735c-0.488,4.171,2.497,7.949,6.668,8.436    c0.3,0.036,0.598,0.052,0.894,0.052c3.804,0,7.089-2.85,7.542-6.72l1.608-13.735C147.561,87.893,144.576,84.116,140.405,83.628z" fill="#9a9da2"/>
	</g>
</g>
<g>
	<g>
		<path d="M135.122,128.757c-4.17-0.491-7.949,2.497-8.435,6.669l-1.607,13.735c-0.488,4.171,2.498,7.948,6.669,8.436    c0.3,0.036,0.598,0.052,0.893,0.052c3.804,0,7.09-2.85,7.542-6.721l1.607-13.735C142.279,133.021,139.293,129.245,135.122,128.757    z" fill="#9a9da2"/>
	</g>
</g>
<g>
	<g>
		<path d="M129.842,173.887c-4.157-0.485-7.948,2.496-8.436,6.668l-1.608,13.735c-0.488,4.171,2.497,7.948,6.668,8.436    c0.3,0.035,0.598,0.052,0.894,0.052c3.804,0,7.089-2.85,7.542-6.72l1.608-13.735C136.998,178.152,134.013,174.376,129.842,173.887    z" fill="#9a9da2"/>
	</g>
</g>
<g>
	<g>
		<path d="M124.561,219.015c-4.155-0.487-7.948,2.496-8.436,6.668l-1.608,13.735c-0.488,4.171,2.497,7.948,6.668,8.436    c0.3,0.036,0.598,0.052,0.894,0.052c3.804,0,7.089-2.85,7.542-6.72l1.608-13.735C131.717,223.281,128.732,219.504,124.561,219.015    z" fill="#9a9da2"/>
	</g>
</g>
<g>
	<g>
		<path d="M119.278,264.146c-4.172-0.49-7.949,2.497-8.435,6.669l-1.607,13.735c-0.488,4.171,2.498,7.948,6.669,8.436    c0.3,0.035,0.598,0.052,0.893,0.052c3.804,0,7.09-2.85,7.542-6.721l1.607-13.735C126.435,268.41,123.449,264.634,119.278,264.146z    " fill="#9a9da2"/>
	</g>
</g>
<g>
	<g>
		<path d="M98.153,444.664c-4.157-0.486-7.948,2.496-8.436,6.668l-1.608,13.735c-0.488,4.171,2.497,7.948,6.668,8.436    c0.3,0.035,0.598,0.052,0.894,0.052c3.804,0,7.089-2.85,7.542-6.72l1.608-13.735C105.309,448.929,102.324,445.152,98.153,444.664z    " fill="#9a9da2"/>
	</g>
</g>
<g>
	<g>
		<path d="M92.871,489.794c-4.181-0.488-7.948,2.497-8.436,6.669l-0.824,7.048c-0.488,4.171,2.498,7.948,6.668,8.436    c0.301,0.035,0.599,0.052,0.894,0.052c3.804,0,7.089-2.85,7.542-6.721l0.824-7.048C100.027,494.059,97.041,490.282,92.871,489.794    z" fill="#9a9da2"/>
	</g>
</g>
<g>
	<g>
		<path d="M428.389,503.511l-0.824-7.048c-0.489-4.172-4.266-7.157-8.436-6.669c-4.17,0.488-7.157,4.265-6.668,8.436l0.824,7.048    c0.453,3.871,3.739,6.721,7.542,6.721c0.295,0,0.594-0.017,0.894-0.052C425.891,511.459,428.878,507.682,428.389,503.511z" fill="#9a9da2"/>
	</g>
</g>
<g>
	<g>
		<path d="M418.61,419.938l-1.608-13.735c-0.488-4.171-4.267-7.157-8.436-6.668c-4.171,0.488-7.157,4.265-6.668,8.436l1.608,13.735    c0.453,3.871,3.739,6.721,7.542,6.721c0.295,0,0.594-0.017,0.894-0.053C416.113,427.886,419.099,424.109,418.61,419.938z" fill="#9a9da2"/>
	</g>
</g>
<g>
	<g>
		<path d="M402.765,284.549l-1.608-13.735c-0.488-4.171-4.268-7.159-8.436-6.668c-4.171,0.489-7.157,4.265-6.668,8.436l1.608,13.735    c0.453,3.871,3.739,6.72,7.542,6.72c0.295,0.001,0.594-0.016,0.894-0.052C400.268,292.497,403.254,288.72,402.765,284.549z" fill="#9a9da2"/>
	</g>
</g>
<g>
	<g>
		<path d="M413.328,374.808l-1.607-13.735c-0.487-4.172-4.283-7.158-8.435-6.669c-4.171,0.488-7.158,4.265-6.669,8.436l1.607,13.735    c0.452,3.871,3.739,6.721,7.542,6.721c0.295,0.001,0.594-0.016,0.893-0.052C410.83,382.757,413.816,378.979,413.328,374.808z" fill="#9a9da2"/>
	</g>
</g>
<g>
	<g>
		<path d="M423.891,465.068l-1.607-13.735c-0.487-4.172-4.281-7.157-8.435-6.669c-4.171,0.488-7.158,4.265-6.669,8.436l1.607,13.735    c0.452,3.871,3.739,6.721,7.542,6.721c0.295,0,0.594-0.016,0.893-0.052C421.393,473.016,424.38,469.239,423.891,465.068z" fill="#9a9da2"/>
	</g>
</g>
<g>
	<g>
		<path d="M408.047,329.679l-1.608-13.735c-0.488-4.171-4.268-7.158-8.436-6.668c-4.171,0.489-7.157,4.265-6.668,8.436l1.608,13.735    c0.453,3.871,3.739,6.72,7.542,6.72c0.295,0,0.594-0.016,0.894-0.052C405.549,337.626,408.535,333.85,408.047,329.679z" fill="#9a9da2"/>
	</g>
</g>
<g>
	<g>
		<path d="M392.202,194.291l-1.608-13.735c-0.488-4.171-4.269-7.159-8.436-6.668c-4.171,0.489-7.157,4.265-6.668,8.436l1.608,13.735    c0.453,3.871,3.739,6.72,7.542,6.72c0.295,0,0.594-0.017,0.894-0.052C389.705,202.238,392.691,198.462,392.202,194.291z" fill="#9a9da2"/>
	</g>
</g>
<g>
	<g>
		<path d="M386.921,149.16l-1.608-13.735c-0.488-4.171-4.27-7.16-8.436-6.668c-4.171,0.489-7.157,4.265-6.668,8.436l1.608,13.735    c0.453,3.871,3.739,6.72,7.542,6.72c0.295,0.001,0.594-0.016,0.894-0.052C384.424,157.108,387.41,153.331,386.921,149.16z" fill="#9a9da2"/>
	</g>
</g>
<g>
	<g>
		<path d="M381.639,104.031l-1.607-13.735c-0.487-4.172-4.285-7.161-8.435-6.669c-4.171,0.488-7.158,4.265-6.669,8.436l1.607,13.735    c0.452,3.871,3.739,6.721,7.542,6.721c0.295,0,0.594-0.017,0.893-0.052C379.141,111.98,382.127,108.202,381.639,104.031z" fill="#9a9da2"/>
	</g>
</g>
<g>
	<g>
		<path d="M376.357,58.902l-1.608-13.735c-0.488-4.171-4.27-7.161-8.436-6.668c-4.171,0.489-7.157,4.265-6.668,8.436l1.608,13.735    c0.453,3.871,3.739,6.72,7.542,6.72c0.295,0,0.594-0.017,0.894-0.052C373.86,66.849,376.846,63.073,376.357,58.902z" fill="#9a9da2"/>
	</g>
</g>
<g>
	<g>
		<path d="M397.483,239.419l-1.607-13.735c-0.487-4.172-4.284-7.159-8.435-6.669c-4.171,0.488-7.158,4.265-6.669,8.436l1.607,13.735    c0.452,3.871,3.739,6.721,7.542,6.721c0.295,0.001,0.594-0.016,0.893-0.052C394.985,247.368,397.972,243.59,397.483,239.419z" fill="#9a9da2"/>
	</g>
</g>
<g>
	<g>
		<path d="M371.075,13.772l-0.824-7.049c-0.488-4.171-4.284-7.156-8.435-6.669c-4.171,0.488-7.158,4.265-6.669,8.436l0.824,7.049    c0.453,3.871,3.739,6.721,7.542,6.721c0.295,0,0.594-0.017,0.893-0.052C368.577,21.721,371.564,17.943,371.075,13.772z" fill="#9a9da2"/>
	</g>
</g>
<g>
	<g>
		<path d="M211.331,304.437c-4.221-0.18-7.726,3.121-7.88,7.317l-0.263,7.092c-0.155,4.196,3.121,7.724,7.318,7.88    c0.096,0.004,0.191,0.005,0.286,0.005c4.07,0,7.443-3.222,7.594-7.323l0.263-7.092    C218.804,308.12,215.527,304.592,211.331,304.437z" fill="#9a9da2"/>
	</g>
</g>
<g>
	<g>
		<path d="M209.827,345.068c-4.192-0.143-7.726,3.122-7.88,7.318l-0.542,14.674c-0.154,4.197,3.122,7.725,7.318,7.88    c0.096,0.003,0.191,0.005,0.286,0.005c4.07,0,7.443-3.222,7.594-7.323l0.542-14.674    C217.299,348.75,214.023,345.223,209.827,345.068z" fill="#9a9da2"/>
	</g>
</g>
<g>
	<g>
		<path d="M206.259,441.491c-4.225-0.158-7.726,3.122-7.88,7.318l-0.542,14.673c-0.154,4.197,3.122,7.725,7.318,7.88    c0.096,0.003,0.191,0.005,0.286,0.005c4.07,0,7.443-3.222,7.594-7.323l0.542-14.673    C213.731,445.174,210.455,441.647,206.259,441.491z" fill="#9a9da2"/>
	</g>
</g>
<g>
	<g>
		<path d="M208.043,393.28c-4.23-0.185-7.726,3.121-7.88,7.317l-0.542,14.673c-0.154,4.197,3.122,7.725,7.318,7.88    c0.096,0.004,0.191,0.005,0.286,0.005c4.07,0,7.443-3.222,7.594-7.323l0.542-14.673    C215.516,396.963,212.239,393.435,208.043,393.28z" fill="#9a9da2"/>
	</g>
</g>
<g>
	<g>
		<path d="M204.475,489.703c-4.219-0.177-7.726,3.121-7.88,7.317l-0.263,7.092c-0.155,4.196,3.121,7.724,7.318,7.88    c0.096,0.004,0.191,0.005,0.286,0.005c4.07,0,7.443-3.222,7.594-7.323l0.263-7.092    C211.948,493.387,208.672,489.858,204.475,489.703z" fill="#9a9da2"/>
	</g>
</g>
<g>
	<g>
		<path d="M222.583,0.007c-4.195-0.18-7.725,3.121-7.88,7.317l-0.263,7.092c-0.155,4.197,3.121,7.726,7.318,7.881    c0.096,0.004,0.191,0.005,0.286,0.005c4.07,0,7.443-3.222,7.594-7.323l0.263-7.092C230.056,3.69,226.781,0.162,222.583,0.007z" fill="#9a9da2"/>
	</g>
</g>
<g>
	<g>
		<path d="M221.296,34.825c-4.21-0.164-7.725,3.122-7.88,7.318l-0.448,12.13c-0.154,4.196,3.122,7.725,7.318,7.88    c0.096,0.003,0.191,0.005,0.286,0.005c4.07,0,7.443-3.222,7.594-7.323l0.448-12.13C228.768,38.507,225.492,34.98,221.296,34.825z" fill="#9a9da2"/>
	</g>
</g>
<g>
	<g>
		<path d="M218.347,114.536c-4.212-0.146-7.725,3.122-7.88,7.318l-0.448,12.13c-0.154,4.196,3.123,7.725,7.318,7.88    c0.096,0.003,0.191,0.005,0.286,0.005c4.07,0,7.443-3.222,7.594-7.323l0.448-12.13    C225.82,118.218,222.544,114.691,218.347,114.536z" fill="#9a9da2"/>
	</g>
</g>
<g>
	<g>
		<path d="M219.822,74.68c-4.209-0.155-7.725,3.122-7.88,7.318l-0.448,12.13c-0.155,4.196,3.122,7.725,7.318,7.88    c0.096,0.003,0.191,0.005,0.286,0.005c4.07,0,7.443-3.222,7.594-7.323l0.448-12.13C227.294,78.363,224.018,74.835,219.822,74.68z" fill="#9a9da2"/>
	</g>
</g>
<g>
	<g>
		<path d="M216.874,154.391c-4.213-0.18-7.725,3.121-7.88,7.317l-0.263,7.092c-0.155,4.197,3.121,7.726,7.318,7.881    c0.096,0.004,0.191,0.005,0.286,0.005c4.07,0,7.443-3.222,7.594-7.323l0.263-7.092    C224.347,158.075,221.072,154.547,216.874,154.391z" fill="#9a9da2"/>
	</g>
</g>
<g>
	<g>
		<path d="M303.011,161.709c-0.155-4.197-3.693-7.489-7.88-7.318c-4.197,0.155-7.473,3.683-7.318,7.88l0.263,7.092    c0.151,4.101,3.524,7.323,7.594,7.323c0.095,0,0.191-0.001,0.286-0.005c4.197-0.155,7.473-3.683,7.318-7.88L303.011,161.709z" fill="#9a9da2"/>
	</g>
</g>
<g>
	<g>
		<path d="M300.064,81.998c-0.154-4.197-3.697-7.461-7.88-7.318c-4.196,0.155-7.472,3.683-7.318,7.88l0.448,12.13    c0.151,4.101,3.524,7.323,7.594,7.323c0.095,0,0.191-0.001,0.286-0.005c4.196-0.155,7.472-3.683,7.318-7.88L300.064,81.998z" fill="#9a9da2"/>
	</g>
</g>
<g>
	<g>
		<path d="M298.59,42.143c-0.154-4.197-3.654-7.48-7.88-7.318c-4.196,0.155-7.472,3.683-7.318,7.88l0.448,12.13    c0.151,4.101,3.524,7.323,7.594,7.323c0.095,0,0.191-0.001,0.286-0.005c4.196-0.155,7.472-3.683,7.318-7.88L298.59,42.143z" fill="#9a9da2"/>
	</g>
</g>
<g>
	<g>
		<path d="M301.538,121.854c-0.154-4.197-3.695-7.464-7.88-7.318c-4.196,0.155-7.472,3.683-7.318,7.88l0.448,12.13    c0.151,4.101,3.524,7.323,7.594,7.323c0.095,0,0.191-0.001,0.286-0.005c4.196-0.155,7.472-3.683,7.318-7.88L301.538,121.854z" fill="#9a9da2"/>
	</g>
</g>
<g>
	<g>
		<path d="M297.302,7.325c-0.155-4.197-3.669-7.503-7.88-7.317c-4.197,0.155-7.473,3.683-7.318,7.88l0.263,7.092    c0.151,4.1,3.524,7.322,7.594,7.322c0.095,0,0.191-0.001,0.286-0.005c4.197-0.155,7.473-3.683,7.318-7.88L297.302,7.325z" fill="#9a9da2"/>
	</g>
</g>
<g>
	<g>
		<path d="M315.402,497.022c-0.154-4.197-3.694-7.472-7.879-7.319c-4.197,0.155-7.473,3.682-7.319,7.879l0.262,7.092    c0.151,4.101,3.524,7.324,7.594,7.324c0.094,0,0.191-0.001,0.285-0.005c4.197-0.155,7.473-3.682,7.319-7.879L315.402,497.022z" fill="#9a9da2"/>
	</g>
</g>
<g>
	<g>
		<path d="M310.059,352.386c-0.154-4.196-3.698-7.469-7.879-7.318c-4.197,0.155-7.473,3.682-7.319,7.88l0.541,14.673    c0.151,4.101,3.523,7.323,7.594,7.323c0.094,0,0.191-0.001,0.285-0.005c4.197-0.155,7.473-3.682,7.319-7.88L310.059,352.386z" fill="#9a9da2"/>
	</g>
</g>
<g>
	<g>
		<path d="M313.62,448.809c-0.155-4.195-3.665-7.477-7.879-7.318c-4.197,0.155-7.473,3.682-7.319,7.88l0.541,14.673    c0.152,4.101,3.524,7.323,7.594,7.323c0.094,0,0.191-0.001,0.285-0.005c4.197-0.155,7.473-3.682,7.319-7.88L313.62,448.809z" fill="#9a9da2"/>
	</g>
</g>
<g>
	<g>
		<path d="M311.84,400.598c-0.155-4.195-3.682-7.484-7.879-7.318c-4.197,0.155-7.473,3.682-7.319,7.88l0.541,14.673    c0.151,4.1,3.523,7.323,7.594,7.323c0.094,0,0.191-0.001,0.285-0.005c4.197-0.155,7.473-3.682,7.319-7.88L311.84,400.598z" fill="#9a9da2"/>
	</g>
</g>
<g>
	<g>
		<path d="M308.556,311.755c-0.155-4.197-3.685-7.496-7.88-7.317c-4.197,0.155-7.473,3.683-7.318,7.88l0.263,7.092    c0.151,4.1,3.523,7.322,7.594,7.322c0.095,0,0.191-0.001,0.286-0.005c4.197-0.155,7.473-3.683,7.318-7.88L308.556,311.755z" fill="#9a9da2"/>
	</g>
</g>
<g>
	<g>
		<path d="M331.023,220.044c-6.156,0-11.766,2.374-15.968,6.251c-4.202-3.878-9.812-6.251-15.967-6.251    c-12.997,0-23.571,10.575-23.571,23.572v37.257c0,4.199,3.403,7.604,7.604,7.604c4.2,0,7.604-3.404,7.604-7.604v-37.257    c0-4.612,3.751-8.364,8.363-8.364s8.363,3.752,8.363,8.364v37.257c0,4.199,3.404,7.604,7.604,7.604s7.604-3.404,7.604-7.604    v-37.257c0-4.612,3.752-8.364,8.364-8.364c4.612,0,8.363,3.752,8.363,8.364v37.257c0,4.199,3.404,7.604,7.604,7.604    s7.604-3.404,7.604-7.604v-37.257C354.594,230.617,344.021,220.044,331.023,220.044z" fill="#9a9da2"/>
	</g>
</g>
<g>
	<g>
		<path d="M242.359,194.191c-14.157,0-25.675,11.518-25.675,25.676c0,4.199,3.404,7.604,7.604,7.604c4.2,0,7.604-3.405,7.604-7.604    c0-5.772,4.696-10.468,10.467-10.468c5.772,0,10.468,4.696,10.468,10.468v42.934c0,5.772-4.696,10.468-10.468,10.468    c-5.771,0-10.467-4.696-10.467-10.468V242.08c0-4.199-3.404-7.604-7.604-7.604c-4.2,0-7.604,3.405-7.604,7.604v20.721    c0,14.157,11.517,25.676,25.675,25.676c14.159,0,25.676-11.518,25.676-25.676v-42.934    C268.034,205.71,256.517,194.191,242.359,194.191z" fill="#9a9da2"/>
	</g>
</g>
<g>
	<g>
		<path d="M203.394,237.581c-7.89-7.889-19.136-10.423-29.182-7.605V209.4h24.509c4.2,0,7.604-3.405,7.604-7.604    c0-4.199-3.404-7.604-7.604-7.604h-32.113c-4.2,0-7.604,3.405-7.604,7.604v41.162c0,3.076,1.852,5.848,4.694,7.025    c2.842,1.177,6.112,0.526,8.287-1.649c5.694-5.694,14.96-5.695,20.654,0c5.695,5.695,5.695,14.961,0,20.656    c-5.692,5.694-14.96,5.695-20.654,0c-2.971-2.97-7.784-2.97-10.754,0c-2.97,2.97-2.97,7.784,0,10.753    c5.812,5.812,13.448,8.718,21.081,8.718c7.634,0,15.27-2.906,21.082-8.718C215.017,268.12,215.017,249.206,203.394,237.581z" fill="#9a9da2"/>
	</g>
</g>
<g>
</g>
<g>
</g>
<g>
</g>
<g>
</g>
<g>
</g>
<g>
</g>
<g>
</g>
<g>
</g>
<g>
</g>
<g>
</g>
<g>
</g>
<g>
</g>
<g>
</g>
<g>
</g>
<g>
</g>
</svg>
