<?xml version="1.0" encoding="iso-8859-1"?>
<!-- Generator: Adobe Illustrator 19.0.0, SVG Export Plug-In . SVG Version: 6.00 Build 0)  -->
<svg xmlns="http://www.w3.org/2000/svg" xmlns:xlink="http://www.w3.org/1999/xlink" version="1.1" id="Layer_1" x="0px" y="0px" viewBox="0 0 501.999 501.999" style="enable-background:new 0 0 501.999 501.999;" xml:space="preserve" width="512px" height="512px">
<g>
	<g>
		<g>
			<path d="M414.24,117.039C370.145,103.348,312.172,95.808,251,95.808s-119.146,7.541-163.24,21.232     C15.226,139.562,0,173.313,0,197.664c0,24.349,15.226,58.102,87.76,80.624c27.453,8.524,60.43,14.7,96.419,18.125l-50.555,50.555     c-13.526,13.527-13.526,35.537,0,49.063c6.553,6.552,15.265,10.161,24.531,10.161c9.266,0,17.979-3.608,24.532-10.161     l67.325-67.325l43.62,43.621c6.554,6.552,15.266,10.161,24.531,10.161c9.267,0,17.979-3.609,24.531-10.162     c13.525-13.526,13.525-35.536,0-49.063l-26.686-26.686c36.692-3.388,70.318-9.622,98.231-18.289     c72.534-22.522,87.76-56.275,87.76-80.624S486.774,139.562,414.24,117.039z M93.691,259.188     C45.482,244.219,20,222.943,20,197.664c0-25.28,25.482-46.555,73.691-61.523c42.227-13.112,98.093-20.333,157.309-20.333     s115.082,7.221,157.309,20.333h0.001c25.871,8.033,45.187,17.884,57.542,29.193l-22.676,19.187     c-7.879-6.183-22.983-14.686-51.528-22.657c-38.494-10.751-88.444-16.671-140.648-16.671c-52.205,0-102.155,5.92-140.65,16.671     c-45.168,12.615-56.705,26.563-59.165,30.538c-1.996,3.225-1.996,7.301,0,10.525c2.46,3.975,13.996,17.922,59.165,30.538     c25.124,7.017,55.444,12.04,88.179,14.634v29.473C159.029,274.591,122.971,268.279,93.691,259.188z M427.181,197.659     c-6.555,4.214-18.876,10.388-40.911,16.542c-23.944,6.686-53.016,11.475-84.53,13.963c-4.116-11.504-15.121-19.759-28.023-19.759     h-45.434c-12.901,0-23.906,8.255-28.022,19.759c-31.515-2.488-60.588-7.277-84.531-13.963     c-22.047-6.158-34.369-12.334-40.911-16.533c6.554-4.213,18.876-10.388,40.911-16.542c36.792-10.275,84.832-15.934,135.27-15.934     s98.477,5.659,135.27,15.934C408.317,187.284,420.639,193.461,427.181,197.659z M168.545,381.888     c-2.775,2.775-6.465,4.303-10.39,4.303c-3.925,0-7.614-1.528-10.389-4.303c-5.729-5.729-5.729-15.05,0-20.778l55.499-55.499     l0.003-0.011c5.301,8.217,14.529,13.673,25.014,13.673h2.877L168.545,381.888z M228.283,299.274L228.283,299.274     c-5.002-0.001-9.132-3.787-9.686-8.644l24.165-24.165c3.905-3.905,3.905-10.237,0-14.143c-3.905-3.905-10.237-3.905-14.143,0     l-10.09,10.09v-23.623v-0.63c0-5.378,4.375-9.754,9.754-9.754h45.434c5.379,0,9.755,4.375,9.755,9.754v0.63v49.479v1.252     c0,5.378-4.376,9.754-9.755,9.754H228.283z M328.553,337.404c5.728,5.729,5.728,15.051,0,20.779     c-2.775,2.775-6.465,4.304-10.389,4.304s-7.614-1.529-10.39-4.303l-38.909-38.91h4.852c9.976,0,18.815-4.94,24.216-12.497     l0.003,0.01L328.553,337.404z M408.309,259.188c-29.279,9.092-65.338,15.404-104.837,18.384v-29.473     c32.734-2.594,63.055-7.618,88.177-14.634c34.105-9.525,49.03-19.807,55.357-25.985l31.105-26.32     c2.574,5.28,3.889,10.789,3.889,16.505C482,222.943,456.519,244.218,408.309,259.188z" fill="#9a9da2"/>
			<path d="M67.187,173.461c4.833-2.672,6.585-8.757,3.913-13.59c-2.673-4.833-8.756-6.584-13.59-3.913     c-8.403,4.646-15.292,9.671-20.477,14.934c-3.876,3.935-3.828,10.266,0.106,14.142c1.948,1.919,4.483,2.876,7.017,2.876     c2.584,0,5.168-0.996,7.125-2.982C55.115,181.034,60.467,177.177,67.187,173.461z" fill="#9a9da2"/>
			<path d="M97.903,160.128c0.984,0,1.986-0.146,2.976-0.455c21.417-6.667,47.764-11.909,76.191-15.158     c5.487-0.627,9.427-5.584,8.8-11.071c-0.627-5.487-5.583-9.428-11.071-8.8c-30.078,3.438-56.948,8.798-79.866,15.933     c-5.273,1.642-8.217,7.247-6.575,12.521C89.691,157.382,93.641,160.128,97.903,160.128z" fill="#9a9da2"/>
		</g>
	</g>
</g>
<g>
</g>
<g>
</g>
<g>
</g>
<g>
</g>
<g>
</g>
<g>
</g>
<g>
</g>
<g>
</g>
<g>
</g>
<g>
</g>
<g>
</g>
<g>
</g>
<g>
</g>
<g>
</g>
<g>
</g>
</svg>
