<?xml version="1.0" encoding="iso-8859-1"?>
<!-- Generator: Adobe Illustrator 17.1.0, SVG Export Plug-In . SVG Version: 6.00 Build 0)  -->
<!DOCTYPE svg PUBLIC "-//W3C//DTD SVG 1.1//EN" "http://www.w3.org/Graphics/SVG/1.1/DTD/svg11.dtd">
<svg xmlns="http://www.w3.org/2000/svg" xmlns:xlink="http://www.w3.org/1999/xlink" version="1.1" id="Capa_1" x="0px" y="0px" viewBox="0 0 476.144 476.144" style="enable-background:new 0 0 476.144 476.144;" xml:space="preserve" width="512px" height="512px">
<path d="M152.123,183.638c-14.684,0-34.982,5.739-51.713,14.622c-21.112,11.208-32.739,25.347-32.739,39.812  s11.627,28.604,32.739,39.812c4.572,2.428,9.414,4.61,14.331,6.515c0.025,0.01,0.05,0.019,0.075,0.029  c13.054,5.048,26.656,8.079,37.307,8.079c30.015,0,54.434-24.419,54.434-54.434S182.138,183.638,152.123,183.638z M152.123,277.505  c-5.95,0-13.155-1.219-20.64-3.338l36.343-36.343c2.929-2.93,2.929-7.678,0-10.607c-2.93-2.928-7.678-2.928-10.607,0l-41.359,41.359  c-3.298-1.432-6.518-2.999-9.576-4.675l43.068-43.068c2.929-2.93,2.929-7.678,0-10.607c-2.93-2.928-7.678-2.928-10.607,0  l-45.198,45.199c-6.609-5.476-10.875-11.466-10.875-17.353c0-19.164,45.164-39.434,69.452-39.434  c21.744,0,39.434,17.689,39.434,39.434S173.867,277.505,152.123,277.505z M376.196,198.26c-16.731-8.883-37.03-14.622-51.713-14.622  c-30.015,0-54.434,24.419-54.434,54.434c0,12.64,4.342,24.277,11.598,33.526c0.21,0.32,0.454,0.623,0.719,0.914  c6.01,7.337,13.897,13.074,22.919,16.487c0.321,0.143,0.648,0.266,0.982,0.361c5.699,2.03,11.829,3.145,18.216,3.145  c14.683,0,34.981-5.739,51.713-14.622c21.112-11.208,32.739-25.347,32.739-39.812S397.309,209.468,376.196,198.26z M324.483,277.505  c-0.293,0-0.583-0.016-0.875-0.022l39.078-39.056c2.93-2.928,2.931-7.677,0.003-10.606c-2.929-2.932-7.678-2.931-10.606-0.003  l-45.433,45.407c-2.998-1.527-5.776-3.423-8.272-5.633l45.227-45.549c2.918-2.939,2.901-7.688-0.038-10.606  c-2.938-2.918-7.688-2.903-10.606,0.038l-43.796,44.108c-2.628-5.28-4.115-11.223-4.115-17.51c0-21.744,17.689-39.434,39.434-39.434  c24.288,0,69.452,20.27,69.452,39.434S348.771,277.505,324.483,277.505z M468.644,204.972h-36.085  c-8.558-7.812-20.102-15.225-34.39-21.957c-26.292-12.388-58.12-20.71-79.202-20.71c-33.18,0-61.427,21.448-71.656,51.2h-18.014  c-10.229-29.753-38.476-51.2-71.656-51.2c-20.79,0-53.517,8.513-79.585,20.7c-11.835,5.534-24.789,12.892-34.866,21.967H7.5  c-4.143,0-7.5,3.357-7.5,7.5v51.199c0,4.143,3.357,7.5,7.5,7.5h35.689c10.076,9.075,23.031,16.433,34.866,21.967  c26.068,12.188,58.795,20.7,79.585,20.7c36.277,0,66.666-25.632,74.043-59.733h13.239c7.378,34.101,37.766,59.733,74.043,59.733  c21.082,0,52.91-8.322,79.202-20.71c14.289-6.732,25.832-14.145,34.39-21.957h36.085c4.143,0,7.5-3.357,7.5-7.5v-51.199  C476.144,208.33,472.786,204.972,468.644,204.972z M15,219.972h15.679c-3.194,5.59-5.079,11.626-5.079,18.1s1.886,12.509,5.079,18.1  H15V219.972z M157.64,298.838c-18.827,0-48.941-7.932-73.231-19.289C56.567,266.533,40.6,251.415,40.6,238.072  c0-6.316,3.583-13.029,10.304-19.73c0.412-0.328,0.792-0.694,1.128-1.1c7.473-7.085,18.436-14.13,32.377-20.648  c24.29-11.357,54.404-19.289,73.231-19.289c33.507,0,60.767,27.26,60.767,60.767S191.146,298.838,157.64,298.838z M233.38,239.105  c0.005-0.345,0.026-0.687,0.026-1.033c0-3.242-0.228-6.43-0.625-9.566h11.043c-0.397,3.136-0.625,6.324-0.625,9.566  c0,0.346,0.021,0.688,0.026,1.033H233.38z M391.774,279.559c-24.093,11.352-54.033,19.279-72.809,19.279  c-33.507,0-60.767-27.26-60.767-60.767s27.26-60.767,60.767-60.767c18.775,0,48.716,7.928,72.809,19.279  c27.597,13.002,43.425,28.124,43.425,41.487S419.371,266.557,391.774,279.559z M461.144,256.171h-16.136  c3.424-5.949,5.192-12.017,5.192-18.1s-1.768-12.151-5.192-18.1h16.136V256.171z" fill="#9a9da2"/>
<g>
</g>
<g>
</g>
<g>
</g>
<g>
</g>
<g>
</g>
<g>
</g>
<g>
</g>
<g>
</g>
<g>
</g>
<g>
</g>
<g>
</g>
<g>
</g>
<g>
</g>
<g>
</g>
<g>
</g>
</svg>
