<?xml version="1.0" encoding="iso-8859-1"?>
<!-- Generator: Adobe Illustrator 17.1.0, SVG Export Plug-In . SVG Version: 6.00 Build 0)  -->
<!DOCTYPE svg PUBLIC "-//W3C//DTD SVG 1.1//EN" "http://www.w3.org/Graphics/SVG/1.1/DTD/svg11.dtd">
<svg xmlns="http://www.w3.org/2000/svg" xmlns:xlink="http://www.w3.org/1999/xlink" version="1.1" id="Capa_1" x="0px" y="0px" viewBox="0 0 390.15 390.15" style="enable-background:new 0 0 390.15 390.15;" xml:space="preserve" width="512px" height="512px">
<path id="XMLID_913_" d="M153.717,132.867c1.646,0,3.309-0.092,4.978-0.28c1.854-0.208,3.597-0.988,4.987-2.23  c14.293-12.763,18.64-33.1,10.815-50.608c-7.828-17.507-25.896-27.828-44.93-25.685c-1.854,0.208-3.596,0.988-4.987,2.23  c-14.296,12.764-18.642,33.103-10.814,50.607C120.903,122.875,136.559,132.867,153.717,132.867z M134.5,71.785  c0.004,0,0.008,0,0.013,0c10.111,0,19.341,5.892,23.552,15.308c4.211,9.423,2.444,20.236-4.303,27.771c-0.005,0-0.009,0-0.014,0  c-10.111,0-19.341-5.892-23.55-15.31C125.985,90.132,127.751,79.32,134.5,71.785z M16.906,89.498c0-4.971,4.029-9,9-9H45.94  c1.978,0,3.899,0.651,5.47,1.853c16.396,12.547,33.599,27.473,54.137,46.97c3.605,3.422,3.753,9.119,0.331,12.724  c-1.77,1.864-4.146,2.804-6.528,2.804c-2.226,0-4.454-0.82-6.195-2.473c-19.057-18.09-35.112-32.105-50.279-43.877H25.906  C20.936,98.498,16.906,94.468,16.906,89.498z M172.249,143.787c2.717-2.243,9.709-7.801,13.635-10.915  c19.523-15.488,35.346-25.23,49.138-22.432c18.055,3.67,24.738,21.776,30.635,37.75c2.62,7.097,5.094,13.8,8.267,18.845  c2.646,4.207,1.381,9.764-2.826,12.41c-1.488,0.937-3.146,1.383-4.783,1.383c-2.991,0-5.917-1.49-7.627-4.209  c-4.173-6.634-7.093-14.544-9.917-22.195c-4.684-12.688-9.107-24.672-17.331-26.343c-5.579-1.136-17.138,5.225-34.368,18.895  c-3.876,3.074-10.765,8.549-13.364,10.695c-3.831,3.163-9.505,2.622-12.67-1.212C167.872,152.624,168.415,146.951,172.249,143.787z   M311.876,327.406c-0.021,4.957-4.047,8.961-8.999,8.961c-0.014,0-0.026,0-0.04,0l-19.792-0.085c-1.87-0.008-3.692-0.599-5.212-1.69  L220.62,293.49c-4.037-2.9-4.958-8.524-2.059-12.561s8.523-4.958,12.561-2.059l54.877,39.423l16.916,0.073  C307.885,318.389,311.897,322.436,311.876,327.406z M191.881,281.613c-1.064,4.037-4.71,6.708-8.697,6.708  c-0.76,0-1.531-0.097-2.3-0.3l-0.623-0.164c-64.498-17.004-131.19-34.585-165.034-2.155c-3.588,3.438-9.284,3.318-12.725-0.271  c-3.439-3.589-3.317-9.286,0.271-12.725c41.129-39.414,112.78-20.523,182.076-2.254l0.622,0.164  C190.278,271.883,193.147,276.806,191.881,281.613z M390.15,327.406c-0.021,4.957-4.047,8.961-8.999,8.961c-0.014,0-0.026,0-0.04,0  l-19.789-0.085c-1.87-0.008-3.692-0.599-5.212-1.69l-57.217-41.102c-4.037-2.9-4.958-8.523-2.059-12.561  c2.899-4.037,8.523-4.958,12.561-2.059l54.881,39.423l16.913,0.073C386.159,318.389,390.172,322.436,390.15,327.406z M2.502,239.661  c-3.439-3.589-3.317-9.286,0.271-12.725c41.127-39.413,112.782-20.523,182.076-2.254c64.313,16.955,130.815,34.487,164.455,2.254  c3.588-3.438,9.285-3.318,12.725,0.271s3.317,9.286-0.271,12.725c-17.682,16.943-41.067,23.049-67.498,23.05  c-34.742,0-74.748-10.547-113.998-20.895C115.764,225.083,49.07,207.5,15.228,239.932C11.638,243.37,5.942,243.251,2.502,239.661z   M2.502,193.891c-3.439-3.589-3.317-9.286,0.271-12.725c41.127-39.414,112.78-20.522,182.076-2.254  c64.313,16.956,130.816,34.488,164.455,2.254c3.588-3.438,9.285-3.317,12.725,0.271c3.439,3.589,3.317,9.286-0.271,12.725  c-17.682,16.944-41.067,23.049-67.499,23.05c-34.742,0-74.748-10.547-113.998-20.895c-64.496-17.003-131.188-34.585-165.034-2.155  C11.639,197.601,5.942,197.48,2.502,193.891z" fill="#FFFFFF"/>
<g>
</g>
<g>
</g>
<g>
</g>
<g>
</g>
<g>
</g>
<g>
</g>
<g>
</g>
<g>
</g>
<g>
</g>
<g>
</g>
<g>
</g>
<g>
</g>
<g>
</g>
<g>
</g>
<g>
</g>
</svg>
