<?xml version="1.0" encoding="iso-8859-1"?>
<!-- Generator: Adobe Illustrator 19.0.0, SVG Export Plug-In . SVG Version: 6.00 Build 0)  -->
<svg xmlns="http://www.w3.org/2000/svg" xmlns:xlink="http://www.w3.org/1999/xlink" version="1.1" id="Capa_1" x="0px" y="0px" viewBox="0 0 511.993 511.993" style="enable-background:new 0 0 511.993 511.993;" xml:space="preserve" width="512px" height="512px">
<g>
	<g>
		<path d="M506.935,210.504c-5.839-28.224-15.434-55.538-28.529-81.212c-3.638-6.446-7.317-12.333-11.254-18.004    c-0.192-0.241-0.397-0.471-0.614-0.689c-21.782-31.679-50.464-58.008-83.889-77.004l-0.019-0.016l-0.058-0.031l-0.017-0.01    l-0.009-0.004C323.831,0.172,254.329-8.693,189.118,8.863c-0.171,0.047-0.308,0.161-0.475,0.218    C121.989,27.2,65.492,71.496,31.994,131.902l-0.018,0.023l-0.022,0.044l-0.024,0.04l-0.004,0.015    c-6.658,11.856-12.288,24.26-16.829,37.077c-0.151,0.306-0.285,0.62-0.4,0.942c-9.095,25.347-14.023,52-14.591,78.923    l-0.001,0.002v0.003l-0.004,0.068l0.006,0.051c-1.679,57.919,16.456,114.676,51.407,160.891c0.15,0.25,0.308,0.5,0.483,0.737    c2.192,3,4.504,5.892,7.421,9.179l0.017,0.016c4.843,5.973,10.007,11.677,15.47,17.088    c47.643,48.122,112.599,75.122,180.317,74.95c1.167,0,2.338-0.004,3.504-0.021l0.008-0.002    c40.727-0.342,80.775-10.466,116.771-29.519l0.069-0.06c0.932-0.408,1.833-0.885,2.693-1.428l0.108-0.058    c53.151-29.05,94.347-75.924,116.329-132.366c0.063-0.161,0.086-0.343,0.139-0.512c11.37-29.33,17.185-60.519,17.149-91.976    C511.623,240.723,509.931,225.498,506.935,210.504z M366.132,50.365c3.408-0.263,6.802-0.579,10.247-0.701    c17.734,10.278,34.036,22.848,48.484,37.385c6.573,6.571,12.754,13.522,18.513,20.817c-0.698,0.036-1.364,0.151-2.06,0.193    c-5.432,0.321-10.851,0.797-16.356,1.519l-1.625,0.25c-3.617,0.554-7.321,1.125-10.908,1.817c-0.209,0.04-0.388,0.148-0.592,0.204    c-3.703,0.741-7.38,1.559-11.018,2.484c-5.86,1.491-11.606,3.294-17.291,5.258c-20.569,7.097-39.959,17.236-57.524,30.079    l-0.009,0.009l-0.004,0.003c-4.287,3.145-8.44,6.431-12.459,9.859c-1.315,1.118-2.533,2.328-3.819,3.475    c-2.65,2.362-5.31,4.713-7.834,7.193c-1.47,1.445-2.835,2.981-4.262,4.465c-2.21,2.297-4.443,4.573-6.546,6.96    c-1.461,1.658-2.816,3.399-4.225,5.1c-1.931,2.331-3.885,4.643-5.717,7.051c-1.386,1.822-2.668,3.717-3.996,5.582    c-1.707,2.396-3.43,4.777-5.039,7.242c-1.28,1.961-2.461,3.985-3.679,5.989c-1.506,2.478-3.021,4.946-4.43,7.486    c-1.149,2.073-2.206,4.198-3.289,6.311c-1.317,2.568-2.635,5.133-3.853,7.758c-1.01,2.178-1.934,4.398-2.874,6.613    c-0.753,1.772-1.593,3.498-2.3,5.293c-2.016,0.233-4.032,0.457-6.068,0.628c-1.323,0.111-2.634,0.257-3.963,0.341    c-4.188,0.266-8.398,0.432-12.617,0.432c-6.228,0-12.39-0.333-18.503-0.883c-0.614-0.055-1.234-0.084-1.847-0.145    c-5.79-0.574-11.513-1.44-17.185-2.506c-0.881-0.166-1.766-0.316-2.645-0.494c-5.515-1.116-10.965-2.482-16.354-4.064    c-0.95-0.279-1.898-0.564-2.843-0.856c-5.361-1.663-10.654-3.552-15.879-5.668c-0.295-0.12-0.587-0.251-0.881-0.372    c0.548-2.303,1.127-4.592,1.735-6.868c0.844-3.135,1.673-6.276,2.635-9.353c1.051-3.359,2.242-6.644,3.43-9.932    c1.08-2.988,2.135-5.988,3.326-8.914c1.321-3.244,2.786-6.401,4.24-9.566c1.301-2.832,2.567-5.685,3.972-8.451    c1.581-3.114,3.309-6.128,5.019-9.155c1.506-2.669,2.971-5.367,4.574-7.967c1.833-2.971,3.814-5.828,5.768-8.706    c1.697-2.497,3.344-5.033,5.131-7.458c2.07-2.81,4.29-5.491,6.477-8.201c1.877-2.326,3.699-4.7,5.66-6.949    c2.299-2.638,4.747-5.13,7.158-7.66c2.039-2.14,4.018-4.34,6.133-6.399c2.535-2.469,5.218-4.775,7.86-7.127    c2.168-1.93,4.272-3.933,6.51-5.782c2.782-2.299,5.709-4.416,8.595-6.586c2.265-1.704,4.462-3.494,6.788-5.117    c3.069-2.141,6.28-4.078,9.451-6.073c2.294-1.443,4.517-2.989,6.862-4.355c3.523-2.053,7.188-3.875,10.821-5.748    c2.129-1.097,4.186-2.313,6.351-3.346c5.322-2.542,10.777-4.842,16.306-6.992c1.552-0.603,3.127-1.147,4.693-1.719    c5.118-1.867,10.274-3.655,15.546-5.177c2.432-0.702,4.946-1.195,7.408-1.821c3.946-1.004,7.869-2.071,11.889-2.877    c2.791-0.559,5.656-0.897,8.481-1.36c3.78-0.619,7.535-1.312,11.37-1.753C360.06,50.717,363.111,50.598,366.132,50.365z     M135.316,71.063c1.581-1.684,3.234-3.301,4.865-4.94c1.316-1.323,2.596-2.679,3.944-3.971c1.767-1.695,3.612-3.315,5.433-4.957    c1.288-1.161,2.537-2.36,3.852-3.495c2.135-1.842,4.35-3.6,6.554-5.369c1.072-0.861,2.104-1.764,3.192-2.607    c3.323-2.575,6.72-5.067,10.19-7.474c0.598-0.415,1.229-0.791,1.832-1.201c2.899-1.971,5.82-3.916,8.816-5.766    c1.217-0.752,2.485-1.435,3.718-2.167c2.344-1.39,4.679-2.79,7.078-4.104c50.506-13.298,103.972-9.748,152.277,10.109    c-2.511,0.369-4.957,0.936-7.445,1.377c-2.661,0.471-5.323,0.921-7.956,1.472c-4.301,0.902-8.533,1.973-12.754,3.086    c-2.356,0.621-4.735,1.172-7.065,1.858c-4.952,1.459-9.809,3.129-14.634,4.874c-1.499,0.542-3.041,0.989-4.528,1.557    c-6.257,2.395-12.393,5.026-18.407,7.893c-1.57,0.747-3.067,1.616-4.62,2.395c-4.399,2.206-8.766,4.465-13.018,6.916    c-2.156,1.243-4.231,2.6-6.348,3.904c-3.539,2.181-7.056,4.386-10.48,6.735c-2.227,1.528-4.391,3.134-6.567,4.731    c-3.182,2.335-6.322,4.717-9.391,7.197c-2.155,1.741-4.269,3.52-6.365,5.33c-2.96,2.556-5.855,5.181-8.686,7.876    c-1.997,1.892-3.985,3.783-5.92,5.74c-2.83,2.862-5.55,5.826-8.244,8.823c-1.75,1.947-3.531,3.857-5.222,5.859    c-2.869,3.397-5.583,6.927-8.276,10.479c-1.33,1.755-2.733,3.443-4.019,5.234c-3.869,5.389-7.563,10.919-11.017,16.628    c-0.391,0.646-0.719,1.336-1.104,1.985c-3.034,5.118-5.918,10.341-8.604,15.696c-1.044,2.083-1.954,4.245-2.944,6.362    c-1.885,4.033-3.739,8.08-5.421,12.234c-1.006,2.484-1.901,5.024-2.832,7.549c-1.451,3.932-2.849,7.888-4.115,11.917    c-0.845,2.691-1.616,5.413-2.378,8.146c-0.577,2.069-1.274,4.078-1.802,6.171l-0.296-0.143c-4.956-2.557-9.774-5.382-14.504-8.35    c-0.962-0.604-1.928-1.202-2.88-1.822c-4.567-2.975-9.012-6.129-13.335-9.461c-0.817-0.631-1.608-1.295-2.415-1.94    c-4.203-3.356-8.298-6.848-12.219-10.529c-0.286-0.268-0.59-0.517-0.874-0.788c-4.067-3.864-7.92-7.945-11.644-12.136    c-0.413-0.464-0.826-0.928-1.234-1.396c0.341-1.433,0.695-2.861,1.061-4.284c0.514-1.992,1.021-3.985,1.584-5.957    c0.597-2.093,1.254-4.161,1.907-6.231c0.617-1.955,1.225-3.914,1.891-5.848c0.707-2.054,1.476-4.081,2.238-6.112    c0.714-1.901,1.414-3.807,2.175-5.685c0.817-2.019,1.698-4.006,2.57-5.998c0.808-1.847,1.6-3.703,2.454-5.526    c0.919-1.963,1.903-3.89,2.873-5.824c0.905-1.802,1.789-3.614,2.739-5.391c1.019-1.907,2.105-3.775,3.175-5.652    c0.996-1.747,1.969-3.507,3.009-5.228c1.126-1.865,2.321-3.685,3.499-5.518c1.072-1.67,2.12-3.356,3.233-4.997    c1.239-1.825,2.546-3.601,3.835-5.391c1.146-1.592,2.264-3.204,3.448-4.767c1.337-1.764,2.745-3.473,4.132-5.199    c1.223-1.524,2.417-3.072,3.678-4.566c1.447-1.714,2.967-3.367,4.463-5.041C132.748,73.931,133.998,72.468,135.316,71.063z     M86.981,87.05c12.329-12.329,25.967-23.276,40.671-32.646c-0.801,0.808-1.534,1.676-2.323,2.494    c-2.07,2.146-4.101,4.326-6.093,6.54c-1.334,1.484-2.659,2.971-3.958,4.485c-1.977,2.306-3.892,4.659-5.784,7.032    c-1.178,1.477-2.374,2.938-3.519,4.44c-2.083,2.734-4.076,5.533-6.046,8.349c-0.841,1.202-1.725,2.371-2.545,3.586    c-2.718,4.03-5.321,8.136-7.81,12.318c-0.598,1.008-1.135,2.053-1.72,3.07c-1.865,3.24-3.689,6.502-5.41,9.826    c-0.826,1.593-1.587,3.219-2.38,4.831c-1.392,2.831-2.756,5.674-4.044,8.559c-0.786,1.762-1.531,3.543-2.278,5.325    c-1.184,2.826-2.32,5.675-3.406,8.546c-0.683,1.812-1.354,3.627-1.996,5.457c-1.05,2.991-2.026,6.01-2.966,9.047    c-0.34,1.097-0.747,2.167-1.072,3.27c-2.317-3.311-4.645-6.613-6.765-10.067c-0.351-0.572-0.749-1.114-1.094-1.69    c-2.646-4.41-4.994-8.995-7.299-13.598C59.544,118.245,72.265,101.711,86.981,87.05z M30.464,176.642    c0.163-0.329,0.307-0.667,0.429-1.013c2.501-7.138,5.361-14.144,8.571-20.992c0.332,0.581,0.71,1.131,1.047,1.709    c1.447,2.479,2.951,4.915,4.49,7.329c0.678,1.063,1.334,2.139,2.029,3.189c2.252,3.399,4.568,6.744,6.992,9.985    c2.392,3.3,5.008,6.492,7.571,9.496l0.011,0.012l0.044,0.055l0.015,0.011c2.605,3.118,5.297,6.162,8.078,9.132    c16.868,17.988,36.659,32.991,58.536,44.371c3.635,1.888,7.32,3.669,11.055,5.344l0.015,0.003    c28.16,12.788,58.745,19.356,89.672,19.255c4.515,0,9.02-0.175,13.506-0.456c1.623-0.101,3.16-0.269,4.755-0.405    c1.971-0.168,3.956-0.282,5.91-0.503c1.162,1.637,2.299,3.289,3.411,4.955c0.967,1.453,1.964,2.888,2.891,4.362    c1.607,2.554,3.106,5.164,4.592,7.78c0.724,1.274,1.5,2.523,2.195,3.812c4.255,7.88,7.976,16.036,11.14,24.414    c0.415,1.098,0.757,2.222,1.153,3.327c1.11,3.105,2.188,6.222,3.143,9.38c0.435,1.439,0.801,2.898,1.204,4.347    c0.795,2.861,1.565,5.729,2.232,8.627c0.371,1.611,0.688,3.236,1.019,4.858c0.564,2.758,1.09,5.527,1.538,8.312    c0.282,1.753,0.527,3.514,0.762,5.277c0.176,1.316,0.298,2.642,0.448,3.964c-2.025,0.581-4.049,1.161-6.09,1.686    c-2.358,0.607-4.709,1.233-7.088,1.766c-3.416,0.766-6.867,1.393-10.322,2.005c-2.264,0.402-4.515,0.856-6.793,1.192    c-3.839,0.565-7.713,0.955-11.59,1.333c-1.935,0.188-3.854,0.462-5.798,0.603c-5.833,0.424-11.699,0.668-17.597,0.668    c-5.339,0-10.65-0.178-15.935-0.535c-1.727-0.116-3.427-0.362-5.147-0.515c-3.54-0.315-7.086-0.599-10.593-1.07    c-2.103-0.282-4.17-0.709-6.26-1.047c-3.088-0.498-6.189-0.943-9.244-1.56c-2.212-0.447-4.381-1.039-6.575-1.547    c-2.891-0.67-5.799-1.282-8.656-2.058c-2.234-0.606-4.42-1.355-6.632-2.025c-2.761-0.837-5.544-1.615-8.268-2.549    c-2.236-0.767-4.415-1.67-6.625-2.502c-2.642-0.994-5.307-1.932-7.908-3.018c-2.22-0.927-4.378-1.986-6.567-2.978    c-2.52-1.142-5.067-2.229-7.545-3.457c-2.198-1.09-4.328-2.308-6.491-3.464c-2.394-1.279-4.816-2.505-7.164-3.864    c-2.148-1.244-4.222-2.611-6.331-3.921c-2.279-1.416-4.59-2.781-6.821-4.273c-2.079-1.39-4.076-2.898-6.11-4.353    c-2.171-1.552-4.374-3.056-6.494-4.681c-1.997-1.531-3.908-3.177-5.857-4.772c-2.058-1.684-4.15-3.322-6.153-5.076    c-1.9-1.664-3.708-3.435-5.557-5.161c-1.948-1.818-3.93-3.594-5.819-5.48c-1.785-1.782-3.474-3.666-5.205-5.507    c-1.839-1.956-3.713-3.874-5.488-5.896c-1.659-1.89-3.22-3.877-4.822-5.823c-1.726-2.097-3.488-4.159-5.146-6.32    c-1.532-1.996-2.96-4.085-4.431-6.135c-1.598-2.227-3.232-4.422-4.757-6.712c-1.395-2.093-2.682-4.273-4.015-6.417    c-1.276-2.053-2.571-4.089-3.788-6.188C17.989,222.957,22.452,199.247,30.464,176.642z M264.676,478.196    c-0.922,1.652-1.877,3.28-2.846,4.898c-0.902,1.507-1.814,3.008-2.755,4.485c-1,1.57-2.033,3.113-3.077,4.647    c-0.607,0.893-1.227,1.773-1.849,2.654c-38.972-0.082-77.316-9.823-111.602-28.351c0.532,0.178,1.082,0.31,1.615,0.485    c9.168,2.998,18.499,5.476,27.947,7.422c0.401,0.082,0.802,0.159,1.202,0.239c15.033,3.025,30.309,4.689,45.641,4.972l0.509,0.011    c1.394,0.023,2.783,0.092,4.178,0.092c2.727,0,5.438-0.153,8.156-0.24c1.427-0.044,2.854-0.058,4.28-0.126    c3.361-0.165,6.703-0.443,10.044-0.741c1.876-0.165,3.754-0.292,5.623-0.499c2.972-0.332,5.918-0.781,8.868-1.219    c1.707-0.252,3.43-0.416,5.129-0.705C265.382,476.878,265.04,477.544,264.676,478.196z M269.657,458.051    c-1.88,0.378-3.753,0.78-5.645,1.111c-2.642,0.462-5.307,0.828-7.971,1.198c-1.781,0.248-3.552,0.537-5.341,0.743    c-2.971,0.343-5.964,0.572-8.956,0.801c-1.51,0.116-3.011,0.288-4.525,0.375c-4.512,0.259-9.04,0.403-13.581,0.403    c-6.952,0-13.873-0.303-20.765-0.91c-2.293-0.201-4.546-0.63-6.829-0.897c-4.571-0.534-9.154-1.007-13.676-1.802    c-2.853-0.502-5.644-1.263-8.473-1.868c-3.89-0.831-7.807-1.553-11.646-2.576c-3.021-0.805-5.957-1.873-8.942-2.795    c-3.571-1.103-7.182-2.086-10.696-3.355c-2.917-1.054-5.733-2.361-8.607-3.528c-3.481-1.412-7.008-2.71-10.419-4.285    c-2.77-1.279-5.421-2.803-8.142-4.189c-3.398-1.731-6.849-3.354-10.163-5.248c-2.54-1.451-4.949-3.135-7.437-4.681    c-3.358-2.088-6.772-4.079-10.028-6.337c-2.319-1.608-4.494-3.434-6.758-5.128c-3.219-2.408-6.493-4.734-9.595-7.312    c-1.828-2.102-3.526-4.209-5.138-6.381c-0.197-0.35-0.419-0.685-0.663-1.004c-26.77-35.086-43.212-76.949-47.476-120.874    c0.324,0.437,0.681,0.843,1.007,1.278c1.185,1.576,2.435,3.089,3.654,4.634c2.104,2.667,4.221,5.316,6.422,7.888    c1.382,1.616,2.811,3.183,4.231,4.761c2.16,2.399,4.346,4.769,6.59,7.08c1.51,1.555,3.044,3.081,4.592,4.594    c2.283,2.233,4.604,4.419,6.965,6.559c1.589,1.442,3.179,2.876,4.801,4.275c2.466,2.128,4.985,4.181,7.526,6.21    c1.601,1.279,3.187,2.575,4.818,3.814c2.783,2.114,5.633,4.129,8.497,6.126c1.467,1.023,2.903,2.09,4.391,3.082    c3.805,2.537,7.688,4.951,11.622,7.28c0.599,0.355,1.174,0.75,1.776,1.1c4.568,2.655,9.217,5.163,13.949,7.524    c1.363,0.683,2.765,1.285,4.14,1.944c3.383,1.621,6.778,3.216,10.231,4.689c1.813,0.773,3.658,1.47,5.491,2.202    c3.086,1.233,6.18,2.441,9.316,3.554c2.003,0.711,4.025,1.366,6.048,2.028c3.034,0.993,6.081,1.943,9.155,2.823    c2.099,0.601,4.207,1.174,6.323,1.719c3.081,0.797,6.18,1.527,9.297,2.21c2.125,0.466,4.248,0.93,6.389,1.342    c3.225,0.621,6.473,1.145,9.73,1.642c2.051,0.313,4.092,0.656,6.154,0.919c3.584,0.458,7.193,0.785,10.808,1.092    c1.763,0.15,3.512,0.359,5.282,0.472c5.389,0.344,10.802,0.546,16.245,0.546c6.195,0,12.354-0.264,18.484-0.702    c1.998-0.143,3.972-0.399,5.962-0.589c4.133-0.393,8.254-0.83,12.348-1.421c2.311-0.334,4.602-0.75,6.899-1.147    c3.764-0.651,7.509-1.364,11.232-2.183c2.346-0.517,4.681-1.068,7.007-1.653c1.576-0.395,3.177-0.694,4.743-1.119    c0.054,1.858,0.12,3.691,0.12,5.665c0.025,23.347-4.031,46.52-11.983,68.471c-1.06,2.961-2.236,5.824-3.421,8.686    C273.246,457.31,271.455,457.692,269.657,458.051z M394.934,413.918c-1.116,3.015-2.156,6.057-3.404,9.022    c-1.054,2.502-2.295,4.928-3.442,7.392c-1.329,2.853-2.584,5.737-4.037,8.537c-1.29,2.485-2.764,4.885-4.152,7.327    c-1.524,2.682-2.977,5.396-4.619,8.022c-1.535,2.455-3.25,4.818-4.886,7.222c-1.558,2.289-3.061,4.606-4.711,6.847    c-28.138,14.589-58.92,23.38-90.519,25.85c0.426-0.691,0.791-1.426,1.209-2.123c1.506-2.511,2.957-5.059,4.355-7.643    c0.726-1.335,1.464-2.659,2.161-4.012c1.569-3.044,3.047-6.141,4.471-9.271c0.335-0.737,0.726-1.442,1.053-2.183    c0.218-0.343,0.412-0.701,0.579-1.071c1.871-4.162,3.679-8.695,5.517-13.829c6.454-17.806,10.547-36.381,12.174-55.251    c0.544-6.296,0.817-12.631,0.818-19.003c0-6.363-0.258-12.154-0.779-17.554l-0.004-0.035l-0.009-0.123l-0.008-0.024    c-0.388-4.935-0.943-9.842-1.666-14.719c-0.241-1.634-0.604-3.243-0.882-4.87c-0.563-3.287-1.108-6.579-1.821-9.83    c-0.422-1.926-0.97-3.817-1.444-5.729c-0.722-2.913-1.414-5.833-2.256-8.712c-0.593-2.026-1.306-4.011-1.957-6.018    c-0.883-2.72-1.737-5.449-2.727-8.132c-0.754-2.042-1.617-4.039-2.432-6.058c-1.046-2.593-2.069-5.192-3.216-7.745    c-0.91-2.026-1.921-4.005-2.893-6.004c-1.208-2.483-2.4-4.971-3.703-7.411c-1.061-1.985-2.213-3.922-3.336-5.878    c-1.368-2.381-2.728-4.764-4.189-7.098c-1.209-1.931-2.499-3.814-3.77-5.711c-1.061-1.584-2.044-3.211-3.149-4.77    c0.789-2.032,1.611-4.046,2.467-6.043c0.748-1.757,1.456-3.535,2.251-5.266c1.316-2.865,2.755-5.66,4.198-8.452    c0.731-1.414,1.403-2.861,2.166-4.255c2.226-4.066,4.582-8.048,7.07-11.947l0.142-0.237c2.552-3.971,5.259-7.838,8.081-11.616    c0.917-1.228,1.915-2.391,2.86-3.598c1.963-2.506,3.933-5.006,6.014-7.417c1.209-1.401,2.492-2.739,3.74-4.108    c1.936-2.123,3.879-4.24,5.907-6.282c1.396-1.404,2.849-2.755,4.289-4.12c2.005-1.902,4.026-3.789,6.112-5.612    c1.538-1.344,3.117-2.646,4.699-3.946c1.175-0.966,2.384-1.894,3.583-2.836c0.731,0.624,1.476,1.237,2.198,1.87    c1.532,1.342,3.042,2.702,4.53,4.081c1.545,1.43,3.067,2.879,4.566,4.347c1.434,1.404,2.848,2.823,4.242,4.259    c1.471,1.52,2.917,3.059,4.336,4.617c1.332,1.456,2.652,2.923,3.942,4.411c1.39,1.603,2.745,3.231,4.085,4.869    c1.234,1.508,2.461,3.023,3.652,4.561c1.305,1.683,2.569,3.392,3.821,5.109c1.138,1.558,2.271,3.119,3.366,4.704    c1.212,1.755,2.378,3.537,3.537,5.325c1.042,1.605,2.084,3.21,3.083,4.841c1.12,1.83,2.189,3.688,3.254,5.548    c0.94,1.641,1.888,3.278,2.785,4.942c1.026,1.902,1.992,3.832,2.961,5.762c0.842,1.677,1.695,3.347,2.494,5.045    c0.927,1.97,1.788,3.97,2.657,5.967c0.741,1.704,1.5,3.4,2.197,5.123c0.825,2.037,1.579,4.104,2.343,6.166    c0.641,1.728,1.304,3.446,1.902,5.191c0.721,2.104,1.363,4.237,2.02,6.365c0.538,1.743,1.107,3.474,1.603,5.232    c0.615,2.183,1.145,4.393,1.694,6.597c0.433,1.737,0.902,3.462,1.293,5.211c0.514,2.297,0.933,4.622,1.374,6.94    c0.321,1.688,0.686,3.362,0.969,5.06c0.406,2.439,0.709,4.904,1.035,7.362c0.213,1.61,0.478,3.208,0.656,4.826    c0.303,2.742,0.492,5.508,0.694,8.272c0.099,1.353,0.255,2.693,0.329,4.051c0.228,4.133,0.343,8.285,0.347,12.457    c0,6.018-0.236,11.994-0.707,17.929c-0.162,2.056-0.503,4.071-0.721,6.115c-0.41,3.857-0.772,7.727-1.38,11.538    c-0.372,2.338-0.936,4.624-1.382,6.943c-0.666,3.465-1.264,6.948-2.093,10.367c-0.595,2.454-1.383,4.846-2.061,7.274    c-0.898,3.216-1.722,6.456-2.766,9.625C396.867,409.003,395.85,411.442,394.934,413.918z M478.487,343.112    c-11.987,30.709-30.251,58.578-53.623,81.826h0c-8.128,8.13-16.827,15.668-26.029,22.558l0.03-0.062l0.085-0.174    c2.632-5.037,5.017-10.179,7.271-15.373c0.67-1.544,1.289-3.106,1.925-4.664c1.61-3.939,3.112-7.917,4.505-11.935    c0.548-1.58,1.115-3.151,1.629-4.744c1.76-5.447,3.386-10.94,4.748-16.514l0.015-0.072c1.352-5.54,2.441-11.155,3.394-16.804    c0.283-1.68,0.513-3.371,0.761-5.061c0.62-4.225,1.128-8.475,1.525-12.75c0.159-1.712,0.337-3.419,0.46-5.139    c0.414-5.8,0.691-11.627,0.691-17.501c0-4.448-0.124-8.876-0.371-13.283c-0.08-1.469-0.243-2.922-0.349-4.386    c-0.213-2.927-0.418-5.854-0.735-8.759c-0.192-1.75-0.466-3.48-0.695-5.222c-0.341-2.594-0.668-5.192-1.092-7.766    c-0.306-1.854-0.689-3.686-1.037-5.53c-0.46-2.43-0.907-4.863-1.44-7.272c-0.421-1.901-0.911-3.779-1.377-5.667    c-0.573-2.318-1.139-4.636-1.78-6.932c-0.533-1.91-1.126-3.798-1.707-5.692c-0.685-2.236-1.371-4.47-2.12-6.682    c-0.643-1.899-1.337-3.777-2.028-5.658c-0.796-2.167-1.6-4.33-2.458-6.471c-0.751-1.874-1.543-3.727-2.341-5.58    c-0.904-2.102-1.825-4.193-2.79-6.267c-0.856-1.841-1.745-3.664-2.648-5.482c-1.015-2.042-2.056-4.069-3.126-6.083    c-0.954-1.79-1.932-3.566-2.932-5.331c-1.129-1.993-2.288-3.968-3.477-5.927c-1.046-1.729-2.107-3.447-3.198-5.15    c-1.243-1.94-2.525-3.854-3.826-5.758c-1.136-1.665-2.278-3.324-3.457-4.961c-1.363-1.891-2.771-3.75-4.191-5.603    c-1.213-1.583-2.422-3.167-3.677-4.721c-1.493-1.852-3.041-3.663-4.592-5.473c-1.279-1.492-2.546-2.991-3.865-4.454    c-1.64-1.821-3.341-3.593-5.041-5.367c-1.319-1.377-2.618-2.769-3.973-4.117c-1.829-1.822-3.728-3.584-5.622-5.353    c-1.317-1.23-2.607-2.482-3.955-3.686c-0.305-0.273-0.589-0.563-0.896-0.835l0.061-0.042c4.573-2.981,9.269-5.698,14.024-8.28    c0.924-0.502,1.844-1.015,2.775-1.502c4.647-2.429,9.373-4.671,14.18-6.724c0.883-0.377,1.78-0.722,2.668-1.086    c4.891-2.001,9.841-3.856,14.885-5.462c0.179-0.057,0.353-0.127,0.532-0.183c5.144-1.622,10.389-2.974,15.682-4.183    c0.555-0.127,1.11-0.254,1.667-0.376c2.93,2.665,5.86,5.328,8.636,8.147c0.341,0.346,0.656,0.714,0.994,1.062    c3.213,3.307,6.316,6.718,9.309,10.233c0.614,0.716,1.218,1.439,1.823,2.162c6.762,8.112,12.927,16.703,18.446,25.707    c2.517,3.994,4.876,8.069,7.113,12.203c0.209,0.391,0.423,0.779,0.629,1.171c1.859,3.488,3.578,7.043,5.236,10.625    c0.406,0.884,0.852,1.749,1.246,2.638c1.766,3.962,3.405,7.979,4.916,12.049c0.402,1.069,0.753,2.158,1.138,3.234    c1.328,3.746,2.603,7.515,3.718,11.341c0.114,0.383,0.227,0.767,0.339,1.152c0.753,2.466,1.462,5.062,2.143,7.771    c0.255,1.005,0.483,2.017,0.724,3.026c0.683,2.912,1.35,5.881,1.976,9.145c0.64,3.133,1.184,6.282,1.675,9.447    c0.302,2.005,0.548,4.023,0.795,6.041c0.184,1.48,0.397,2.948,0.549,4.44c0.232,2.268,0.377,4.552,0.539,6.832    c0.109,1.578,0.266,3.13,0.341,4.727c0.009,0.188,0.006,0.377,0.015,0.565c0.155,3.448,0.243,6.935,0.243,10.487    C484.116,310.263,482.234,326.875,478.487,343.112z M492.974,231.487c-0.416-1.548-0.89-3.077-1.336-4.615    c-0.137-0.454-0.264-0.946-0.403-1.392c-0.064-0.219-0.15-0.432-0.213-0.651c-1.177-3.923-2.451-7.81-3.823-11.661    c-0.546-1.547-1.087-3.092-1.667-4.627c-1.232-3.243-2.559-6.444-3.93-9.629c-0.542-1.254-1.026-2.531-1.59-3.776    c-2.075-4.602-4.329-9.118-6.691-13.581l-0.143-0.259c-6.428-12.087-13.882-23.599-22.28-34.411    c-0.564-0.732-1.133-1.46-1.706-2.183c-1.87-2.354-3.786-4.673-5.747-6.958c-1.116-1.307-2.239-2.604-3.383-3.885    c-1.58-1.763-3.197-3.494-4.832-5.214c-0.844-0.887-1.639-1.819-2.497-2.694c1.526-0.168,3.048-0.336,4.59-0.469    c1.892-0.157,3.779-0.341,5.681-0.447c1.656-0.096,3.331-0.111,4.998-0.167c2.337-0.075,4.658-0.18,7.038-0.18h0.579    c2.704,4.083,5.258,8.254,7.612,12.383c12.295,24.157,21.336,49.836,26.887,76.367h0c1.075,6.167,2.104,12.271,2.933,18.317    L492.974,231.487z" fill="#FFFFFF"/>
	</g>
</g>
<g>
</g>
<g>
</g>
<g>
</g>
<g>
</g>
<g>
</g>
<g>
</g>
<g>
</g>
<g>
</g>
<g>
</g>
<g>
</g>
<g>
</g>
<g>
</g>
<g>
</g>
<g>
</g>
<g>
</g>
</svg>
