<?xml version="1.0" encoding="iso-8859-1"?>
<!-- Generator: Adobe Illustrator 19.0.0, SVG Export Plug-In . SVG Version: 6.00 Build 0)  -->
<svg xmlns="http://www.w3.org/2000/svg" xmlns:xlink="http://www.w3.org/1999/xlink" version="1.1" id="Layer_1" x="0px" y="0px" viewBox="0 0 512 512" style="enable-background:new 0 0 512 512;" xml:space="preserve" width="512px" height="512px">
<g>
	<g>
		<path d="M504.499,116.194L395.819,7.505c-10.01-10.001-26.223-10.001-36.232,0L337.51,29.581    c-10.001-10.001-26.223-10.001-36.224,0L256,74.867c-10.001,10.001-10.001,26.223,0,36.224l45.286,45.286L156.373,301.291    l-45.286-45.286c-10.001-10.001-26.223-10.001-36.224,0l-45.286,45.286c-10.001,10.001-10.001,26.223,0,36.224L7.501,359.59    c-10.001,10.001-10.001,26.223,0,36.224l108.681,108.681c10.001,10.001,26.223,10.001,36.224,0l22.076-22.076    c10.001,10.001,26.223,10.001,36.224,0L256,437.141c10.001-10.001,10.001-26.223,0-36.224l-45.286-45.286l144.913-144.913    l45.286,45.286c10.001,10.001,26.223,10.001,36.224,0l45.286-45.286c10.001-10.001,10.001-26.223,0-36.224l22.076-22.076    C514.5,142.417,514.5,126.195,504.499,116.194z M134.298,486.387L25.617,377.707l22.076-22.076l108.681,108.68L134.298,486.387z     M237.884,419.025l-45.286,45.286L47.693,319.398l45.286-45.286L237.884,419.025z M192.606,337.515l-18.116-18.116    l144.913-144.913l18.108,18.125L192.606,337.515z M419.021,237.897L274.116,92.983l45.286-45.286L464.307,192.61L419.021,237.897z     M464.307,156.378L355.627,47.697l22.076-22.076l108.681,108.681L464.307,156.378z" fill="#9a9da2"/>
	</g>
</g>
<g>
</g>
<g>
</g>
<g>
</g>
<g>
</g>
<g>
</g>
<g>
</g>
<g>
</g>
<g>
</g>
<g>
</g>
<g>
</g>
<g>
</g>
<g>
</g>
<g>
</g>
<g>
</g>
<g>
</g>
</svg>
