<?xml version="1.0" standalone="no"?>
<!DOCTYPE svg PUBLIC "-//W3C//DTD SVG 20010904//EN"
 "http://www.w3.org/TR/2001/REC-SVG-20010904/DTD/svg10.dtd">
<svg version="1.0" xmlns="http://www.w3.org/2000/svg"
 width="300.000000pt" height="300.000000pt" viewBox="0 0 300.000000 300.000000"
 preserveAspectRatio="xMidYMid meet">
<metadata>
Created by potrace 1.15, written by Peter Selinger 2001-2017
</metadata>
<g transform="translate(0.000000,300.000000) scale(0.100000,-0.100000)"
fill="#000000" stroke="none">
<path d="M970 2596 l-525 -252 -8 -115 c-9 -131 6 -440 29 -599 87 -595 349
-1058 750 -1326 100 -67 261 -144 301 -144 63 0 281 124 418 238 l59 50 58
-63 c32 -35 78 -73 101 -84 116 -56 244 6 284 138 14 48 11 90 -12 172 -30
105 -70 154 -136 168 l-31 6 19 25 c32 43 123 247 164 370 35 104 75 264 93
373 6 34 13 40 69 68 81 41 122 72 158 122 23 32 29 50 29 93 0 48 -4 59 -35
93 -36 39 -90 61 -152 61 l-28 0 3 193 c1 105 3 226 4 267 3 90 -20 148 -79
207 -62 62 -104 78 -208 78 -80 0 -96 -3 -142 -29 -28 -15 -66 -43 -85 -62
-18 -18 -36 -34 -40 -34 -4 0 -118 54 -254 120 -136 66 -254 120 -263 119 -9
0 -252 -114 -541 -253z m787 79 c130 -63 234 -117 231 -120 -3 -3 -111 45
-239 108 l-234 113 -505 -241 -505 -241 1 -265 c1 -218 5 -289 23 -407 51
-338 152 -613 312 -852 80 -119 243 -289 356 -370 98 -70 279 -162 318 -163
58 0 262 117 378 215 31 27 62 48 67 46 12 -4 -86 -86 -170 -143 -77 -51 -218
-123 -257 -131 -33 -6 -144 37 -236 93 -424 254 -690 696 -782 1300 -22 145
-37 461 -28 583 l8 105 505 242 c278 133 508 242 512 242 5 1 114 -51 245
-114z m648 -4 c50 -22 97 -75 120 -135 24 -63 17 -184 -14 -244 -93 -182 -303
-242 -440 -126 -108 91 -108 295 0 418 93 106 216 138 334 87z m-1162 -277
c31 -6 37 -10 37 -32 0 -25 0 -25 -68 -19 -84 8 -105 -3 -100 -53 l3 -35 68
-5 c57 -4 72 -9 88 -29 27 -33 26 -119 -2 -155 -19 -24 -26 -26 -99 -26 -93 0
-110 5 -110 34 0 21 4 21 70 18 81 -5 100 5 100 53 0 39 -12 45 -81 45 -72 0
-99 29 -99 105 0 77 27 105 102 105 29 0 70 -3 91 -6z m327 -21 c0 -18 -29
-71 -80 -148 -44 -66 -80 -123 -80 -127 0 -5 36 -8 80 -8 79 0 80 0 80 -25 l0
-25 -125 0 -125 0 0 25 c0 16 31 70 80 141 45 63 83 121 86 129 5 13 -8 15
-80 15 -85 0 -86 0 -86 25 l0 25 125 0 125 0 0 -27z m233 21 c31 -6 37 -10 37
-32 0 -25 0 -25 -68 -19 -84 8 -105 -3 -100 -53 l3 -35 68 -5 c57 -4 72 -9 88
-29 27 -33 26 -119 -2 -155 -19 -24 -26 -26 -99 -26 -93 0 -110 5 -110 34 0
21 4 21 70 18 81 -5 100 5 100 53 0 39 -12 45 -81 45 -72 0 -99 29 -99 105 0
77 27 105 102 105 29 0 70 -3 91 -6z m887 -469 c30 -16 60 -61 60 -91 0 -9
-10 -34 -22 -56 -39 -70 -169 -141 -395 -218 -81 -28 -158 -57 -171 -66 -54
-36 -80 -120 -63 -209 5 -28 44 -129 85 -224 42 -94 76 -180 76 -190 0 -11 -7
-22 -16 -25 -29 -11 -1046 -7 -1087 5 -98 27 -111 108 -36 222 55 84 119 121
283 162 91 24 146 73 146 132 0 54 -33 101 -95 132 l-49 26 -314 3 c-260 2
-319 5 -344 18 -104 54 -55 279 80 365 l46 29 893 0 c780 0 898 -2 923 -15z
m-372 -1210 c35 -29 55 -76 73 -163 15 -77 3 -125 -42 -177 -95 -108 -239 -38
-363 176 -42 73 -33 125 27 155 52 28 77 32 179 33 89 1 99 -1 126 -24z"/>
</g>
</svg>
