<?xml version="1.0" encoding="iso-8859-1"?>
<!-- Generator: Adobe Illustrator 16.0.0, SVG Export Plug-In . SVG Version: 6.00 Build 0)  -->
<!DOCTYPE svg PUBLIC "-//W3C//DTD SVG 1.1//EN" "http://www.w3.org/Graphics/SVG/1.1/DTD/svg11.dtd">
<svg xmlns="http://www.w3.org/2000/svg" xmlns:xlink="http://www.w3.org/1999/xlink" version="1.1" id="Capa_1" x="0px" y="0px" width="512px" height="512px" viewBox="0 0 783.429 783.429" style="enable-background:new 0 0 783.429 783.429;" xml:space="preserve">
<g>
	<path d="M338.287,310.876c0-31.062,25.181-56.243,56.253-56.243c31.062,0,56.254,25.181,56.254,56.243   c0,31.073-25.181,56.254-56.254,56.254C363.468,367.13,338.287,341.949,338.287,310.876L338.287,310.876z M560.058,228.779   c-10.22-3.895-21.634,1.204-25.539,11.403l-38.45,100.508l-74.231,52.5c-0.217-0.01-0.412-0.064-0.618-0.064h-25.344h-25.344   c-0.206,0-0.401,0.055-0.618,0.064l-74.231-52.5l-38.45-100.508c-3.906-10.199-15.319-15.297-25.539-11.403   c-10.199,3.906-15.309,15.341-11.403,25.54l40.598,106.117c1.389,3.656,3.852,6.824,7.052,9.081l87.217,61.689v169.206   c0.043,5.652,2.539,19.084-3.938,32.374l-63.241,121.74c-5.034,9.688-1.259,21.623,8.441,26.668   c2.907,1.508,6.021,2.234,9.091,2.234c7.15,0,14.05-3.895,17.565-10.676l69.251-133.294c1.172,0.108,2.354,0.195,3.548,0.195   s2.376-0.087,3.548-0.195l69.251,133.294c3.515,6.781,10.415,10.676,17.565,10.676c3.07,0,6.184-0.727,9.091-2.234   c9.7-5.045,13.476-16.979,8.441-26.668l-63.241-121.74c-6.487-13.29-3.981-26.722-3.938-32.374V431.206l87.217-61.689   c3.201-2.256,5.664-5.424,7.053-9.081l40.598-106.117C575.367,244.12,570.256,232.685,560.058,228.779z M568.086,118.702V10.036   c0-5.544-4.48-10.036-10.024-10.036s-10.036,4.492-10.036,10.036v108.667c-22.403,4.644-39.285,24.52-39.285,48.279   c0,27.188,22.122,49.321,49.321,49.321c27.188,0,49.32-22.133,49.32-49.321C607.382,143.222,590.491,123.346,568.086,118.702z    M558.062,196.242c-16.133,0-29.261-13.127-29.261-29.261c0-16.122,13.128-29.25,29.261-29.25s29.25,13.127,29.25,29.25   C587.312,183.115,574.195,196.242,558.062,196.242z M235.403,118.702V10.036C235.403,4.492,230.912,0,225.368,0   s-10.036,4.492-10.036,10.036v108.667c-22.393,4.644-39.286,24.52-39.286,48.279c0,27.188,22.133,49.321,49.321,49.321   c27.199,0,49.321-22.133,49.321-49.321C274.688,143.222,257.807,123.346,235.403,118.702z M225.368,196.242   c-16.133,0-29.261-13.127-29.261-29.261c0-16.122,13.128-29.25,29.261-29.25s29.261,13.127,29.261,29.25   C254.628,183.115,241.5,196.242,225.368,196.242z" fill="#9a9da2"/>
</g>
<g>
</g>
<g>
</g>
<g>
</g>
<g>
</g>
<g>
</g>
<g>
</g>
<g>
</g>
<g>
</g>
<g>
</g>
<g>
</g>
<g>
</g>
<g>
</g>
<g>
</g>
<g>
</g>
<g>
</g>
</svg>
