<?xml version="1.0" encoding="iso-8859-1"?>
<!-- Generator: Adobe Illustrator 19.0.0, SVG Export Plug-In . SVG Version: 6.00 Build 0)  -->
<svg xmlns="http://www.w3.org/2000/svg" xmlns:xlink="http://www.w3.org/1999/xlink" version="1.1" id="Layer_1" x="0px" y="0px" viewBox="0 0 463 463" style="enable-background:new 0 0 463 463;" xml:space="preserve" width="512px" height="512px">
<g transform="translate(0 -540.36)">
	<g>
		<g>
			<path d="M62.4,677.46v6.6c0,10.5,5.2,19.6,14.3,25c4.5,2.7,9.5,4.1,14.5,4.1s9.9-1.4,14.5-4.1c0.2-0.1,0.4-0.3,0.6-0.4     c7.7-5.8,12.3-15,12.3-24.6v-6.6l28.7-77c0.9-2.6,0.3-5.6-1.6-7.7l-15.9-17.2c-1.4-1.5-3.3-2.4-5.4-2.4c-2,0-4,0.8-5.5,2.2     l-11.7,11.7l-10.6-11.5c-1.4-1.5-3.3-2.4-5.4-2.4s-4,0.8-5.5,2.2l-11.6,11.7l-10.7-11.5c-1.4-1.5-3.3-2.4-5.4-2.4     c-2.1,0-4,0.8-5.5,2.2l-17.1,17.2c-2.1,2.1-2.7,5.2-1.7,7.9L62.4,677.46z M103.5,684.16c0,4.7-2,9.6-6.2,12.4     c-3.8,2.3-8.7,2.4-13,0c-4.6-2.6-7-7.3-7-12.4v-0.5h26.2V684.16z M57.7,591.46l10.6,11.5c1.4,1.5,3.3,2.4,5.4,2.4     c2,0,4-0.8,5.5-2.2l11.7-11.7l10.6,11.5c1.4,1.5,3.3,2.4,5.4,2.4c2.1,0,4-0.8,5.5-2.2l11.7-11.7l7.5,8.1l-25.8,69.1v0H75.1     l-25.7-68.9L57.7,591.46z" fill="#FFFFFF"/>
			<path d="M436,567.36L436,567.36c-17.2-17.7-42.7-27-73.8-27c-47.7,0-103,22.5-134.5,54.8c-24.6,24-40.7,58.8-44.1,95.7     c-3.3,35.6,6.1,68.8,25.8,92.5l-113,113l-5.3-5.3c-2.9-2.9-7.6-2.9-10.6,0l-78.3,76.9c-1.4,1.4-2.2,3.3-2.2,5.3s0.8,3.9,2.2,5.3     l22.6,22.6c1.4,1.4,3.3,2.2,5.3,2.2s3.9-0.8,5.3-2.2l76.9-78.3c2.9-2.9,2.9-7.6,0-10.6l-5.3-5.3l113.1-113.1     c20.5,17.1,48.3,26.5,78.5,26.5c4.6,0,9.2-0.2,13.9-0.6c36.8-3.4,71.7-19.5,95.7-44.1c32.3-31.4,54.8-86.7,54.8-134.5     C463,610.06,453.7,584.56,436,567.36z M30,985.16L30,985.16l-11.9-11.9l67.6-66.4l10.7,10.7L30,985.16z M397.6,764.96     L397.6,764.96l-0.1,0.1c-41.8,43-126.1,58.1-172.4,13.2c-20-20.6-29.7-52-26.5-86c3.1-33.3,17.6-64.8,39.7-86.4l0.1-0.1     c28.8-29.7,79.8-50.4,123.8-50.4c18.8,0,45,3.9,63.1,22.5c0,0.1,0.1,0.1,0.1,0.1c18.6,18.1,22.5,44.3,22.5,63.1     C448,685.16,427.3,736.06,397.6,764.96z" fill="#FFFFFF"/>
			<path d="M243.7,632.56c-3.6-2.1-8.2-1-10.3,2.6c-9.7,16.1-15.7,34.7-17,52.4c-0.3,4.1,2.8,7.7,6.9,8c0.1,0,0.3,0,0.5,0h0     c3.9,0,7.2-3,7.6-6.9c1.1-15.4,6.4-31.6,14.9-45.8C248.4,639.26,247.3,634.66,243.7,632.56z" fill="#FFFFFF"/>
			<circle cx="223" cy="713.258" r="7.5" fill="#FFFFFF"/>
		</g>
	</g>
</g>
<g>
</g>
<g>
</g>
<g>
</g>
<g>
</g>
<g>
</g>
<g>
</g>
<g>
</g>
<g>
</g>
<g>
</g>
<g>
</g>
<g>
</g>
<g>
</g>
<g>
</g>
<g>
</g>
<g>
</g>
</svg>
