<?xml version="1.0" encoding="iso-8859-1"?>
<!-- Generator: Adobe Illustrator 19.0.0, SVG Export Plug-In . SVG Version: 6.00 Build 0)  -->
<svg xmlns="http://www.w3.org/2000/svg" xmlns:xlink="http://www.w3.org/1999/xlink" version="1.1" id="Capa_1" x="0px" y="0px" viewBox="0 0 512 512" style="enable-background:new 0 0 512 512;" xml:space="preserve" width="512px" height="512px">
<g>
	<g>
		<path d="M494.335,162.471c-1.539-3.924-6.045-5.777-9.921-4.121l-0.002,0.001c-3.745,1.6-5.505,5.885-4.019,9.677    c16.417,41.89,20.765,87.321,12.555,131.867c-1.932,10.487-4.54,20.768-7.796,30.795c-68.145-64.767-151.51-111.2-242.234-134.933    c8.52-12.802,18.404-24.741,29.521-35.559c44.281-43.092,104.894-65.272,166.522-61.014    c10.224,11.905,19.235,24.729,26.922,38.326c2.004,3.545,6.438,4.887,10.043,2.993c3.734-1.962,5.141-6.63,3.066-10.302    c-11.377-20.142-25.482-38.685-42.003-55.207C388.64,26.644,324.358,0.018,255.982,0.018c-68.375,0-132.659,26.627-181.007,74.975    C26.627,123.342,0,187.625,0,256s26.627,132.659,74.975,181.006c48.079,48.079,111.915,74.678,179.863,74.973    c65.428,0.284,128.743-24.563,176.398-69.394c40.065-37.69,66.579-86.293,76.47-139.972    C516.432,255.275,511.8,206.991,494.335,162.471z M424.38,83.658c-60.415-0.104-118.814,23.361-162.408,65.784    c-13.18,12.826-24.752,27.122-34.495,42.533c-23.437-5.413-47.28-9.355-71.102-11.705c18.083-37.385,42.469-71.163,72.626-100.511    c24.037-23.392,51.024-43.184,80.224-58.865C352.373,30.578,392.045,52.044,424.38,83.658z M255.982,15.028    c10.11-0.001,20.124,0.619,30.001,1.838c-24.274,14.661-46.899,32.139-67.45,52.138c-32.809,31.928-59.062,68.901-78.131,109.935    c-15.525-1.076-31.149-1.518-46.627-1.312c3.439-32.457,2.614-65.209-2.457-97.546C136.122,38.077,194.277,15.028,255.982,15.028z     M78.057,93.493c3.518,28.093,3.723,56.442,0.585,84.55c-17.455,0.713-34.975,2.252-52.299,4.588    C36.791,149.803,54.281,119.47,78.057,93.493z M15.009,256c0-19.663,2.351-38.961,6.897-57.586    c18.088-2.66,36.434-4.437,54.722-5.272c-7.43,48.029-24.741,94.438-50.514,135.504C18.812,305.447,15.009,281.017,15.009,256z     M255.981,496.973c-38.602,0-75.814-9.025-109.24-26.06c-22.802-56.346-30.868-117.81-23.434-178.343    c0.497-4.049-2.335-7.75-6.374-8.329h-0.003c-4.159-0.597-8.009,2.337-8.521,6.509c-6.986,56.897-0.823,114.587,17.898,168.443    c-14.551-9.327-28.205-20.284-40.719-32.798c-23.249-23.249-41.146-50.417-53.109-80.006    c30.888-45.908,51.34-98.846,59.402-153.722c13.953-0.24,28.043,0.066,42.074,0.9c-8.257,19.96-14.785,40.68-19.471,61.813    c-0.911,4.105,1.737,8.16,5.86,8.985h0.001c4.007,0.802,7.908-1.752,8.792-5.742c4.854-21.893,11.769-43.324,20.606-63.873    c23.341,2.075,46.741,5.682,69.766,10.791c-48.01,88.789-33.031,199.424,37.986,272.401c6.224,6.395,12.838,12.443,19.762,18.094    C270.223,496.646,263.128,496.973,255.981,496.973z M426.376,426.394c-35.353,35.353-79.758,58.36-127.986,66.874    c-10.772-7.649-20.909-16.315-30.135-25.794c-67.376-69.236-80.831-174.7-33.583-258.328    c92.11,23.258,176.6,70.515,244.864,136.985C467.521,375.983,449.56,403.21,426.376,426.394z" fill="#FFFFFF"/>
	</g>
</g>
<g>
	<g>
		<path d="M434.831,189.48c-3.01-1.273-6.647-0.336-8.692,2.201c-1.95,2.419-2.21,5.832-0.644,8.52    c1.582,2.716,4.846,4.204,7.936,3.567c3.01-0.62,5.394-3.039,5.925-6.075C439.954,194.279,438.03,190.801,434.831,189.48z" fill="#FFFFFF"/>
	</g>
</g>
<g>
	<g>
		<path d="M465.414,177.545c-1.665-2.8-5.101-4.222-8.258-3.422c-2.984,0.756-5.235,3.31-5.624,6.363    c-0.416,3.26,1.498,6.637,4.582,7.843c2.869,1.212,6.343,0.432,8.424-1.885C466.727,184.007,467.088,180.36,465.414,177.545z" fill="#FFFFFF"/>
	</g>
</g>
<g>
	<g>
		<path d="M469.099,212.408c-1.01-3.039-3.909-5.151-7.12-5.15c-3.075,0-5.888,1.946-6.992,4.806    c-1.246,3.228-0.076,7.021,2.829,8.934c2.795,1.842,6.522,1.624,9.067-0.559C469.156,218.489,470.042,215.247,469.099,212.408z" fill="#FFFFFF"/>
	</g>
</g>
<g>
	<g>
		<path d="M337.344,460.189c-2.492-6.02-11.394-6.068-13.868,0c-1.181,2.896-0.432,6.324,1.895,8.426    c2.478,2.237,6.227,2.557,9.048,0.777C337.488,467.457,338.68,463.539,337.344,460.189z" fill="#FFFFFF"/>
	</g>
</g>
<g>
	<g>
		<path d="M300.378,430.93c-5.18-4.589-13.542,0.025-12.388,6.846c0.602,3.568,3.772,6.265,7.399,6.265    C302.132,444.04,305.44,435.413,300.378,430.93z" fill="#FFFFFF"/>
	</g>
</g>
<g>
	<g>
		<path d="M332.612,431.667c-4.463-5.25-13.358-1.853-13.205,5.025c0.077,3.501,2.619,6.481,6.03,7.208    C332.298,445.298,337.105,436.954,332.612,431.667z" fill="#FFFFFF"/>
	</g>
</g>
<g>
	<g>
		<path d="M368.442,442.679c-2.443-5.917-11.056-6.095-13.739-0.272c-1.388,3.012-0.587,6.729,1.961,8.867    c2.374,1.991,5.804,2.322,8.514,0.816C368.442,450.274,369.899,446.133,368.442,442.679z" fill="#FFFFFF"/>
	</g>
</g>
<g>
	<g>
		<path d="M57.688,354.127c-2.541-6.023-11.314-6.07-13.858,0c-2.683,6.401,4.445,12.734,10.497,9.469    C57.646,361.805,59.161,357.617,57.688,354.127z" fill="#FFFFFF"/>
	</g>
</g>
<g>
	<g>
		<path d="M308.326,465.183c-2.476-5.853-10.964-6.106-13.712-0.334c-1.301,2.731-0.785,6.071,1.259,8.293    c2.286,2.485,6.081,3.121,9.055,1.531C308.331,472.855,309.715,468.737,308.326,465.183z" fill="#FFFFFF"/>
	</g>
</g>
<g>
	<g>
		<path d="M77.2,378.141c-2.572-6.096-11.509-6.045-13.925,0.171c-1.173,3.016-0.212,6.596,2.348,8.591    c2.429,1.892,5.834,2.13,8.483,0.554C77.288,385.563,78.567,381.559,77.2,378.141z" fill="#FFFFFF"/>
	</g>
</g>
<g>
</g>
<g>
</g>
<g>
</g>
<g>
</g>
<g>
</g>
<g>
</g>
<g>
</g>
<g>
</g>
<g>
</g>
<g>
</g>
<g>
</g>
<g>
</g>
<g>
</g>
<g>
</g>
<g>
</g>
</svg>
