<?xml version="1.0" encoding="iso-8859-1"?>
<!-- Generator: Adobe Illustrator 19.0.0, SVG Export Plug-In . SVG Version: 6.00 Build 0)  -->
<svg xmlns="http://www.w3.org/2000/svg" xmlns:xlink="http://www.w3.org/1999/xlink" version="1.1" id="Layer_1" x="0px" y="0px" viewBox="0 0 512 512" style="enable-background:new 0 0 512 512;" xml:space="preserve" width="512px" height="512px">
<g>
	<g>
		<path d="M417.997,215.998c-13.906,0-27.115,3.039-39.002,8.482l-52.999-95.001v-6.272h65.002c10.694,0,19.395,8.701,19.395,19.395    s-8.701,19.395-19.395,19.395h-16.201v15.208h16.201c19.08,0,34.603-15.523,34.603-34.603c0-19.08-15.523-34.603-34.603-34.603    h-80.21v25.435l21.96,39.364H198.718l-7.007-17.192h16.681c12.579,0,22.812-10.233,22.812-22.812v-1.984    c0-12.579-10.233-22.812-22.812-22.812H152.41c-12.579,0-22.812,10.233-22.812,22.812v1.984c0,12.579,10.233,22.812,22.812,22.812    h22.879l8.803,21.6l-39.975,53.3c-14.515-9.184-31.704-14.508-50.115-14.508C42.17,215.998,0,258.166,0,310    s42.17,94.002,94.002,94.002c49.274,0,89.81-38.108,93.694-86.398h19.407c5.607,18.717,22.979,32.4,43.497,32.4    c25.035,0,45.403-20.367,45.403-45.404c0-10.071-3.3-19.383-8.869-26.921l65.009-70.118l13.583,24.348    c-25.148,16.888-41.731,45.588-41.731,78.091c0,51.834,42.17,94.002,94.002,94.002C469.831,404.002,512,361.832,512,310    S469.831,215.998,417.997,215.998z M152.41,140.398c-4.193,0-7.604-3.411-7.604-7.604v-1.984c0-4.193,3.411-7.604,7.604-7.604    h55.982c4.193,0,7.604,3.411,7.604,7.604v1.984c0,4.193-3.411,7.604-7.604,7.604H152.41z M94.002,388.794    c-43.447,0-78.794-35.346-78.794-78.794s35.347-78.794,78.794-78.794c14.991,0,29.017,4.212,40.96,11.508l-56.168,74.89h93.628    C168.584,357.496,134.884,388.794,94.002,388.794z M109.211,302.396l37.906-50.542c14.011,12.809,23.387,30.601,25.306,50.542    H109.211z M218.897,272.141c-0.262,0.255-0.52,0.515-0.776,0.777c-0.244,0.25-0.486,0.503-0.724,0.759    c-0.25,0.269-0.497,0.539-0.74,0.813c-0.231,0.261-0.459,0.524-0.684,0.79c-0.238,0.281-0.474,0.564-0.705,0.85    c-0.219,0.271-0.433,0.544-0.645,0.82c-0.225,0.292-0.448,0.586-0.667,0.884c-0.205,0.28-0.406,0.564-0.604,0.849    c-0.212,0.304-0.423,0.608-0.627,0.918c-0.192,0.29-0.378,0.584-0.564,0.879c-0.198,0.313-0.394,0.628-0.584,0.946    c-0.179,0.3-0.352,0.605-0.524,0.91c-0.182,0.322-0.364,0.644-0.537,0.97c-0.166,0.311-0.324,0.627-0.484,0.942    c-0.166,0.329-0.333,0.659-0.491,0.994c-0.152,0.32-0.295,0.646-0.44,0.971c-0.15,0.338-0.301,0.673-0.443,1.015    c-0.138,0.331-0.266,0.666-0.395,1.002c-0.134,0.344-0.269,0.686-0.394,1.034c-0.123,0.341-0.235,0.686-0.35,1.031    c-0.117,0.349-0.235,0.697-0.343,1.049c-0.107,0.353-0.204,0.71-0.303,1.066c-0.098,0.352-0.201,0.703-0.29,1.057    c-0.092,0.366-0.172,0.736-0.255,1.105c-0.08,0.352-0.164,0.703-0.236,1.057c-0.077,0.383-0.14,0.772-0.208,1.159    c-0.061,0.347-0.127,0.691-0.179,1.041c-0.061,0.405-0.105,0.813-0.156,1.221c-0.042,0.339-0.09,0.675-0.125,1.016    c-0.044,0.436-0.069,0.877-0.1,1.316c-0.022,0.317-0.054,0.633-0.069,0.951c-0.001,0.021-0.004,0.042-0.005,0.063h-17.553    c-2.003-24.902-13.754-47.093-31.424-62.75l34.513-46.017l30.953,75.946c-0.162,0.134-0.316,0.277-0.477,0.413    c-0.268,0.227-0.533,0.456-0.796,0.69c-0.273,0.242-0.541,0.489-0.809,0.738C219.401,271.656,219.147,271.896,218.897,272.141z     M250.6,334.796c-15.052,0-27.564-11.07-29.828-25.497l-0.051-0.354c-0.002-0.013-0.003-0.027-0.005-0.042    c-0.094-0.659-0.161-1.318-0.213-1.973c-0.008-0.112-0.018-0.223-0.025-0.335c-0.046-0.671-0.073-1.339-0.073-1.996    c0-16.65,13.545-30.196,30.196-30.196c0.509,0,1.015,0.013,1.518,0.039c0.144,0.007,0.286,0.022,0.429,0.031    c0.361,0.023,0.722,0.047,1.08,0.082c0.148,0.015,0.295,0.036,0.442,0.054c0.354,0.041,0.708,0.082,1.057,0.135    c0.129,0.019,0.255,0.045,0.383,0.065c0.37,0.061,0.74,0.124,1.105,0.198c0.099,0.02,0.197,0.044,0.295,0.065    c0.395,0.084,0.79,0.173,1.18,0.273c0.064,0.016,0.128,0.036,0.192,0.052c0.424,0.112,0.845,0.229,1.26,0.359    c0.033,0.01,0.066,0.022,0.099,0.032c0.446,0.14,0.889,0.289,1.326,0.449c0.004,0.002,0.009,0.003,0.013,0.005    c2.76,1.014,5.332,2.42,7.649,4.15c0.026,0.019,0.052,0.04,0.077,0.059c0.353,0.266,0.7,0.537,1.04,0.818    c0.052,0.043,0.102,0.086,0.153,0.129c0.314,0.262,0.625,0.529,0.928,0.804c0.069,0.063,0.137,0.127,0.205,0.19    c5.997,5.523,9.762,13.432,9.762,22.208C280.795,321.25,267.25,334.796,250.6,334.796z M276.202,267.101    c-4.946-3.39-10.487-5.74-16.341-6.953c-0.07-0.014-0.141-0.029-0.211-0.045c-1.399-0.283-2.815-0.502-4.246-0.652    c-0.162-0.017-0.325-0.03-0.488-0.046c-0.542-0.051-1.086-0.092-1.632-0.125c-0.193-0.011-0.385-0.023-0.579-0.032    c-0.7-0.031-1.401-0.054-2.105-0.054c-0.772,0-1.538,0.02-2.299,0.059c-0.251,0.012-0.5,0.039-0.75,0.056    c-0.508,0.033-1.016,0.065-1.519,0.116c-0.303,0.03-0.601,0.075-0.902,0.112c-0.446,0.054-0.893,0.103-1.335,0.17    c-0.321,0.049-0.637,0.111-0.956,0.166c-0.416,0.072-0.833,0.14-1.245,0.223c-0.332,0.067-0.657,0.147-0.985,0.221    c-0.393,0.089-0.788,0.173-1.177,0.273c-0.335,0.085-0.664,0.182-0.996,0.275c-0.377,0.105-0.755,0.207-1.128,0.321    c-0.334,0.102-0.662,0.216-0.993,0.326c-0.363,0.121-0.728,0.239-1.087,0.369c-0.058,0.021-0.118,0.039-0.175,0.06l-30.133-73.935    h136.317l3.119,5.59L276.202,267.101z M417.997,388.794c-43.448,0-78.794-35.347-78.794-78.794    c0-26.801,13.461-50.507,33.966-64.747l38.187,68.452l13.282-7.409l-38.199-68.473c9.669-4.244,20.34-6.617,31.559-6.617    c43.448,0,78.795,35.347,78.795,78.794C496.792,353.446,461.445,388.794,417.997,388.794z" fill="#FFFFFF"/>
	</g>
</g>
<g>
	<g>
		<rect x="243.043" y="295.916" width="16.199" height="15.208" fill="#FFFFFF"/>
	</g>
</g>
<g>
</g>
<g>
</g>
<g>
</g>
<g>
</g>
<g>
</g>
<g>
</g>
<g>
</g>
<g>
</g>
<g>
</g>
<g>
</g>
<g>
</g>
<g>
</g>
<g>
</g>
<g>
</g>
<g>
</g>
</svg>
