<?xml version="1.0" encoding="iso-8859-1"?>
<!-- Generator: Adobe Illustrator 19.0.0, SVG Export Plug-In . SVG Version: 6.00 Build 0)  -->
<svg xmlns="http://www.w3.org/2000/svg" xmlns:xlink="http://www.w3.org/1999/xlink" version="1.1" id="Capa_1" x="0px" y="0px" viewBox="0 0 512 512" style="enable-background:new 0 0 512 512;" xml:space="preserve" width="512px" height="512px">
<g>
	<g>
		<path d="M400.116,161.782H39.981c-10.271,0-18.596,8.325-18.596,18.596v60.126c0,109.373,89.259,198.354,198.973,198.354    c109.373,0,198.347-88.986,198.354-198.354v-60.126C418.712,170.107,410.387,161.782,400.116,161.782z M381.521,240.504    c0,88.869-72.3,161.162-161.162,161.162c-89.209,0-161.782-72.294-161.782-161.162v-41.53h322.944V240.504z" fill="#9a9da2"/>
	</g>
</g>
<g>
	<g>
		<path d="M382.76,474.809H59.196c-10.271,0-18.596,8.325-18.596,18.596S48.925,512,59.196,512H382.76    c10.271,0,18.596-8.325,18.596-18.596S393.031,474.809,382.76,474.809z" fill="#9a9da2"/>
	</g>
</g>
<g>
	<g>
		<path d="M137.918,46.489c-10.271,0-18.596,8.325-18.596,18.596v50.828c0,10.271,8.325,18.596,18.596,18.596    c10.265,0,18.596-8.325,18.596-18.596V65.085C156.513,54.814,148.189,46.489,137.918,46.489z" fill="#9a9da2"/>
	</g>
</g>
<g>
	<g>
		<path d="M220.978,0c-10.271,0-18.596,8.325-18.596,18.596v95.458c0,10.271,8.325,18.596,18.596,18.596s18.596-8.325,18.596-18.596    V18.596C239.574,8.325,231.249,0,220.978,0z" fill="#9a9da2"/>
	</g>
</g>
<g>
	<g>
		<path d="M304.033,46.489c-10.271,0-18.596,8.325-18.596,18.596v48.969c0,10.271,8.325,18.596,18.596,18.596    c10.277,0,18.596-8.325,18.596-18.596V65.085C322.628,54.814,314.304,46.489,304.033,46.489z" fill="#9a9da2"/>
	</g>
</g>
<g>
	<g>
		<path d="M424.904,211.984H400.11v37.191h24.794c15.732,0,28.52,12.794,28.52,28.513c0,15.732-12.794,28.52-28.52,28.52h-47.109    V343.4h47.109c36.23,0,65.711-29.48,65.711-65.711C490.615,241.458,461.135,211.984,424.904,211.984z" fill="#9a9da2"/>
	</g>
</g>
<g>
</g>
<g>
</g>
<g>
</g>
<g>
</g>
<g>
</g>
<g>
</g>
<g>
</g>
<g>
</g>
<g>
</g>
<g>
</g>
<g>
</g>
<g>
</g>
<g>
</g>
<g>
</g>
<g>
</g>
</svg>
