<?xml version="1.0" encoding="iso-8859-1"?>
<!-- Generator: Adobe Illustrator 18.1.1, SVG Export Plug-In . SVG Version: 6.00 Build 0)  -->
<svg xmlns="http://www.w3.org/2000/svg" xmlns:xlink="http://www.w3.org/1999/xlink" version="1.1" id="Capa_1" x="0px" y="0px" viewBox="0 0 58.216 58.216" style="enable-background:new 0 0 58.216 58.216;" xml:space="preserve" width="512px" height="512px">
<g>
	<g>
		<path d="M10.708,27.882C4.804,27.882,0,32.684,0,38.587c0,5.904,4.803,10.709,10.708,10.709    c5.902,0,10.706-4.805,10.706-10.709C21.414,32.684,16.61,27.882,10.708,27.882z M10.708,46.92c-4.595,0-8.333-3.737-8.333-8.332    c0-4.597,3.738-8.332,8.333-8.332s8.331,3.735,8.331,8.332C19.039,43.183,15.303,46.92,10.708,46.92z" fill="#9a9da2"/>
		<path d="M47.509,27.882c-5.902,0-10.705,4.802-10.705,10.705c0,5.904,4.803,10.709,10.705,10.709    c5.904,0,10.707-4.805,10.707-10.709C58.216,32.684,53.414,27.882,47.509,27.882z M47.509,46.92c-4.594,0-8.332-3.737-8.332-8.332    c0-4.597,3.738-8.332,8.332-8.332c4.596,0,8.332,3.735,8.332,8.332C55.841,43.183,52.105,46.92,47.509,46.92z" fill="#9a9da2"/>
		<path d="M36.529,23.517c0.95,0.208,1.795,0.098,2.506-0.223c1.102,1.335,2.206,2.667,3.332,3.982    c0.842,0.985,2.496,0.861,3.357,0c0.968-0.969,0.84-2.376,0-3.359c-1.451-1.697-2.872-3.42-4.288-5.147    c-0.19-1.325-1.063-2.503-2.804-2.886c-4.901-1.079-9.806-2.158-14.708-3.237c-2.575-0.566-4.379,1.206-4.834,3.199    c-0.379,0.584-0.541,1.311-0.394,2.048l4.622,23.12c0.263,1.314,1.419,2.228,2.713,2.228c0.179,0,0.363-0.019,0.546-0.056    c1.501-0.301,2.473-1.76,2.173-3.26l-0.536-2.68c0.313,0.119,0.646,0.188,0.986,0.188c0.331,0,0.667-0.06,0.994-0.187    c5.675-2.184,6.517-5.865,6.511-7.865c-0.006-2.179-0.994-4.38-2.558-6.395C34.943,23.167,35.736,23.342,36.529,23.517z     M28.207,32.081c-0.349,0.133-0.653,0.334-0.909,0.574l-2.032-10.163c3.262,2.015,5.895,4.943,5.899,6.908    C31.168,30.422,30.173,31.323,28.207,32.081z" fill="#9a9da2"/>
		<path d="M39.268,10.907c3.78,2.007,2.665,2.818,4.032,3.356l-0.522,2.911l0.976,0.176l0.508-2.829    c0.054,0.009,0.094,0.02,0.147,0.029c0.365-0.271,0.703-0.479,1.032-0.662c0.05,0.886,1.314,1.245,1.314,1.245l1.312,1.127    c0.703,0.168,1.408-0.266,1.577-0.969c0.165-0.704-0.27-1.409-0.973-1.577l-1.81-0.43c2.332-0.646,3.429,0.756,3.629-0.362    c0.261-1.456-2.038-3.087-5.139-3.644C42.254,8.723,34.757,8.518,39.268,10.907z" fill="#9a9da2"/>
	</g>
</g>
<g>
</g>
<g>
</g>
<g>
</g>
<g>
</g>
<g>
</g>
<g>
</g>
<g>
</g>
<g>
</g>
<g>
</g>
<g>
</g>
<g>
</g>
<g>
</g>
<g>
</g>
<g>
</g>
<g>
</g>
</svg>
