<?xml version="1.0" encoding="iso-8859-1"?>
<!-- Generator: Adobe Illustrator 16.0.0, SVG Export Plug-In . SVG Version: 6.00 Build 0)  -->
<!DOCTYPE svg PUBLIC "-//W3C//DTD SVG 1.1//EN" "http://www.w3.org/Graphics/SVG/1.1/DTD/svg11.dtd">
<svg xmlns="http://www.w3.org/2000/svg" xmlns:xlink="http://www.w3.org/1999/xlink" version="1.1" id="Capa_1" x="0px" y="0px" width="512px" height="512px" viewBox="0 0 372.135 372.136" style="enable-background:new 0 0 372.135 372.136;" xml:space="preserve">
<g>
	<g id="Artwork_8_">
		<g id="Layer_5_8_">
			<path d="M370.987,109.104c-0.251-9.478-7.872-17.098-17.349-17.348l-43.358-1.147c-6.342-0.2-11.633,4.844-11.8,11.192     c-0.168,6.349,4.843,11.632,11.191,11.8l20.785,0.549c0,0,1.728,0.145-0.731,2.604c-8.047,8.047-32.188,32.188-32.188,32.188     c-2.076,2.424-3.61,1.51-4.192,1.051c-12.733-10.025-26.061-16.699-41.839-20.3c-1.877-0.493-1.662-2.196-1.726-3.106     c-1.837-26.788-13.145-51.723-32.313-70.892C196.454,34.683,168.516,23.11,138.8,23.11S81.147,34.683,60.134,55.695     C20.33,95.501,17.06,158.208,50.31,201.786c0.386,0.506,1.277,1.455-0.561,3.242c0,0-7.328,7.328-9.771,9.771     c-1.542,1.541-3.121,0.17-3.121,0.17l-14.664-14.663c-5.077-5.078-13.308-5.076-18.385,0c-5.077,5.077-5.077,13.308,0,18.385     c0,0,10.935,10.937,14.58,14.581c1.5,1.5-0.14,3.256-0.14,3.256L5.582,249.193c-5.077,5.077-5.077,13.308,0,18.386     c2.538,2.539,5.865,3.807,9.192,3.807s6.654-1.27,9.192-3.807l12.916-12.916c0,0,1.297-1.6,2.922,0.025     c3.666,3.666,14.665,14.665,14.665,14.665c2.539,2.539,5.865,3.808,9.192,3.808c3.327,0,6.654-1.27,9.192-3.808     c5.077-5.077,5.077-13.308,0-18.386l-14.707-14.705c0,0-1.359-1.506-0.119-2.746c2.588-2.588,10.354-10.354,10.354-10.354     c1.766-1.797,2.598-0.596,3.163-0.164c11.967,9.119,25.535,15.641,40.004,19.267c0.759,0.19,2.495,0.686,2.433,3.178     c1.232,27.823,12.501,51.177,32.321,70.997c21.013,21.013,48.951,32.585,78.667,32.585s57.652-11.572,78.666-32.585     c21.012-21.014,32.585-48.95,32.585-78.666c0-25.249-8.358-49.212-23.761-68.735c-0.365-0.463-1.083-1.672,0.715-3.207     c0,0,25.548-25.547,34.063-34.063c1.313-1.313,1.332-0.275,1.332-0.275l0.571,21.578c0.165,6.246,5.279,11.196,11.489,11.196     c0.104,0,0.207-0.001,0.311-0.004c6.349-0.168,11.36-5.451,11.191-11.8L370.987,109.104z M114.092,219.097     c-14.539-4.006-26.741-11.379-37.694-22.334c-34.409-34.408-34.409-90.395,0-124.804c16.669-16.669,38.83-25.849,62.402-25.849     c23.573,0,45.734,9.18,62.402,25.849c14.812,14.811,23.503,32.05,25.303,52.671c0.124,1.652-0.959,1.893-1.534,1.893     c-29.716,0-57.653,11.572-78.667,32.585c-16.349,16.349-26.976,36.892-30.891,59.2     C115.349,218.677,114.962,219.304,114.092,219.097z M225.255,152.075c-3.069,17.795-11.021,31.657-24.053,44.688     c-16.668,16.67-38.83,25.85-62.402,25.85c-0.254,0-0.713,0.129-0.472-1.605c3.069-17.795,11.208-32.604,24.24-45.636     c16.669-16.669,38.83-25.849,62.402-25.849C225.225,149.522,225.671,149.825,225.255,152.075z M313.221,237.773     c0,23.571-9.181,45.733-25.849,62.401c-16.668,16.67-38.83,25.85-62.401,25.85c-23.572,0-45.734-9.18-62.402-25.85     c-14.811-14.81-23.464-31.697-25.263-52.319c0.032-1.614,0.92-2.243,1.495-2.243c0.304,0,0.607-0.001,0.911-0.004     c29.376-0.234,56.958-11.783,77.755-32.581c16.62-16.62,27.127-36.407,30.881-59.145c0.197-0.933,0.815-0.994,1.124-0.905     c14.18,4.073,27.182,11.672,37.901,22.394C304.042,192.04,313.221,214.202,313.221,237.773z" fill="#9a9da2"/>
		</g>
	</g>
</g>
<g>
</g>
<g>
</g>
<g>
</g>
<g>
</g>
<g>
</g>
<g>
</g>
<g>
</g>
<g>
</g>
<g>
</g>
<g>
</g>
<g>
</g>
<g>
</g>
<g>
</g>
<g>
</g>
<g>
</g>
</svg>
