<?xml version="1.0" encoding="iso-8859-1"?>
<!-- Generator: Adobe Illustrator 18.0.0, SVG Export Plug-In . SVG Version: 6.00 Build 0)  -->
<!DOCTYPE svg PUBLIC "-//W3C//DTD SVG 1.1//EN" "http://www.w3.org/Graphics/SVG/1.1/DTD/svg11.dtd">
<svg xmlns="http://www.w3.org/2000/svg" xmlns:xlink="http://www.w3.org/1999/xlink" version="1.1" id="Capa_1" x="0px" y="0px" viewBox="0 0 432.479 432.479" style="enable-background:new 0 0 432.479 432.479;" xml:space="preserve" width="512px" height="512px">
<path d="M423.979,351.412h-74.324c4.509-100.656,70.27-185.873,70.949-186.741c2.542-3.243,2.392-7.841-0.355-10.911  c-2.747-3.07-7.3-3.729-10.805-1.563c-54.064,33.423-85.2,87.677-101.799,127.305c-3.023,7.217-5.683,14.197-8.018,20.826  c1.685-37.42,8.965-87.176,32.1-131.208c1.804-3.433,1.056-7.651-1.819-10.254c-2.875-2.603-7.145-2.93-10.383-0.797  c-16.894,11.135-31.312,25.869-43.16,44.037c4.018-53.933,28.157-125.942,28.453-126.818c1.222-3.615-0.115-7.602-3.27-9.749  c-3.155-2.147-7.354-1.928-10.269,0.535c-21.835,18.454-39.629,48.013-52.887,87.854c-6.557,19.704-11.163,39.404-14.383,56.648  c-14.295-28.313-33.35-50.418-56.917-65.951c-3.238-2.134-7.51-1.806-10.383,0.797c-2.875,2.603-3.623,6.821-1.819,10.254  c25.555,48.637,33.034,103.897,34.514,144.393c-2.786-8.146-6.041-16.847-9.83-25.891c-17.712-42.284-50.93-100.171-108.594-135.82  c-3.504-2.167-8.057-1.507-10.805,1.563c-2.747,3.07-2.896,7.668-0.355,10.911c0.643,0.821,55.459,71.7,71.736,162.456  c-4.219-8.354-9.097-17.447-14.612-26.845c-29.218-49.792-60.771-82.295-93.783-96.605c-3.503-1.519-7.586-0.515-9.987,2.45  c-2.401,2.966-2.531,7.169-0.318,10.278c20.463,28.743,70.852,108.122,72.791,148.847H8.5c-4.694,0-8.5,3.806-8.5,8.5  s3.806,8.5,8.5,8.5h415.479c4.694,0,8.5-3.806,8.5-8.5S428.673,351.412,423.979,351.412z M323.5,285.655  c10.902-25.935,28.377-58.502,54.944-86.344c-2.677,4.885-5.419,10.112-8.169,15.648c-16.132,32.484-35.336,81.939-37.632,136.452  h-29.747C305.562,338.621,311.67,313.797,323.5,285.655z M301.281,196.979c-12.371,35.602-16.936,71.122-18.431,97.433  c-1.447,25.46-0.354,45.913,0.572,57.001h-28.843c0.468-25.288,3.522-59.631,14.213-92.997  C276.655,233.876,287.531,213.331,301.281,196.979z M276.715,109.896c-9.824,36.266-21.384,89.066-16.874,123.658  c-2.632,6.279-5.047,12.837-7.238,19.674c-2.455,7.66-4.524,15.358-6.272,22.989c-2.102-9.98-4.706-20.108-7.931-30.175  c-0.617-1.927-1.258-3.825-1.908-5.711C240.325,211.187,250.856,152.369,276.715,109.896z M185.323,182.971  c15.719,17.912,28.072,40.747,36.888,68.259c11.534,35.997,14.769,73.051,15.234,100.182h-32.07  c0.999-11.674,2.237-33.81,0.663-61.489C204.399,261.107,199.316,221.951,185.323,182.971z M101.786,184.662  c30.201,30.506,49.843,66.897,61.935,95.669c12.882,30.651,19.42,57.61,22.193,71.081h-33.082  C150.49,293.016,129.914,240,112.638,205.214C108.967,197.822,105.311,190.953,101.786,184.662z M66.411,255.753  c-5.733-10.194-11.498-19.803-16.792-28.305c41.287,36.923,70.299,99.04,80.835,123.964H102.64  C101.739,329.073,89.589,296.969,66.411,255.753z" fill="#9a9da2"/>
<g>
</g>
<g>
</g>
<g>
</g>
<g>
</g>
<g>
</g>
<g>
</g>
<g>
</g>
<g>
</g>
<g>
</g>
<g>
</g>
<g>
</g>
<g>
</g>
<g>
</g>
<g>
</g>
<g>
</g>
</svg>
