<?xml version="1.0" encoding="iso-8859-1"?>
<!-- Generator: Adobe Illustrator 19.0.0, SVG Export Plug-In . SVG Version: 6.00 Build 0)  -->
<svg xmlns="http://www.w3.org/2000/svg" xmlns:xlink="http://www.w3.org/1999/xlink" version="1.1" id="Capa_1" x="0px" y="0px" viewBox="0 0 512 512" style="enable-background:new 0 0 512 512;" xml:space="preserve" width="512px" height="512px">
<g>
	<g>
		<path d="M256,0c-29.728,0-58.176,5.344-84.736,14.72c-0.16,0.032-0.288,0.096-0.416,0.16c-48.064,17.024-89.472,47.936-119.52,88    c-0.032,0.064-0.096,0.128-0.16,0.224C19.2,145.824,0,198.656,0,256c0,141.152,114.848,256,256,256s256-114.848,256-256    S397.152,0,256,0z M455.072,153.76c12,23.264,20.064,48.864,23.264,75.968l-32.128-35.072L455.072,153.76z M430.528,115.936    l-15.712,72.416l-50.208,24.576l-92.352-67.296V83.2l65.824-35.392C374.56,62.208,406.336,85.824,430.528,115.936z     M343.904,237.44l-35.2,98.56H203.328l-34.688-98.528l87.648-63.904L343.904,237.44z M256,32c12.832,0,25.312,1.312,37.568,3.392    L256.32,55.424l-37.248-20.128C231.104,33.312,243.392,32,256,32z M174.464,47.584l65.824,35.52v62.528l-92.32,67.296    l-50.464-24.64l-15.68-72.832C106.08,85.44,137.952,61.92,174.464,47.584z M57.216,153.184l8.928,41.44l-32.48,35.296    C36.832,202.528,45.024,176.672,57.216,153.184z M71.328,382.528c-20.896-30.4-34.496-66.144-38.24-104.768l54.176-58.848    l49.408,24.16l37.216,105.696l-31.392,37.696L71.328,382.528z M99.68,416.16l37.888,2.08l11.008,34.24    C130.624,442.624,114.24,430.336,99.68,416.16z M313.056,472.352C294.816,477.184,275.744,480,256,480    c-23.872,0-46.848-3.84-68.448-10.784l-20.128-62.688L199.488,368h113.088l31.52,37.344L313.056,472.352z M355.776,456.256    l18.176-39.264l46.208-9.12C401.856,427.648,380.096,444.096,355.776,456.256z M369.088,385.344l-30.944-36.64l37.696-105.632    l49.184-24.096l53.856,58.784c-3.2,33.312-13.92,64.416-30.176,91.872L369.088,385.344z" fill="#FFFFFF"/>
	</g>
</g>
<g>
</g>
<g>
</g>
<g>
</g>
<g>
</g>
<g>
</g>
<g>
</g>
<g>
</g>
<g>
</g>
<g>
</g>
<g>
</g>
<g>
</g>
<g>
</g>
<g>
</g>
<g>
</g>
<g>
</g>
</svg>
