<?xml version="1.0" encoding="iso-8859-1"?>
<!-- Generator: Adobe Illustrator 19.0.0, SVG Export Plug-In . SVG Version: 6.00 Build 0)  -->
<svg xmlns="http://www.w3.org/2000/svg" xmlns:xlink="http://www.w3.org/1999/xlink" version="1.1" id="Capa_1" x="0px" y="0px" viewBox="0 0 512 512" style="enable-background:new 0 0 512 512;" xml:space="preserve" width="512px" height="512px">
<g>
	<g>
		<path d="M469.333,0H42.667C36.776,0,32,4.776,32,10.667V384c0.002,2.656,0.995,5.216,2.784,7.179l106.667,117.333    c2.02,2.22,4.881,3.486,7.883,3.488h320c5.891,0,10.667-4.776,10.667-10.667V10.667C480,4.776,475.224,0,469.333,0z     M149.333,485.515l-82.581-90.848h82.581V485.515z M170.667,490.667V384c0-5.891-4.776-10.667-10.667-10.667H53.333v-352h405.333    v469.334H170.667z" fill="#9a9da2"/>
	</g>
</g>
<g>
	<g>
		<rect x="416" y="448.01" width="21.333" height="21.312" fill="#9a9da2"/>
	</g>
</g>
<g>
	<g>
		<rect x="416" y="405.34" width="21.333" height="21.312" fill="#9a9da2"/>
	</g>
</g>
<g>
	<g>
		<rect x="373.33" y="448.01" width="21.333" height="21.312" fill="#9a9da2"/>
	</g>
</g>
<g>
	<g>
		<rect x="202.669" y="362.67" width="106.67" height="21.333" fill="#9a9da2"/>
	</g>
</g>
<g>
	<g>
		<path d="M351.631,77.271C288.285,24.457,194.119,32.994,141.305,96.34c-52.814,63.346-44.277,157.512,19.069,210.327    c19.929,16.415,31.52,40.848,31.627,66.667V416c0,5.891,4.776,10.667,10.667,10.667h106.667c5.891,0,10.667-4.776,10.667-10.667    v-42.667c0.138-25.86,11.766-50.319,31.733-66.752c6.879-5.746,13.227-12.099,18.967-18.984    C423.514,224.252,414.977,130.086,351.631,77.271z M338.048,290.208c-24.818,20.487-39.247,50.944-39.381,83.125v32h-85.333v-32    c-0.1-32.146-14.501-62.58-39.296-83.04c-5.905-4.922-11.355-10.367-16.284-16.267c-45.319-54.255-38.074-134.976,16.182-180.295    c54.256-45.319,134.976-38.074,180.295,16.182C399.548,164.169,392.303,244.889,338.048,290.208z" fill="#9a9da2"/>
	</g>
</g>
<g>
	<g>
		<rect x="224" y="320" width="64" height="21.333" fill="#9a9da2"/>
	</g>
</g>
<g>
	<g>
		<path d="M323.125,141.771l-36.48,36.48l-24.725-16.48c-3.584-2.391-8.256-2.391-11.84,0l-24.725,16.48l-36.48-36.48    l-15.083,15.083l42.667,42.667c3.596,3.597,9.23,4.155,13.461,1.333L256,183.467l26.08,17.408c1.753,1.169,3.813,1.792,5.92,1.792    c2.832-0.006,5.545-1.138,7.541-3.147l42.667-42.667L323.125,141.771z" fill="#9a9da2"/>
	</g>
</g>
<g>
	<g>
		<rect x="245.33" y="202.67" width="21.333" height="128" fill="#9a9da2"/>
	</g>
</g>
<g>
	<g>
		<path d="M298.667,416c0,1.301-0.48,32-42.667,32c-40.896,0-42.667-28.811-42.667-32.096L202.667,416H192    c0,18.443,13.376,53.333,64,53.333c50.624,0,64-34.891,64-53.333H298.667z" fill="#9a9da2"/>
	</g>
</g>
<g>
</g>
<g>
</g>
<g>
</g>
<g>
</g>
<g>
</g>
<g>
</g>
<g>
</g>
<g>
</g>
<g>
</g>
<g>
</g>
<g>
</g>
<g>
</g>
<g>
</g>
<g>
</g>
<g>
</g>
</svg>
