<?xml version="1.0" encoding="iso-8859-1"?>
<!-- Generator: Adobe Illustrator 17.1.0, SVG Export Plug-In . SVG Version: 6.00 Build 0)  -->
<!DOCTYPE svg PUBLIC "-//W3C//DTD SVG 1.1//EN" "http://www.w3.org/Graphics/SVG/1.1/DTD/svg11.dtd">
<svg xmlns="http://www.w3.org/2000/svg" xmlns:xlink="http://www.w3.org/1999/xlink" version="1.1" id="Capa_1" x="0px" y="0px" viewBox="0 0 280.346 280.346" style="enable-background:new 0 0 280.346 280.346;" xml:space="preserve" width="512px" height="512px">
<g>
	<path d="M276.901,48.144l-9.43,11.395C254.776,74.879,246.96,93.296,244.735,113c3.838,3.637,6.421,8.634,6.935,14.318   c0.437,4.832,0.048,15.764-8.13,34.696c-9.893,22.903-40.073,37.493-42.911,39.042c-2.384,1.467-5.115,2.241-7.874,2.241   c-3.092,0-6.21-0.952-8.889-2.927c-16.936-12.484-32.559-26.837-46.437-42.66l-7.046-8.034c-0.475-0.541-0.886-1.114-1.27-1.699   c-0.012-0.013-0.025-0.024-0.037-0.038l-7.046-8.034c-7.363-8.395-15.285-16.315-23.662-23.714l-0.082,0.135   c-5.803,3.274-25.79,21.641-23.939,38.551c18.418,25.494,27.045,56.387,24.397,88.058c-0.69,8.255-7.918,14.378-16.198,13.698   c-8.255-0.69-14.388-7.942-13.698-16.198c1.4-16.741-1.276-33.202-7.665-48.237c-4.962,17.378-13.475,33.571-25.199,47.737   l-9.43,11.395c-2.966,3.584-7.249,5.437-11.564,5.437c-3.368,0.001-6.757-1.128-9.555-3.444   c-6.382-5.281-7.274-14.736-1.992-21.119l9.43-11.395c13.47-16.276,21.453-36.014,23.086-57.079l0.023-0.292   c-3.096-3.475-5.155-7.93-5.606-12.922c-0.438-4.831,0.052-15.763,8.229-34.695c9.07-20.999,36.327-35.679,42.984-39.183   c0.42-0.249,0.85-0.477,1.29-0.682c4.819-2.255,10.689-1.87,15.272,1.51c16.935,12.484,32.558,26.837,46.435,42.659l7.046,8.034   c0.474,0.541,0.886,1.113,1.269,1.698c0.012,0.014,0.026,0.025,0.038,0.039l7.046,8.034c7.359,8.39,15.277,16.305,23.649,23.701   c5.442-3.658,14.913-10.334,18.696-17.461c5.764-10.859,4.764-16.42,4.674-17.332c-19.108-25.754-28.1-57.185-25.405-89.426   c0.69-8.255,7.918-14.378,16.198-13.698c8.255,0.69,14.388,7.942,13.698,16.198c-1.4,16.741,1.276,33.202,7.665,48.237   c4.962-17.378,13.475-33.571,25.199-47.737l9.43-11.395c2.966-3.584,7.249-5.437,11.564-5.437c3.368-0.001,6.757,1.128,9.555,3.444   C281.291,32.306,282.183,41.761,276.901,48.144z M130.809,77.706c12.5-2.5,20.606-14.66,18.105-27.159   c-2.5-12.5-14.66-20.606-27.159-18.105c-12.5,2.5-20.606,14.66-18.105,27.159C106.149,72.1,118.309,80.206,130.809,77.706z    M151.21,200.128c-12.5,2.5-20.606,14.66-18.105,27.159c2.5,12.5,14.66,20.606,27.159,18.105c12.5-2.5,20.606-14.66,18.105-27.159   C175.869,205.733,163.709,197.627,151.21,200.128z" fill="#FFFFFF"/>
</g>
<g>
</g>
<g>
</g>
<g>
</g>
<g>
</g>
<g>
</g>
<g>
</g>
<g>
</g>
<g>
</g>
<g>
</g>
<g>
</g>
<g>
</g>
<g>
</g>
<g>
</g>
<g>
</g>
<g>
</g>
</svg>
