<?xml version="1.0" encoding="iso-8859-1"?>
<!-- Generator: Adobe Illustrator 19.0.0, SVG Export Plug-In . SVG Version: 6.00 Build 0)  -->
<svg xmlns="http://www.w3.org/2000/svg" xmlns:xlink="http://www.w3.org/1999/xlink" version="1.1" id="Capa_1" x="0px" y="0px" viewBox="0 0 512 512" style="enable-background:new 0 0 512 512;" xml:space="preserve" width="512px" height="512px">
<g>
	<g>
		<path d="M511.065,293.021L392.675,76.836l-0.021,0.011c-0.749-1.368-1.902-2.517-3.389-3.224l-75.957-36.074    c-1.922-0.912-4.139-0.978-6.111-0.181c-1.973,0.797-3.522,2.385-4.269,4.376l-8.158,21.714h-76.162l-9.631-21.969    c-0.433-0.987-1.028-1.91-1.823-2.638c-2.389-2.188-5.725-2.602-8.458-1.304l-75.961,36.071c-1.488,0.707-2.642,1.857-3.391,3.225    l-0.016-0.009L0.935,293.021c-1.562,2.854-1.137,6.385,1.059,8.786l30.745,33.599c1.497,1.636,3.55,2.472,5.613,2.471    c1.753,0,3.515-0.603,4.947-1.831l108.947-93.405l9.77,46.565l-44.848,176.506c-0.766,3.016,0.369,6.277,3.068,8.147    c1.318,0.913,2.919,1.329,4.522,1.329h23.269c4.199,0,7.604-3.405,7.604-7.604v-0.001c0-4.199-3.405-7.604-7.604-7.604h-13.713    l41.419-163.005h33.455l-19.135,127.111c-0.626,4.153,2.234,8.026,6.387,8.651c0.383,0.058,0.764,0.085,1.142,0.085    c3.699,0,6.942-2.704,7.509-6.474l13.77-91.478l23.586,125.108h-58.934c-4.199,0-7.604,3.405-7.604,7.604v0.001    c0,4.199,3.405,7.604,7.604,7.604h68.101v-0.006c0.001,0,0.002,0,0.003,0h135.631c1.603,0,3.204-0.417,4.521-1.331    c2.696-1.873,3.83-5.132,3.064-8.145l-44.847-176.497l9.768-46.561l108.94,93.396c1.433,1.228,3.193,1.831,4.947,1.831    c2.062,0,4.115-0.834,5.612-2.47l30.755-33.599C512.201,299.408,512.628,295.875,511.065,293.021z M289.055,78.666l-29.434,78.35    l-34.348-78.35H289.055z M38.988,319.708l-22.102-24.153l105.893-193.363l25.903,123.471L38.988,319.708z M212.754,281.769    h-36.761l-41.326-196.98l63.472-30.141l53.819,122.766L212.754,281.769z M377.684,459.975H257.919l-30.728-162.998h109.076    L377.684,459.975z M473.002,319.708l-109.688-94.038l13.376-63.757c0.862-4.11-1.77-8.14-5.88-9.003    c-4.11-0.863-8.14,1.77-9.003,5.88l-25.801,122.979H228.999l85.254-226.934L377.33,84.79l-7.952,37.906    c-0.862,4.11,1.77,8.14,5.88,9.003c4.11,0.863,8.141-1.77,9.003-5.88l4.958-23.632l105.893,193.366L473.002,319.708z" fill="#9a9da2"/>
	</g>
</g>
<g>
</g>
<g>
</g>
<g>
</g>
<g>
</g>
<g>
</g>
<g>
</g>
<g>
</g>
<g>
</g>
<g>
</g>
<g>
</g>
<g>
</g>
<g>
</g>
<g>
</g>
<g>
</g>
<g>
</g>
</svg>
