<?xml version="1.0" encoding="iso-8859-1"?>
<!-- Generator: Adobe Illustrator 19.0.0, SVG Export Plug-In . SVG Version: 6.00 Build 0)  -->
<svg xmlns="http://www.w3.org/2000/svg" xmlns:xlink="http://www.w3.org/1999/xlink" version="1.1" id="Layer_1" x="0px" y="0px" viewBox="0 0 512 512" style="enable-background:new 0 0 512 512;" xml:space="preserve" width="512px" height="512px">
<g>
	<g>
		<g>
			<path d="M299.181,160.386c-8.018,0-15.998,0.563-23.886,1.649c1.527-9.519,2.296-19.233,2.296-29.409     c0-1.052-0.017-2.069-0.036-3.084h55.588c-0.018,1.015-0.036,2.032-0.036,3.084c0,5.111,4.143,9.253,9.253,9.253     c5.11,0,9.253-4.142,9.253-9.253c0-19.061,3.424-30.871,6.734-42.291c2.883-9.94,5.605-19.328,5.605-31.733     C363.952,26.29,337.662,0,305.349,0c-32.313,0-58.602,26.29-58.602,58.602c0,12.405,2.722,21.793,5.604,31.733     c3.31,11.421,6.734,23.23,6.734,42.291c0,11.607-1.076,22.522-3.279,33.223c-23.124,5.896-44.973,16.452-63.991,31.125     c-7.425-18.305-12.922-38.124-12.922-64.348c0-19.061,3.424-30.871,6.734-42.291c2.882-9.94,5.604-19.328,5.604-31.733     C191.229,26.29,164.939,0,132.627,0S74.024,26.29,74.024,58.602c0,12.405,2.722,21.793,5.604,31.733     c3.31,11.421,6.734,23.23,6.734,42.291c0,38.027-11.558,62.587-23.794,88.591c-12.564,26.697-25.556,54.304-25.556,96.469     c0,100.007,48.503,186.037,50.568,189.651c1.647,2.883,4.713,4.662,8.034,4.662h74.024c3.32,0,6.387-1.779,8.034-4.662     c2.065-3.614,50.568-89.644,50.568-189.651c0-42.165-12.991-69.773-25.556-96.469c-1.067-2.266-2.128-4.523-3.177-6.778     c0.215-0.147,0.428-0.296,0.634-0.463c27.884-22.624,63.055-35.085,99.038-35.085c86.737,0,157.301,70.565,157.301,157.301     c0,86.737-70.565,157.301-157.301,157.301c-22.317,0-43.878-4.576-64.083-13.598c-4.667-2.087-10.138,0.01-12.223,4.675     c-2.084,4.666,0.01,10.139,4.676,12.221c10.694,4.776,21.727,8.424,33.025,10.956c1.698,2.629,4.609,4.253,7.761,4.253h74.024     c3.32,0,6.386-1.779,8.034-4.661c0.041-0.072,0.748-1.313,1.942-3.559c71.037-22.585,122.651-89.167,122.651-167.587     C474.988,239.252,396.121,160.386,299.181,160.386z M132.627,18.506c22.109,0,40.096,17.987,40.096,40.096     c0,9.777-2.258,17.563-4.871,26.58c-2.171,7.488-4.519,15.601-5.991,25.854h-58.468c-1.472-10.254-3.821-18.367-5.991-25.854     c-2.614-9.016-4.872-16.802-4.872-26.58C92.53,36.493,110.518,18.506,132.627,18.506z M104.832,129.542h55.588     c-0.018,1.015-0.036,2.032-0.036,3.084c0,15.007,1.651,28.162,4.338,40.096H100.53c2.687-11.934,4.338-25.089,4.338-40.096     C104.867,131.574,104.85,130.558,104.832,129.542z M209.735,317.687c0,82.253-35.754,156.789-45.632,175.807H101.15     c-9.88-19.02-45.632-93.554-45.632-175.807c0-38.027,11.558-62.587,23.794-88.591c5.657-12.022,11.397-24.232,16.003-37.867     h74.624c4.606,13.636,10.345,25.847,16.003,37.867C198.177,255.099,209.735,279.659,209.735,317.687z M265.253,58.602     c0-22.11,17.988-40.096,40.096-40.096s40.096,17.987,40.096,40.096c0,9.777-2.258,17.563-4.871,26.58     c-2.171,7.488-4.519,15.601-5.991,25.854h-58.468c-1.472-10.254-3.821-18.367-5.991-25.854     C267.511,76.166,265.253,68.38,265.253,58.602z" fill="#FFFFFF"/>
			<path d="M323.855,289.928c15.307,0,27.759-12.453,27.759-27.759s-12.452-27.759-27.759-27.759     c-15.307,0-27.759,12.453-27.759,27.759S308.548,289.928,323.855,289.928z M323.855,252.916c5.103,0,9.253,4.15,9.253,9.253     s-4.15,9.253-9.253,9.253c-5.103,0-9.253-4.15-9.253-9.253S318.753,252.916,323.855,252.916z" fill="#FFFFFF"/>
			<path d="M323.855,363.952c15.307,0,27.759-12.453,27.759-27.759c0-15.306-12.452-27.759-27.759-27.759     c-15.307,0-27.759,12.453-27.759,27.759C296.096,351.498,308.548,363.952,323.855,363.952z M323.855,326.94     c5.103,0,9.253,4.15,9.253,9.253c0,5.103-4.15,9.253-9.253,9.253c-5.103,0-9.253-4.15-9.253-9.253     C314.602,331.09,318.753,326.94,323.855,326.94z" fill="#FFFFFF"/>
			<path d="M413.301,299.181c0-15.306-12.452-27.759-27.759-27.759s-27.759,12.453-27.759,27.759s12.452,27.759,27.759,27.759     S413.301,314.486,413.301,299.181z M376.289,299.181c0-5.103,4.15-9.253,9.253-9.253s9.253,4.15,9.253,9.253     s-4.15,9.253-9.253,9.253S376.289,304.283,376.289,299.181z" fill="#FFFFFF"/>
		</g>
	</g>
</g>
<g>
</g>
<g>
</g>
<g>
</g>
<g>
</g>
<g>
</g>
<g>
</g>
<g>
</g>
<g>
</g>
<g>
</g>
<g>
</g>
<g>
</g>
<g>
</g>
<g>
</g>
<g>
</g>
<g>
</g>
</svg>
