<?xml version="1.0" encoding="iso-8859-1"?>
<!-- Generator: Adobe Illustrator 17.1.0, SVG Export Plug-In . SVG Version: 6.00 Build 0)  -->
<!DOCTYPE svg PUBLIC "-//W3C//DTD SVG 1.1//EN" "http://www.w3.org/Graphics/SVG/1.1/DTD/svg11.dtd">
<svg xmlns="http://www.w3.org/2000/svg" xmlns:xlink="http://www.w3.org/1999/xlink" version="1.1" id="Capa_1" x="0px" y="0px" viewBox="0 0 77.601 77.601" style="enable-background:new 0 0 77.601 77.601;" xml:space="preserve" width="512px" height="512px">
<path d="M75.601,73.365h-3.799V7.259c0-2.206-1.794-4-4-4H52.55l0.003-0.079c0.034-0.79-0.241-1.53-0.772-2.086  c-0.531-0.553-1.255-0.858-2.039-0.858L49.43,0.249c-1.59,0.079-2.923,1.424-3.004,3.01h-5.621  c-1.293-0.928-2.856-1.465-4.513-1.465c-1.25,0-2.499,0.311-3.611,0.898c-0.317,0.167-0.614,0.361-0.901,0.566h-4.417  c-0.312-1.281-1.386-2.367-2.763-2.627c-1.731-0.329-3.158,0.902-3.195,2.588l-0.001,0.039H9.799c-2.206,0-4,1.794-4,4v66.105H2  c-1.104,0-2,0.896-2,2s0.896,2,2,2h11.598c1.104,0,2-0.896,2-2s-0.896-2-2-2H9.799V7.259h11.514l-0.11,4.859  c-0.029,1.294,0.498,3.158,1.201,4.244l4.911,7.595c-0.163,1.571-0.507,5.243-0.395,7.22c0.318,5.5,2.146,10.401,2.223,10.607  c0.034,0.09,0.082,0.173,0.124,0.259c0.029,0.101,0.039,0.204,0.074,0.304l3.352,9.679c0.744,2.148,2.362,5.444,3.607,7.348  l3.394,5.185c1.04,1.589,2.831,2.615,4.562,2.615c0.663,0,1.28-0.146,1.835-0.432c0.915-0.473,1.582-1.305,1.878-2.343  c0.364-1.274,0.14-2.731-0.616-3.998l-3.843-6.447c-1.101-1.845-2.573-4.999-3.282-7.03l-1.399-4.007l0.521-0.091l2.889,7.386  c0.83,2.121,2.601,5.341,3.948,7.179l3.558,4.852c1.106,1.508,2.887,2.445,4.647,2.445h0c0.709,0,1.365-0.153,1.95-0.455  c0.948-0.489,1.618-1.339,1.886-2.392c0.321-1.262,0.032-2.684-0.793-3.9l-4.248-6.27c-1.205-1.778-2.857-4.841-3.683-6.827  l-2.619-6.302c-0.018-0.068-0.025-0.136-0.048-0.203c-0.018-0.053-1.84-5.327-2.271-9.432c-0.13-1.24-0.064-3.294,0.036-5.058  l5.76-6.03c0.921-0.964,1.686-2.762,1.742-4.093l0.275-6.468h15.422v66.105h-3.799c-1.104,0-2,0.896-2,2s0.896,2,2,2h11.598  c1.104,0,2-0.896,2-2S76.706,73.365,75.601,73.365z M29.447,13.159c1.346,2.55,3.975,4.133,6.859,4.133  c1.249,0,2.496-0.31,3.608-0.896c3.344-1.768,4.86-5.65,3.781-9.136h2.596l-0.121,3.738c-0.026,0.826-0.605,2.087-1.215,2.646  l-4.962,4.553l-6.964,1.301l-4.556-6.242c-0.526-0.721-0.99-2.137-0.992-3.029l-0.009-2.967h1.422  C28.286,9.236,28.481,11.331,29.447,13.159z" fill="#FFFFFF"/>
<g>
</g>
<g>
</g>
<g>
</g>
<g>
</g>
<g>
</g>
<g>
</g>
<g>
</g>
<g>
</g>
<g>
</g>
<g>
</g>
<g>
</g>
<g>
</g>
<g>
</g>
<g>
</g>
<g>
</g>
</svg>
