<?xml version="1.0" encoding="iso-8859-1"?>
<!-- Generator: Adobe Illustrator 18.1.1, SVG Export Plug-In . SVG Version: 6.00 Build 0)  -->
<svg xmlns="http://www.w3.org/2000/svg" xmlns:xlink="http://www.w3.org/1999/xlink" version="1.1" id="Capa_1" x="0px" y="0px" viewBox="0 0 54.442 54.442" style="enable-background:new 0 0 54.442 54.442;" xml:space="preserve" width="512px" height="512px">
<g>
	<g>
		<circle cx="11.893" cy="20.99" r="4.332" fill="#9a9da2"/>
		<path d="M20.035,18.547c2.281-1.665,4.531-2.817,7.399-2.742c2.5,0.066,4.721,1.828,6.463,3.527    c0.096,1.251,0.033,2.5-0.201,3.729h3.992c0.11-0.755-0.512-4.383-0.076-4.803c0.547,0.577,2.861,2.763,3.393,3.354    c-0.234,0.488-0.482,0.971-0.736,1.449h4.457c0.142-0.301,0.282-0.603,0.418-0.908c0.44-0.995,0.058-1.9-0.61-2.434    c-0.097-0.176-0.207-0.346-0.347-0.501c-1.348-1.506-2.701-3.002-4.187-4.376c-0.024-0.023-0.052-0.042-0.074-0.063    c-0.108-0.141-0.225-0.28-0.356-0.416c-2.672-2.714-5.928-4.95-9.678-5.742c0.553-0.584,1.105-1.168,1.658-1.752    c1.77-1.867-1.125-4.606-2.893-2.739c-1.372,1.449-2.744,2.899-4.116,4.348c-1.092,0.166-2.157,0.445-3.196,0.82    c-0.055-1.98-0.108-3.959-0.162-5.939c-0.07-2.567-4.053-2.458-3.983,0.11c0.071,2.591,0.143,5.181,0.213,7.771    c-0.463,0.292-0.919,0.6-1.362,0.925C12.158,15.003,16.106,21.416,20.035,18.547z" fill="#9a9da2"/>
		<path d="M37.362,27.657c-1.539,2.036,1.39,4.739,2.937,2.691c1.122-1.487,2.136-3.027,3.045-4.632h-4.641    C38.276,26.376,37.837,27.026,37.362,27.657z" fill="#9a9da2"/>
		<path d="M32.896,25.716c-0.012,0.026-0.021,0.053-0.031,0.079c-1.018,2.341,2.472,4.271,3.494,1.916    c0.287-0.662,0.526-1.327,0.731-1.995H32.896z" fill="#9a9da2"/>
		<path d="M1.328,23.665V6.846H0v46.106h1.328V24.993h6.823c-0.347-0.392-0.633-0.838-0.844-1.328    C7.307,23.665,1.328,23.665,1.328,23.665z" fill="#9a9da2"/>
		<path d="M53.114,6.846v16.82h-4.646h-2.974h-5.933h-1.195h-5.327h-3.224H16.471    c-0.214,0.488-0.502,0.935-0.852,1.328h14.196h2.891h5.427h0.673h6.049h3.613h4.646v27.96h1.328V6.846H53.114z" fill="#9a9da2"/>
	</g>
</g>
<g>
</g>
<g>
</g>
<g>
</g>
<g>
</g>
<g>
</g>
<g>
</g>
<g>
</g>
<g>
</g>
<g>
</g>
<g>
</g>
<g>
</g>
<g>
</g>
<g>
</g>
<g>
</g>
<g>
</g>
</svg>
