<?xml version="1.0" encoding="iso-8859-1"?>
<svg xmlns="http://www.w3.org/2000/svg" xmlns:xlink="http://www.w3.org/1999/xlink" version="1.1" viewBox="0 0 295.82 295.82" enable-background="new 0 0 295.82 295.82" width="512px" height="512px">
  <g>
    <path d="m188.485,157.864l55.492-145.683c0-3.48 0-6.96-1.74-8.701-1.74-1.74-3.48-3.48-6.96-3.48h-48.723c-3.48,0-6.96,1.74-8.701,5.22l-30.069,78.949-29.095-78.949c-1.74-3.48-5.22-5.22-8.701-5.22h-48.723c-3.48,0-5.22,1.74-6.96,3.48-1.74,3.48-3.48,5.22-1.74,8.701l55.492,145.683c-20.847,13.19-34.611,36.299-34.611,63.131 0,41.763 33.062,74.825 74.825,74.825s74.825-33.062 74.825-74.825c0-26.849-13.765-49.958-34.611-63.131zm3.288-140.462h29.582l-48.723,128.769h-29.582l48.723-128.769zm-87.006,0l33.741,91.095-14.356,37.674h-0.244l-48.723-128.769h29.582zm43.503,261.018c-31.322,0-57.424-26.102-57.424-57.424s26.102-57.424 57.424-57.424 57.424,26.102 57.424,57.424-26.101,57.424-57.424,57.424z" fill="#9a9da2"/>
  </g>
</svg>
