<?xml version="1.0" encoding="iso-8859-1"?>
<!-- Generator: Adobe Illustrator 19.0.0, SVG Export Plug-In . SVG Version: 6.00 Build 0)  -->
<svg xmlns="http://www.w3.org/2000/svg" xmlns:xlink="http://www.w3.org/1999/xlink" version="1.1" id="Layer_1" x="0px" y="0px" viewBox="0 0 503.607 503.607" style="enable-background:new 0 0 503.607 503.607;" xml:space="preserve" width="512px" height="512px">
<g transform="translate(1 1)">
	<g>
		<path d="M494.213-1h-58.754h-56.236h-94.846H126.58H70.344H7.393C2.357-1-1,2.357-1,7.393v62.951v94.846v94.846v95.685v94.846    v43.646c0,5.036,3.357,8.393,8.393,8.393h51.2h79.738h95.685h37.77h95.685h79.738h47.003c5.036,0,8.393-3.357,8.393-8.393V446.37    l0,0v0v-94.844c0-0.001,0-0.001,0-0.002v-94.846c0,0,0-0.001,0-0.001v-94.844c0-0.122-0.011-0.233-0.015-0.35    c0.008-0.163,0.015-0.326,0.015-0.489V66.148V7.393C502.607,2.357,499.249-1,494.213-1z M428.744,369.151l-13.268-13.268    c-0.419-0.959-1.029-1.869-1.84-2.679l-41.548-41.548l35.252-35.252l78.479,78.479v71.344L428.744,369.151z M237.374,485.82    l-19.725-19.725l142.269-142.269l35.304,35.304l-39.401,40.105c-0.936,0.418-1.825,1.017-2.618,1.81L268.43,485.82H237.374z     M73.702,16.626h49.521l117.508,117.508l-33.515,33.515l-1.592,1.592L104.757,67.826c-0.811-0.811-1.72-1.421-2.679-1.84    L62.79,26.698L73.702,16.626z M432.102,15.787l53.718,54.557v70.505L371.669,26.698l10.911-10.911H432.102z M485.82,331.38    l-0.007-0.007l-70.938-71.46c-0.345-0.546-0.752-1.07-1.238-1.556l-41.547-41.548l35.252-35.252l78.479,78.479V331.38z     M63.018,121.772l35.415-35.09L240.731,228.98l-35.252,35.252L104.757,163.511L63.018,121.772z M98.433,181.528l142.298,142.298    l-35.252,35.252L104.757,258.357l-41.739-41.739L98.433,181.528z M217.281,370.881l41.915-41.18L359.918,228.98l34.833,34.833    L252.482,406.082L217.281,370.881z M252.482,311.236l-34.833-34.833l41.548-41.548l100.721-100.721l34.833,34.833L252.482,311.236    z M252.5,216.372l-35.157-35.348L359.498,38.869l35.252,35.252L252.5,216.372z M15.787,264.233l35.252-35.252l35.252,35.252    l-70.505,70.505V264.233z M62.79,312.075l35.252-35.252l142.269,142.269l-34.833,34.833L104.757,353.203    c-0.811-0.811-1.72-1.421-2.679-1.84L62.79,312.075z M15.787,73.702l35.252-35.252l35.672,35.672l-41.547,41.547    c0,0,0,0-0.001,0.001l-29.377,29.377V73.702z M15.787,168.571l35.424-35.099l35.08,35.916l-41.128,41.128l-29.377,29.377V168.571z     M15.787,359.079l35.252-34.413l35.252,35.252l-41.128,41.128l-29.377,29.377V359.079z M414.874,165.067    c-0.345-0.546-0.752-1.07-1.238-1.556l-41.548-41.548l35.252-35.252l78.479,78.479v71.344L414.874,165.067z M485.82,15.787v30.216    l-30.216-30.216H485.82z M252.482,121.544l-35.253-35.252l70.505-70.505h71.344L252.482,121.544z M263.393,15.787l-58.334,58.334    l-58.334-58.334H263.393z M15.787,15.787H50.2l-5.036,5.036L15.787,50.2V15.787z M15.787,453.948l35.427-35.102l35.498,35.498    L55.236,485.82H15.787V453.948z M79.577,485.82l19.305-19.305l19.305,19.305H79.577z M142.528,485.82L63.86,406.315l35.142-34.819    l100.601,100.055l14.269,14.269H142.528z M359.918,418.672l35.672,35.672l-31.475,31.475h-71.344L359.918,418.672z     M387.616,485.82l19.725-19.725l19.725,19.725H387.616z M485.82,485.82h-34.413l-37.77-37.77c-0.811-0.811-1.72-1.421-2.679-1.84    l-39.288-39.288l35.672-35.672l78.479,78.479V485.82z" fill="#9a9da2"/>
	</g>
</g>
<g>
</g>
<g>
</g>
<g>
</g>
<g>
</g>
<g>
</g>
<g>
</g>
<g>
</g>
<g>
</g>
<g>
</g>
<g>
</g>
<g>
</g>
<g>
</g>
<g>
</g>
<g>
</g>
<g>
</g>
</svg>
