<?xml version="1.0" encoding="iso-8859-1"?>
<!-- Generator: Adobe Illustrator 19.0.0, SVG Export Plug-In . SVG Version: 6.00 Build 0)  -->
<svg xmlns="http://www.w3.org/2000/svg" xmlns:xlink="http://www.w3.org/1999/xlink" version="1.1" id="Capa_1" x="0px" y="0px" viewBox="0 0 512.009 512.009" style="enable-background:new 0 0 512.009 512.009;" xml:space="preserve" width="512px" height="512px">
<g>
	<g>
		<path d="M324.267,119.471v42.667c0,37.641-30.626,68.267-68.267,68.267c-37.641,0-68.267-30.626-68.267-68.267v-51.2h-17.067v51.2    c0,47.053,38.281,85.333,85.333,85.333s85.333-38.281,85.333-85.333v-42.667H324.267z" fill="#9a9da2"/>
	</g>
</g>
<g>
	<g>
		<path d="M179.2,110.938h-8.533c-18.825,0-34.133,15.309-34.133,34.133s15.309,34.133,34.133,34.133h8.533    c4.71,0,8.533-3.823,8.533-8.533v-51.2C187.733,114.761,183.91,110.938,179.2,110.938z M170.667,162.138    c-9.412,0-17.067-7.654-17.067-17.067c0-9.412,7.654-17.067,17.067-17.067V162.138z" fill="#9a9da2"/>
	</g>
</g>
<g>
	<g>
		<path d="M341.333,110.938H332.8c-4.719,0-8.533,3.823-8.533,8.533v51.2c0,4.71,3.814,8.533,8.533,8.533h8.533    c18.825,0,34.133-15.309,34.133-34.133C375.467,126.246,360.158,110.938,341.333,110.938z M341.333,162.138v-34.133    c9.412,0,17.067,7.654,17.067,17.067C358.4,154.483,350.746,162.138,341.333,162.138z" fill="#9a9da2"/>
	</g>
</g>
<g>
	<g>
		<path d="M274.876,2.496c-7.151-1.656-14.49-2.492-21.811-2.492c-0.017,0-0.043,0-0.06,0c-53.35,0.017-96.742,43.452-96.734,96.811    c0.009,7.313,0.845,14.635,2.458,21.606l0.597,2.816c0.845,3.977,4.361,6.767,8.346,6.767c0.273,0,0.546-0.009,0.828-0.043    c3.456-0.333,78.805-8.013,118.81-44.322c10.027,19.806,26.931,35.396,47.872,43.759c2.287,0.913,4.881,0.785,7.083-0.341    c2.193-1.135,3.797-3.166,4.378-5.572l0.708-2.91C359.364,66.59,326.852,14.519,274.876,2.496z M332.117,107.012    c-15.932-9.088-28.023-23.757-33.886-41.429c-0.981-2.97-3.516-5.163-6.588-5.717c-3.106-0.538-6.221,0.623-8.175,3.072    c-25.865,32.333-87.467,43.921-109.013,47.061c-0.734-4.361-1.109-8.772-1.109-13.193c-0.017-43.947,35.721-79.718,79.667-79.735    c0.017,0,0.034,0,0.051,0c6.033,0,12.075,0.691,17.963,2.048C311.296,28.429,337.374,66.923,332.117,107.012z" fill="#9a9da2"/>
	</g>
</g>
<g>
	<g>
		<circle cx="213.333" cy="145.071" r="17.067" fill="#9a9da2"/>
	</g>
</g>
<g>
	<g>
		<circle cx="298.667" cy="145.071" r="17.067" fill="#9a9da2"/>
	</g>
</g>
<g>
	<g>
		<path d="M276.864,180.638c-12.663,8.439-29.056,8.439-41.737,0l-9.455,14.199c9.207,6.144,19.772,9.207,30.327,9.207    s21.12-3.063,30.328-9.207L276.864,180.638z" fill="#9a9da2"/>
	</g>
</g>
<g>
	<g>
		<rect x="128" y="486.404" width="17.067" height="25.6" fill="#9a9da2"/>
	</g>
</g>
<g>
	<g>
		<rect x="366.933" y="486.404" width="17.067" height="25.6" fill="#9a9da2"/>
	</g>
</g>
<g>
	<g>
		<rect x="170.667" y="486.404" width="17.067" height="25.6" fill="#9a9da2"/>
	</g>
</g>
<g>
	<g>
		<rect x="170.667" y="273.071" width="17.067" height="153.6" fill="#9a9da2"/>
	</g>
</g>
<g>
	<g>
		<path d="M213.333,230.404v25.6c0,4.71-3.831,8.533-8.533,8.533h-68.267c-4.71,0-8.533,3.814-8.533,8.533v136.533h17.067v-128    H204.8c14.114,0,25.6-11.486,25.6-25.6v-25.6H213.333z" fill="#9a9da2"/>
	</g>
</g>
<g>
	<g>
		<path d="M375.467,264.538H307.2c-4.71,0-8.533-3.823-8.533-8.533v-25.6H281.6v25.6c0,14.114,11.486,25.6,25.6,25.6h59.733v145.067    H384v-153.6C384,268.352,380.186,264.538,375.467,264.538z" fill="#9a9da2"/>
	</g>
</g>
<g>
	<g>
		<path d="M196.267,418.138h-51.2v-34.133c0-3.831-2.56-7.202-6.246-8.226c-3.712-1.015-7.629,0.538-9.6,3.831l-23.117,38.528    H84.215l59.418-89.131l-14.199-9.464l-68.267,102.4c-1.749,2.611-1.911,5.982-0.427,8.755c1.485,2.773,4.378,4.506,7.526,4.506    h42.667c2.995,0,5.777-1.579,7.313-4.147L128,414.81v11.861c0,4.719,3.823,8.533,8.533,8.533h51.2v42.667H68.267    c-28.237,0-51.2-22.963-51.2-51.2c0-9.574,2.68-18.935,7.748-27.051l61.278-97.954c7.851-12.561,21.367-20.062,36.173-20.062    c0.008,0,0.008,0,0.017,0h14.251v-17.067h-14.251c-0.009,0-0.017,0-0.026,0c-20.727,0-39.654,10.487-50.645,28.083l-61.278,97.963    C3.575,401.421,0,413.897,0,426.671c0,37.641,30.626,68.267,68.267,68.267h128c4.71,0,8.533-3.814,8.533-8.533v-59.733    C204.8,421.952,200.977,418.138,196.267,418.138z" fill="#9a9da2"/>
	</g>
</g>
<g>
	<g>
		<rect x="324.267" y="486.404" width="17.067" height="25.6" fill="#9a9da2"/>
	</g>
</g>
<g>
	<g>
		<rect x="324.267" y="273.071" width="17.067" height="153.6" fill="#9a9da2"/>
	</g>
</g>
<g>
	<g>
		<path d="M170.667,230.404c-23.526,0-42.667,19.14-42.667,42.667h17.067c0-14.114,11.486-25.6,25.6-25.6h51.2v-17.067H170.667z" fill="#9a9da2"/>
	</g>
</g>
<g>
	<g>
		<path d="M341.333,230.404h-51.2v17.067h51.2c14.114,0,25.6,11.486,25.6,25.6H384C384,249.545,364.86,230.404,341.333,230.404z" fill="#9a9da2"/>
	</g>
</g>
<g>
	<g>
		<rect x="102.4" y="426.671" width="17.067" height="59.733" fill="#9a9da2"/>
	</g>
</g>
<g>
	<g>
		<path d="M298.667,273.071c0,23.526-19.14,42.667-42.667,42.667c-23.526,0-42.667-19.14-42.667-42.667h-17.067    c0,32.93,26.795,59.733,59.733,59.733c32.93,0,59.733-26.803,59.733-59.733H298.667z" fill="#9a9da2"/>
	</g>
</g>
<g>
	<g>
		<rect x="281.6" y="17.071" width="17.067" height="51.2" fill="#9a9da2"/>
	</g>
</g>
<g>
	<g>
		<path d="M501.666,390.49l-61.278-97.877c-10.991-17.587-29.918-28.075-50.645-28.075c-0.009,0-0.017,0-0.026,0h-14.251v17.067    h14.251c0.009,0,0.017,0,0.026,0c14.797,0,28.322,7.501,36.173,20.053l61.269,97.86c5.077,8.158,7.757,17.545,7.748,27.153    c0,28.237-22.963,51.2-51.2,51.2H324.267v-42.667h51.2c4.719,0,8.533-3.814,8.533-8.533V414.81l9.754,16.256    c1.536,2.56,4.309,4.139,7.313,4.139h42.667c3.149,0,6.033-1.732,7.518-4.506c1.485-2.773,1.314-6.135-0.427-8.755l-68.267-102.4    l-14.2,9.464l59.426,89.131h-21.888L382.78,379.61c-1.963-3.294-5.914-4.83-9.591-3.831c-3.695,1.024-6.255,4.395-6.255,8.226    v34.133h-51.2c-4.719,0-8.533,3.814-8.533,8.533v59.733c0,4.719,3.814,8.533,8.533,8.533h128    c37.641,0,68.267-30.626,68.275-68.258C512.017,413.88,508.442,401.37,501.666,390.49z" fill="#9a9da2"/>
	</g>
</g>
<g>
	<g>
		<rect x="392.533" y="426.671" width="17.067" height="59.733" fill="#9a9da2"/>
	</g>
</g>
<g>
</g>
<g>
</g>
<g>
</g>
<g>
</g>
<g>
</g>
<g>
</g>
<g>
</g>
<g>
</g>
<g>
</g>
<g>
</g>
<g>
</g>
<g>
</g>
<g>
</g>
<g>
</g>
<g>
</g>
</svg>
