<?xml version="1.0" encoding="iso-8859-1"?>
<!-- Generator: Adobe Illustrator 19.0.0, SVG Export Plug-In . SVG Version: 6.00 Build 0)  -->
<svg xmlns="http://www.w3.org/2000/svg" xmlns:xlink="http://www.w3.org/1999/xlink" version="1.1" id="Capa_1" x="0px" y="0px" viewBox="0 0 508.086 508.086" style="enable-background:new 0 0 508.086 508.086;" xml:space="preserve" width="512px" height="512px">
<g>
	<g>
		<path d="M496.978,390.793c-30.3-6.7-61.5-3-89.1,10.2c-29.4,14-64.9,14-94.3,0.1c-0.2-0.1-0.4-0.2-0.7-0.3    c-37.6-17.7-80.7-17.7-118.5,0.4c-29.9,14.3-64.2,14.2-94.2-0.1c-18.7-9-38.7-13.5-59.3-13.5c-10,0-20.1,1.1-29.9,3.4    c-7.6,1.7-12.4,9.3-10.6,16.9c1.7,7.6,9.3,12.3,16.9,10.6c23.7-5.4,48.6-2.5,70.8,8.1c18.8,9,39,13.5,59.3,13.5    s40.5-4.5,59.5-13.6c30-14.3,64.5-14.3,94.5,0c0.2,0.1,0.4,0.2,0.7,0.3c36.8,17.4,81.3,17.3,118.1-0.3c22-10.5,46.6-13.4,70.8-8.1    c7.6,1.7,15.1-3.1,16.8-10.8C509.378,399.993,504.578,392.493,496.978,390.793z" fill="#FFFFFF"/>
	</g>
</g>
<g>
	<g>
		<path d="M496.878,322.793c-30.3-6.7-61.5-3-89.1,10.2c-3.5,1.7-7.1,3.1-10.7,4.4v-283.3c0-29.8-24.2-54-54-54s-54,24.2-54,54    c0,7.8,6.3,14.1,14.1,14.1c7.8,0,14.1-6.3,14.1-14.1c0-14.2,11.6-25.8,25.8-25.8s25.8,11.6,25.8,25.8v65.4h-150v-65.4    c0-29.8-24.2-54-54-54c-29.8,0-54,24.2-54,54c0,7.8,6.3,14.1,14.1,14.1s14.1-6.3,14.1-14.1c0-14.2,11.6-25.8,25.8-25.8    c14.2,0,25.8,11.6,25.8,25.8v279.5c0,0.3,0.1,0.6,0.1,0.9c-29.1,12.6-61.9,12.2-90.6-1.5c-18.7-9-38.7-13.5-59.3-13.5    c-10,0-20.1,1.1-29.8,3.3c-7.6,1.7-12.4,9.3-10.6,16.9c1.7,7.6,9.3,12.4,16.8,10.7c23.7-5.4,48.6-2.5,70.8,8.1    c18.8,9,39,13.5,59.2,13.5c20.3,0,40.6-4.5,59.5-13.5c30-14.3,64.5-14.3,94.5,0c0.2,0.1,0.4,0.2,0.7,0.3    c36.8,17.4,81.3,17.3,118.1-0.3c21.9-10.5,46.6-13.4,70.8-8.1c7.6,1.7,15.1-3.1,16.8-10.8    C509.378,331.993,504.578,324.493,496.878,322.793z M368.978,342.993c-18.9,1.4-38.1-1.8-55.3-10c-0.2-0.1-0.4-0.2-0.7-0.3    c-29.7-14-62.7-16.9-94-8.6v-61.8h150V342.993z M368.978,234.093h-150v-86.4h150V234.093z" fill="#FFFFFF"/>
	</g>
</g>
<g>
	<g>
		<path d="M496.978,458.893c-30.3-6.7-61.5-3-89.1,10.2c-29.4,14-64.9,14-94.3,0.1c-0.2-0.1-0.5-0.2-0.7-0.3    c-37.6-17.7-80.7-17.6-118.5,0.4c-14.6,6.9-30.8,10.6-47,10.6c-16.5,0-32.4-3.6-47.2-10.7c-18.7-9-38.7-13.5-59.3-13.5    c-10,0-20.1,1.1-29.8,3.3c-7.6,1.7-12.4,9.3-10.6,16.9c1.7,7.6,9.3,12.4,16.9,10.6c23.7-5.4,48.6-2.5,70.8,8.1    c18.6,8.9,38.6,13.4,59.4,13.4c20.3,0,40.7-4.6,59.4-13.5c30-14.3,64.4-14.3,94.5,0c0.2,0.1,0.5,0.2,0.7,0.3    c18.3,8.6,38.6,13.2,58.7,13.2c20.3,0,40.8-4.7,59.3-13.5c22-10.5,46.6-13.4,70.8-8.1c7.6,1.7,15.1-3.1,16.8-10.8    C509.378,468.193,504.578,460.593,496.978,458.893z" fill="#FFFFFF"/>
	</g>
</g>
<g>
</g>
<g>
</g>
<g>
</g>
<g>
</g>
<g>
</g>
<g>
</g>
<g>
</g>
<g>
</g>
<g>
</g>
<g>
</g>
<g>
</g>
<g>
</g>
<g>
</g>
<g>
</g>
<g>
</g>
</svg>
