<?xml version="1.0" encoding="iso-8859-1"?>
<!-- Generator: Adobe Illustrator 19.0.0, SVG Export Plug-In . SVG Version: 6.00 Build 0)  -->
<svg xmlns="http://www.w3.org/2000/svg" xmlns:xlink="http://www.w3.org/1999/xlink" version="1.1" id="Layer_1" x="0px" y="0px" viewBox="0 0 512 512" style="enable-background:new 0 0 512 512;" xml:space="preserve" width="512px" height="512px">
<g transform="translate(1 1)">
	<g>
		<g>
			<path d="M314.733,195.267c-14.507,0-25.6,16.213-25.6,38.4c0,22.187,11.093,38.4,25.6,38.4c14.507,0,25.6-16.213,25.6-38.4     C340.333,211.48,329.24,195.267,314.733,195.267z M314.733,255c-2.56,0-8.533-7.68-8.533-21.333s5.973-21.333,8.533-21.333     s8.533,7.68,8.533,21.333S317.293,255,314.733,255z" fill="#9a9da2"/>
			<path d="M383,195.267c-3.399,0-6.038,1.511-7.434,4.02l-15.607,15.607c-3.413,3.413-3.413,8.533,0,11.947     c1.707,1.707,3.413,2.56,5.973,2.56s4.267-0.853,5.973-2.56l2.56-2.56v39.253c0,5.12,3.413,8.533,8.533,8.533     s8.533-3.413,8.533-8.533V203.8C391.533,198.68,388.12,195.267,383,195.267z" fill="#9a9da2"/>
			<path d="M365.933,41.667h-29.696C322.688,16.912,298.323-1,263.533-1c-34.831,0-59.213,17.954-72.752,42.755     c-1.344-0.053-2.692-0.088-4.048-0.088c-56.32,0-102.4,46.08-102.4,102.4c0,37.702,20.652,70.812,51.2,88.585v82.082     c0,2.56,0.853,4.267,2.56,5.973l11.093,11.093l-11.093,11.093c-3.413,3.413-3.413,8.533,0,11.947l11.093,11.093l-11.093,11.093     c-3.413,3.413-3.413,8.533,0,11.947l11.093,11.093l-11.093,11.093c-1.707,1.707-2.56,3.413-2.56,5.973s0.853,4.267,2.56,5.973     l11.093,11.093l-11.093,11.093c-3.413,3.413-3.413,8.533,0,11.947l11.093,11.093l-11.093,11.093     c-3.413,3.413-3.413,8.533,0,11.947l17.067,17.067c1.707,1.707,3.413,2.56,5.973,2.56h31.573c0.853,0,1.707,0,2.56,0     c0.165,0,0.333-0.008,0.504-0.021c4.131-0.187,7.08-2.656,8.366-6.457l32.09-48.135c0.853-1.707,1.707-3.413,1.707-5.12V232.651     c6.115-3.558,11.831-7.731,17.067-12.431v43.313c0,33.28,26.453,59.733,59.733,59.733h51.2c33.28,0,59.733-26.453,59.733-59.733     V101.4C425.667,68.12,399.213,41.667,365.933,41.667z M263.533,16.067c23.976,0,41.267,10.469,52.45,25.6h-1.25     c-22.221,0-42.744,12.997-53.298,32.552c-13.784-14.728-31.838-25.414-52.135-30.025     C220.392,27.714,238.244,16.067,263.533,16.067z M178.434,95.045c0.838,3.884,3.948,6.355,8.3,6.355s7.461-2.471,8.3-6.355     c5.217,2.928,8.767,8.511,8.767,14.888c0,9.387-7.68,17.067-17.067,17.067c-9.387,0-17.067-7.68-17.067-17.067     C169.667,103.556,173.217,97.974,178.434,95.045z M156.013,485.4l11.093-11.093c3.413-3.413,3.413-8.533,0-11.947l-11.093-11.093     l11.093-11.093c1.707-1.707,2.56-3.413,2.56-5.973s-0.853-4.267-2.56-5.973l-11.093-11.093l11.093-11.093     c3.413-3.413,3.413-8.533,0-11.947L156.013,383l11.093-11.093c3.413-3.413,3.413-8.533,0-11.947l-11.093-11.093l11.093-11.093     c1.707-1.707,2.56-3.413,2.56-5.973c0-2.56-0.853-4.267-2.56-5.973L152.6,311.32v-70.746c1.261,0.45,2.531,0.881,3.814,1.282     c9.833,3.268,19.742,4.611,30.32,4.611v247.467h-22.187L156.013,485.4z M220.867,448.707l-16.213,24.32V244.884     c5.571-0.994,10.987-2.447,16.213-4.31V448.707z M227.027,219.213c-0.662,0.153-1.301,0.405-1.893,0.8     c-1.759,0.96-3.549,1.859-5.368,2.694c-10.173,4.307-21.337,6.693-33.032,6.693c-2.591,0-5.151-0.136-7.685-0.365     c-10.658-1.08-21.065-3.912-30.715-9.021c-0.71-0.473-1.489-0.802-2.294-1.013c-26.537-14.512-44.639-42.711-44.639-74.934     c0-45.843,36.642-83.524,82.082-85.25c-1.861,5.769-3.231,11.736-4.109,17.797c-15.265,3.39-26.773,17.072-26.773,33.32     c0,18.773,15.36,34.133,34.133,34.133c18.773,0,34.133-15.36,34.133-34.133c0-15.363-10.288-28.434-24.314-32.678     c0.976-5.884,2.516-11.697,4.632-17.264c22.365,3.858,41.814,16.489,54.654,34.202c0.219,0.444,0.496,0.862,0.867,1.234     c0.569,0.806,1.116,1.622,1.653,2.444c0.165,0.255,0.33,0.51,0.493,0.767c0.407,0.637,0.805,1.278,1.193,1.924     c0.447,0.748,0.883,1.504,1.307,2.267c0.145,0.259,0.297,0.514,0.438,0.773c0.633,1.166,1.242,2.346,1.822,3.544     c0.008,0.017,0.016,0.035,0.024,0.052c0.561,1.161,1.093,2.339,1.602,3.529c0.069,0.161,0.136,0.323,0.204,0.484     c0.461,1.097,0.901,2.205,1.317,3.324c0.052,0.14,0.107,0.28,0.158,0.42c0.904,2.47,1.693,4.993,2.367,7.561     c0.076,0.291,0.146,0.584,0.219,0.876c0.24,0.955,0.463,1.917,0.67,2.885c0.08,0.376,0.162,0.752,0.237,1.129     c0.212,1.06,0.404,2.127,0.576,3.201c0.033,0.206,0.074,0.412,0.106,0.618c0.19,1.242,0.346,2.494,0.48,3.752     c0.042,0.39,0.074,0.782,0.11,1.173c0.087,0.938,0.16,1.88,0.217,2.827c0.024,0.397,0.049,0.793,0.067,1.19     c0.059,1.294,0.099,2.593,0.099,3.901c0,1.411-0.039,2.813-0.107,4.208c-0.006,0.128-0.015,0.256-0.021,0.384     c-0.768,14.303-5.102,27.698-12.121,39.31c-0.209,0.341-0.423,0.68-0.638,1.019c-0.301,0.482-0.611,0.957-0.92,1.432     c-0.506,0.766-1.018,1.53-1.552,2.286c-0.009,0.018-0.018,0.037-0.027,0.055C249.011,203.723,238.853,212.827,227.027,219.213z      M408.6,263.533c0,23.893-18.773,42.667-42.667,42.667h-51.2c-23.893,0-42.667-18.773-42.667-42.667v-63.049     c7.401-11.133,12.684-23.778,15.267-37.351c0.037-0.195,0.077-0.39,0.113-0.585c0.192-1.042,0.37-2.09,0.53-3.143     c0.054-0.356,0.101-0.715,0.151-1.073c0.101-0.719,0.196-1.439,0.282-2.162c0.05-0.424,0.101-0.847,0.147-1.273     c0.107-1.005,0.203-2.013,0.28-3.027c0.022-0.29,0.036-0.581,0.056-0.872c0.057-0.849,0.105-1.701,0.141-2.555     c0.014-0.341,0.028-0.683,0.039-1.025c0.036-1.114,0.061-2.23,0.061-3.352c0-1.024-0.02-2.044-0.05-3.061     c-0.017-0.609-0.043-1.216-0.07-1.823c-0.01-0.214-0.02-0.429-0.032-0.643c-0.875-17.616-5.934-34.403-15.208-49.087     c5.12-17.92,23.04-30.72,40.96-30.72h10.661c2.37,5.946,4.069,12.193,5.119,18.522c-14.025,4.244-24.314,17.315-24.314,32.678     c0,18.773,15.36,34.133,34.133,34.133c18.773,0,34.133-15.36,34.133-34.133c0-16.247-11.508-29.93-26.773-33.32     c-0.882-6.09-2.26-12.086-4.135-17.88h22.375c23.893,0,42.667,18.773,42.667,42.667V263.533z M357.4,109.933     c0,9.387-7.68,17.067-17.067,17.067s-17.067-7.68-17.067-17.067c0-6.378,3.55-11.96,8.767-14.888     c0.838,3.884,3.948,6.355,8.3,6.355s7.462-2.471,8.3-6.355C353.85,97.974,357.4,103.556,357.4,109.933z" fill="#9a9da2"/>
		</g>
	</g>
</g>
<g>
</g>
<g>
</g>
<g>
</g>
<g>
</g>
<g>
</g>
<g>
</g>
<g>
</g>
<g>
</g>
<g>
</g>
<g>
</g>
<g>
</g>
<g>
</g>
<g>
</g>
<g>
</g>
<g>
</g>
</svg>
