<?xml version="1.0" encoding="iso-8859-1"?>
<!-- Generator: Adobe Illustrator 19.0.0, SVG Export Plug-In . SVG Version: 6.00 Build 0)  -->
<svg xmlns="http://www.w3.org/2000/svg" xmlns:xlink="http://www.w3.org/1999/xlink" version="1.1" id="Layer_1" x="0px" y="0px" viewBox="0 0 512 512" style="enable-background:new 0 0 512 512;" xml:space="preserve" width="512px" height="512px">
<g transform="translate(1 1)">
	<g>
		<g>
			<path d="M493.933,178.2H458.76c-15.965-20.705-40.988-34.133-68.934-34.133H120.173c-27.946,0-52.969,13.428-68.934,34.133     H16.067C6.68,178.2-1,185.88-1,195.267V280.6c0,9.387,7.68,17.067,17.067,17.067H34.86c7.951,38.828,42.408,68.267,82.753,68.267     c49.493,0,104.107-31.573,133.12-76.8h7.68c29.867,45.227,83.627,76.8,133.12,76.8c41.093,0,75.642-29.438,83.605-68.267h18.795     c9.387,0,17.067-7.68,17.067-17.067v-85.333C511,185.88,503.32,178.2,493.933,178.2z M16.067,280.6v-85.333h24.747     c-5.12,11.093-7.68,23.04-7.68,35.84v47.787c0,0.853,0,0.853,0,1.707H16.067z M391.533,348.867     c-45.227,0-94.72-29.867-120.32-72.533c-1.707-2.56-4.267-4.267-7.68-4.267h-17.067c-3.413,0-5.973,1.707-7.68,4.267     c-25.6,42.667-75.093,72.533-120.32,72.533c-34.276,0-62.849-25.605-67.569-58.63c0.098-0.643,0.156-1.299,0.156-1.957     c-0.853-3.413-0.853-6.827-0.853-9.387v-47.787c0-1.131,0.032-2.255,0.086-3.373c0.007-0.162,0.018-0.324,0.027-0.485     c2.031-36.633,32.755-66.114,69.86-66.114h269.653c37.104,0,67.828,29.48,69.86,66.112c0.009,0.163,0.02,0.325,0.027,0.489     c0.054,1.118,0.086,2.242,0.086,3.372v47.787c0,0.737-0.002,1.429-0.01,2.103c-0.003,0.52-0.025,1.036-0.04,1.554     c-0.078,1.852-0.279,3.629-0.804,5.729c-0.42,1.262-0.423,2.522-0.117,3.681C453.377,324.148,425.21,348.867,391.533,348.867z      M493.933,280.6h-17.067c0-0.853,0-0.853,0-1.707v-47.787c0-12.8-2.56-24.747-7.68-35.84h24.747V280.6z" fill="#9a9da2"/>
			<path d="M132.973,197.827c-3.413-3.413-8.533-3.413-11.947,0L86.893,231.96c-3.413,3.413-3.413,8.533,0,11.947     c1.707,1.707,3.413,2.56,5.973,2.56c2.56,0,4.267-0.853,5.973-2.56l34.133-34.133C136.387,206.36,136.387,201.24,132.973,197.827     z" fill="#9a9da2"/>
			<path d="M163.693,197.827L103.96,257.56c-3.413,3.413-3.413,8.533,0,11.947c1.707,1.707,3.413,2.56,5.973,2.56     s4.267-0.853,5.973-2.56l59.733-59.733c3.413-3.413,3.413-8.533,0-11.947S167.107,194.413,163.693,197.827z" fill="#9a9da2"/>
			<path d="M389.827,169.667H120.173c-34.133,0-61.44,27.307-62.293,61.44V280.6c0,33.28,26.453,59.733,59.733,59.733     c41.813,0,89.6-28.16,113.493-68.267l5.12-8.533h36.693l5.12,8.533c23.893,39.253,71.68,68.267,113.493,68.267     c33.28,0,59.733-26.453,59.733-59.733v-49.493C451.267,196.973,423.96,169.667,389.827,169.667z M434.2,280.6     c0,23.893-18.773,42.667-42.667,42.667c-35.84,0-77.653-25.6-98.133-60.587l-7.68-11.947c-1.707-2.56-5.12-4.267-7.68-4.267     h-46.08c-2.56,0-5.973,1.707-6.827,4.267l-7.68,11.947c-21.333,34.987-63.147,60.587-98.987,60.587     c-23.893,0-42.667-18.773-42.667-42.667v-49.493c0-24.747,19.627-44.373,44.373-44.373h269.653     c24.747,0,44.373,19.627,44.373,44.373V280.6z" fill="#9a9da2"/>
		</g>
	</g>
</g>
<g>
</g>
<g>
</g>
<g>
</g>
<g>
</g>
<g>
</g>
<g>
</g>
<g>
</g>
<g>
</g>
<g>
</g>
<g>
</g>
<g>
</g>
<g>
</g>
<g>
</g>
<g>
</g>
<g>
</g>
</svg>
