<?xml version="1.0" encoding="iso-8859-1"?>
<!-- Generator: Adobe Illustrator 19.0.0, SVG Export Plug-In . SVG Version: 6.00 Build 0)  -->
<svg xmlns="http://www.w3.org/2000/svg" xmlns:xlink="http://www.w3.org/1999/xlink" version="1.1" id="Capa_1" x="0px" y="0px" viewBox="0 0 512 512" style="enable-background:new 0 0 512 512;" xml:space="preserve" width="512px" height="512px">
<g>
	<g>
		<g>
			<path d="M491.265,65.458c-16.083-28.031-35.708-44.115-53.875-44.125c-1.477,0-2.883,0.301-4.161,0.842     c-9.71,1.997-17.172,10.204-17.172,20.491v64c0,7.794,4.408,14.332,10.667,18.056v303.122     c-12.776,2.747-21.333,10.337-21.333,20.155c0,9.818,8.557,17.408,21.333,20.155v33.178c0,5.896,4.771,10.667,10.667,10.667     c5.896,0,10.61-4.771,10.61-10.667v-33.178c12.777-2.747,21.39-10.337,21.39-20.155c0-9.818-8.612-17.408-21.39-20.155V157.992     c8.604,8.233,19.315,12.585,31.869,12.674c0.104,0,0.208,0,0.292,0c11.646,0,21.021-5.115,26.458-14.427     C519.348,134.448,507.577,93.906,491.265,65.458z M488.202,145.479c-1.167,2.021-2.917,4.052-8.167,3.854     c-7.354-0.052-13.25-2.448-18-7.323c-4.958-5.076-8.168-12.37-10.294-19.775c4.233-3.901,6.982-9.372,6.982-15.569V56.243     c4.775,5.339,9.572,12.04,14.042,19.829C488.056,102.74,494.994,133.865,488.202,145.479z" fill="#9a9da2"/>
			<path d="M85.281,427.845V124.723c6.259-3.724,10.667-10.262,10.667-18.056v-64c0-10.286-7.462-18.494-17.172-20.491     c-1.279-0.542-2.685-0.842-4.161-0.842c-18.167,0.01-37.813,16.094-53.875,44.125C4.406,93.896-7.344,134.438,5.385,156.229     c5.438,9.323,14.813,14.438,26.458,14.438c0.083,0,0.187,0,0.292,0c12.553-0.09,23.261-4.441,31.865-12.674v269.853     C51.224,430.592,42.614,438.182,42.614,448c0,9.818,8.61,17.408,21.386,20.155v33.178C64,507.229,68.719,512,74.614,512     c5.896,0,10.667-4.771,10.667-10.667v-33.178c12.777-2.747,21.333-10.337,21.333-20.155     C106.614,438.182,98.058,430.592,85.281,427.845z M49.969,142.01c-4.75,4.875-10.646,7.271-18,7.323c-0.042,0-0.104,0-0.146,0     c-5.063,0-6.854-1.854-8.021-3.854c-6.792-11.615,0.146-42.75,15.437-69.406c4.465-7.794,9.264-14.499,14.042-19.839v50.432     c0,6.197,2.749,11.668,6.982,15.569C58.136,129.641,54.927,136.935,49.969,142.01z" fill="#9a9da2"/>
			<path d="M344.562,336.956c-13.542-28.185-23.229-49.13-28.813-62.233c0-0.01,0-0.021,0-0.031     c-2.582-6.018-5.56-13.232-8.767-21.218c-0.003-0.007-0.001-0.013-0.001-0.013c-4.052-10.037-8.573-21.487-13.332-33.679     c27.189-58.145,59.525-125.341,75.246-157.88c5.188-10.749,5.771-23.258,1.583-34.33c-4.146-11.009-12.375-19.602-23.167-24.175     c0,0,0,0-0.021,0c-10.833-4.593-22.75-4.52-33.542,0.167c-11,4.76-19.396,13.624-23.583,24.966     c-7.677,20.748-20.4,55.011-34.379,92.154C241.79,83.49,229.065,49.231,221.395,28.52c-4.188-11.332-12.583-20.196-23.583-24.956     c-10.833-4.687-22.75-4.76-33.542-0.167c-0.021,0-0.021,0-0.021,0c-10.792,4.583-19.021,13.176-23.167,24.195     c-4.167,11.061-3.604,23.57,1.583,34.319c15.758,32.602,48.132,99.854,75.259,157.852c-4.775,12.228-9.303,23.688-13.342,33.68     c-0.005,0.013-0.003,0.026-0.008,0.039c-3.227,7.99-6.182,15.215-8.742,21.25c-5.642,13.21-15.341,34.128-28.81,62.173     c-0.012,0.023-0.034,0.036-0.044,0.06c-18.854,39.298-41.208,84.272-55.75,113.342c0,0,0,0,0,0.01     c-5.313,10.624-6.021,23.06-1.938,34.101c4.083,11.041,12.271,19.633,23.063,24.216c5.313,2.239,10.875,3.364,16.438,3.364     c5.771,0,11.563-1.208,17.042-3.625c10.792-4.739,19.25-13.874,23.229-25.07c10.893-30.719,27.887-78.211,43.137-119.149     l0.009-0.016c10.206-27.392,18.07-47.641,23.574-60.793c5.553,13.237,13.402,33.47,23.572,60.783     c15.25,40.944,32.25,88.449,43.167,119.185c3.958,11.186,12.417,20.321,23.208,25.06C351.208,510.792,357,512,362.77,512     c5.563,0,11.125-1.125,16.438-3.364c10.813-4.583,19-13.197,23.083-24.237c4.063-11.051,3.354-23.477-1.958-34.09     C385.791,421.239,363.458,376.254,344.562,336.956z M237.27,292.304c-4.958,11.676-12.083,29.83-21.188,54.036l-24.427-10.076     l-0.573-0.236c11.146-23.331,19.333-41.11,24.375-52.942c0-0.01,0-0.021,0-0.021c1.479-3.468,3.083-7.312,4.771-11.457     l21.875,9.562C240.333,285.18,238.708,288.909,237.27,292.304z M319.906,336.265l-24.427,10.076     c-9.063-24.133-16.167-42.287-21.188-54.046c-1.438-3.385-3.063-7.114-4.813-11.124l21.854-9.562     c1.708,4.156,3.313,8.01,4.792,11.478c5,11.759,13.167,29.539,24.354,52.942L319.906,336.265z" fill="#9a9da2"/>
		</g>
	</g>
</g>
<g>
</g>
<g>
</g>
<g>
</g>
<g>
</g>
<g>
</g>
<g>
</g>
<g>
</g>
<g>
</g>
<g>
</g>
<g>
</g>
<g>
</g>
<g>
</g>
<g>
</g>
<g>
</g>
<g>
</g>
</svg>
