<?xml version="1.0" encoding="iso-8859-1"?>
<!-- Generator: Adobe Illustrator 16.0.0, SVG Export Plug-In . SVG Version: 6.00 Build 0)  -->
<!DOCTYPE svg PUBLIC "-//W3C//DTD SVG 1.1//EN" "http://www.w3.org/Graphics/SVG/1.1/DTD/svg11.dtd">
<svg xmlns="http://www.w3.org/2000/svg" xmlns:xlink="http://www.w3.org/1999/xlink" version="1.1" id="Capa_1" x="0px" y="0px" width="512px" height="512px" viewBox="0 0 70.418 70.418" style="enable-background:new 0 0 70.418 70.418;" xml:space="preserve">
	<g id="Page-1_12_">
		<path id="Fill-9" d="M13.167,16.803c-4.086,0-7.399-3.313-7.399-7.399    c0-4.086,3.313-7.399,7.399-7.399s7.399,3.313,7.399,7.399C20.566,13.49,17.253,16.803,13.167,16.803L13.167,16.803z     M21.802,21.097l6.025,2.424l-5.102,3.99c-1.388,1.086-1.633,3.091-0.548,4.479c0.63,0.804,1.568,1.225,2.516,1.225    c0.687,0,1.38-0.221,1.963-0.677l3.823-2.99l3.706,2.914l-7.535,5.691c-0.725,0.547-1.182,1.376-1.257,2.281    c-0.075,0.903,0.237,1.798,0.861,2.457l7.577,8.013l-3.027,1.486c-1.581,0.776-2.234,2.688-1.457,4.271    c0.554,1.129,1.688,1.785,2.866,1.785c0.473,0,0.952-0.106,1.404-0.328l6.915-3.396c0.91-0.447,1.554-1.301,1.733-2.299    c0.181-0.998-0.125-2.021-0.821-2.758l-8.104-8.568l7.995-6.037c0.79-0.597,1.258-1.526,1.269-2.515    c0.008-0.99-0.441-1.928-1.219-2.54l-5.73-4.505l0.462-0.361c0.899-0.703,1.354-1.832,1.194-2.961    c-0.16-1.129-0.911-2.087-1.969-2.513l-11.16-4.487c-1.634-0.658-3.493,0.134-4.15,1.769    C19.375,18.582,20.167,20.439,21.802,21.097L21.802,21.097z M35.73,18.08c0.256,0,0.516-0.078,0.741-0.238L58.183,2.314    c0.573-0.41,0.706-1.207,0.296-1.78c-0.41-0.573-1.207-0.707-1.781-0.296L34.986,15.765c-0.573,0.41-0.706,1.207-0.296,1.781    C34.94,17.894,35.331,18.08,35.73,18.08L35.73,18.08z M39.457,22.311c0.249,0.349,0.641,0.534,1.039,0.534    c0.257,0,0.516-0.077,0.74-0.238L62.949,7.081c0.572-0.41,0.705-1.207,0.295-1.78c-0.409-0.573-1.205-0.706-1.779-0.296    L39.753,20.531C39.179,20.94,39.047,21.738,39.457,22.311L39.457,22.311z M64.541,48.521c-0.285-0.646-1.039-0.937-1.684-0.65    L18.542,67.518c-1.712,0.758-3.685,0.238-4.801-1.266l-0.287-0.387c-0.419-0.565-1.218-0.685-1.785-0.264    c-0.566,0.42-0.685,1.22-0.264,1.786l0.287,0.386c1.268,1.71,3.213,2.645,5.222,2.645c0.893,0,1.798-0.185,2.662-0.567    l44.316-19.646C64.535,49.919,64.826,49.165,64.541,48.521L64.541,48.521z" fill="#FFFFFF"/>
	</g>
</svg>
