<?xml version="1.0" encoding="iso-8859-1"?>
<!-- Generator: Adobe Illustrator 19.0.0, SVG Export Plug-In . SVG Version: 6.00 Build 0)  -->
<svg xmlns="http://www.w3.org/2000/svg" xmlns:xlink="http://www.w3.org/1999/xlink" version="1.1" id="Capa_1" x="0px" y="0px" viewBox="0 0 512 512" style="enable-background:new 0 0 512 512;" xml:space="preserve" width="512px" height="512px">
<g>
	<g>
		<path d="M437.019,198.818C388.667,150.465,324.381,123.837,256,123.837s-132.668,26.628-181.02,74.981    C26.627,247.17,0,311.457,0,379.837c0,4.598,3.727,8.326,8.326,8.326h69.022c4.599,0,8.326-3.728,8.326-8.326    s-3.727-8.326-8.326-8.326H51.805C56.19,262.662,146.096,175.457,256,175.457c36.489,0,72.299,9.731,103.557,28.139    c3.961,2.334,9.066,1.015,11.4-2.949c2.334-3.962,1.012-9.067-2.95-11.4C334.19,169.332,295.459,158.805,256,158.805    c-119.089,0-216.464,94.673-220.859,212.706H16.794c2.064-60.812,26.723-117.679,69.963-160.919    c45.207-45.207,105.313-70.103,169.245-70.103s124.038,24.897,169.244,70.103c43.239,43.24,67.898,100.107,69.963,160.919h-18.347    c-2.393-64.855-32.67-124.691-83.932-165.195c-3.604-2.85-8.842-2.238-11.695,1.371c-2.851,3.608-2.237,8.844,1.371,11.696    c47.238,37.326,75.203,92.401,77.588,152.128H297.63v-92.813c0-4.598-3.727-8.326-8.326-8.326h-66.607    c-4.599,0-8.326,3.728-8.326,8.326v92.813H103.99c-4.599,0-8.326,3.728-8.326,8.326s3.727,8.326,8.326,8.326h399.683    c4.599,0,8.326-3.728,8.326-8.326C512,311.457,485.372,247.17,437.019,198.818z M280.978,371.511h-49.954v-84.487h49.954V371.511z    " fill="#FFFFFF"/>
	</g>
</g>
<g>
	<g>
		<path d="M398.965,270.371h-69.456c-4.599,0-8.326,3.728-8.326,8.326v34.969c0,4.598,3.727,8.326,8.326,8.326h69.456    c4.599,0,8.326-3.728,8.326-8.326v-34.969C407.291,274.099,403.565,270.371,398.965,270.371z M390.639,305.34h-52.804v-18.317    h52.804V305.34z" fill="#FFFFFF"/>
	</g>
</g>
<g>
	<g>
		<path d="M182.493,270.371h-69.455c-4.599,0-8.326,3.728-8.326,8.326v34.969c0,4.598,3.727,8.326,8.326,8.326h69.455    c4.599,0,8.326-3.728,8.326-8.326v-34.969C190.819,274.099,187.092,270.371,182.493,270.371z M174.165,305.34h-52.803v-18.317    h52.803V305.34z" fill="#FFFFFF"/>
	</g>
</g>
<g>
	<g>
		<circle cx="245.524" cy="331.984" r="8.326" fill="#FFFFFF"/>
	</g>
</g>
<g>
</g>
<g>
</g>
<g>
</g>
<g>
</g>
<g>
</g>
<g>
</g>
<g>
</g>
<g>
</g>
<g>
</g>
<g>
</g>
<g>
</g>
<g>
</g>
<g>
</g>
<g>
</g>
<g>
</g>
</svg>
