<?xml version="1.0" encoding="iso-8859-1"?>
<!-- Generator: Adobe Illustrator 18.0.0, SVG Export Plug-In . SVG Version: 6.00 Build 0)  -->
<!DOCTYPE svg PUBLIC "-//W3C//DTD SVG 1.1//EN" "http://www.w3.org/Graphics/SVG/1.1/DTD/svg11.dtd">
<svg xmlns="http://www.w3.org/2000/svg" xmlns:xlink="http://www.w3.org/1999/xlink" version="1.1" id="Capa_1" x="0px" y="0px" viewBox="0 0 459.137 459.137" style="enable-background:new 0 0 459.137 459.137;" xml:space="preserve" width="512px" height="512px">
<g>
	<path d="M109.583,172.235l64.599,39.038l-1.571,82.071c1.802-0.63,3.456-1.645,4.84-3.03   c13.905-13.905,32.415-21.563,52.119-21.563c11.758,0,23.081,2.747,33.264,7.901l1.237-64.621l43.418,18.455   c6.275,2.668,13.562,0.829,17.821-4.502l39.8-49.831c5.238-6.559,4.168-16.122-2.391-21.361c-6.56-5.239-16.124-4.168-21.361,2.39   l-32.599,40.815l-43.763-18.552c-4.669-1.829-8.896-2.138-12.1-2.166c-19.167-0.169-76.763-0.342-76.763-0.342l-43.326-26.183   l1.178-61.563c0.16-8.392-6.513-15.326-14.905-15.487c-0.1-0.002-0.198-0.003-0.297-0.003c-8.258,0-15.031,6.615-15.19,14.908   l-1.346,70.328C102.144,164.361,104.939,169.429,109.583,172.235z" fill="#9a9da2"/>
	<circle cx="220.701" cy="129.288" r="35.171" fill="#9a9da2"/>
	<path d="M336.139,254.874c-1.272,2.169-0.922,5.007,0.994,6.792c2.218,2.067,5.692,1.945,7.759-0.274   c10.852-11.644,23.184-20.764,40.439-26.589c13.622-4.84,28.656-6.052,30.781-5.698c0.019,0.01,0.291,0.01,0.312,0.01   c1.07-0.011,2.154-0.135,3.24-0.381c8.237-1.867,13.402-10.059,11.534-18.296c-1.842-8.124-9.916-13.429-18.359-11.52   c-9.268,1.816-24.913,7.853-37.36,15.669C357.212,225.73,345.243,239.338,336.139,254.874z" fill="#9a9da2"/>
	<path d="M305.271,143.142c2.584,1.028,5.877,0.08,7.25-3.372c14.276-35.876,45.675-53.772,54.527-55.632   c0.021,0.002,0.273-0.096,0.294-0.104c0.993-0.398,1.958-0.907,2.881-1.531c6.998-4.729,8.837-14.236,4.108-21.235   c-4.255-6.295-12.858-9.378-21.963-3.645c-4.059,2.726-8.324,6.264-11.976,9.603c-20.287,18.584-33.998,41.729-38.513,69.947   C301.482,139.656,302.837,142.173,305.271,143.142z" fill="#9a9da2"/>
	<path d="M59.681,206.145c0.063,0.014,0.101,0.02,0.117,0.016c1.054,0.077,19.277,3.785,38.816,18.555   c13.981,10.938,21.581,21.404,28.634,35.26l0.153,0.302c1.231,2.422,4.043,3.71,6.752,2.932c3.07-0.882,4.844-4.086,3.962-7.157   c-4.936-17.177-11.45-30.924-25.057-46.547c-19.017-21.236-41.507-32.1-47.358-33.291c-8.261-1.681-16.32,3.652-18.001,11.913   C46.055,196.202,51.115,204.378,59.681,206.145z" fill="#9a9da2"/>
	<path d="M87.194,322.557c5.31-5.309,12.369-8.233,19.877-8.233c7.509,0,14.568,2.924,19.877,8.233   c11.051,11.051,25.744,17.137,41.372,17.137c15.628,0,30.321-6.086,41.371-17.137c5.31-5.309,12.369-8.233,19.878-8.233   c7.508,0,14.567,2.924,19.877,8.233c22.812,22.812,59.931,22.813,82.742,0c5.31-5.309,12.369-8.233,19.878-8.233   c7.508,0,14.567,2.924,19.877,8.233c22.811,22.812,59.93,22.813,82.742,0c5.936-5.935,5.936-15.558,0-21.494   c-5.935-5.936-15.559-5.936-21.494,0c-5.31,5.309-12.369,8.233-19.877,8.233c-7.509,0-14.568-2.924-19.878-8.233   c-22.813-22.813-59.932-22.812-82.742,0c-10.962,10.96-28.793,10.96-39.755,0c-11.051-11.051-25.744-17.137-41.371-17.137   c-15.628,0-30.321,6.086-41.373,17.137c-5.309,5.31-12.368,8.233-19.876,8.233s-14.567-2.923-19.877-8.233   c-22.812-22.812-59.931-22.813-82.742,0c-5.31,5.309-12.369,8.233-19.878,8.233c-7.508,0-14.567-2.924-19.877-8.233   c-5.935-5.936-15.559-5.936-21.494,0c-5.936,5.935-5.936,15.558,0,21.494C27.264,345.37,64.383,345.369,87.194,322.557z" fill="#9a9da2"/>
	<path d="M433.191,365.91c-5.31,5.309-12.369,8.233-19.877,8.233c-7.509,0-14.568-2.924-19.878-8.233   c-22.813-22.813-59.932-22.812-82.742,0c-10.962,10.96-28.793,10.96-39.755,0c-11.051-11.051-25.744-17.137-41.371-17.137   c-15.628,0-30.321,6.086-41.373,17.137c-5.309,5.31-12.368,8.233-19.876,8.233s-14.567-2.923-19.877-8.233   c-22.812-22.812-59.931-22.813-82.742,0c-5.31,5.309-12.369,8.233-19.878,8.233c-7.508,0-14.567-2.924-19.877-8.233   c-5.935-5.936-15.559-5.936-21.494,0c-5.936,5.935-5.936,15.558,0,21.494c22.812,22.813,59.931,22.812,82.742,0   c5.31-5.309,12.369-8.233,19.877-8.233c7.509,0,14.568,2.924,19.877,8.233c11.051,11.051,25.744,17.137,41.372,17.137   c15.628,0,30.321-6.086,41.371-17.137c5.31-5.309,12.369-8.233,19.878-8.233c7.508,0,14.567,2.924,19.877,8.233   c22.812,22.812,59.931,22.813,82.742,0c5.31-5.309,12.369-8.233,19.878-8.233c7.508,0,14.567,2.924,19.877,8.233   c22.811,22.812,59.93,22.813,82.742,0c5.936-5.936,5.936-15.558,0-21.494C448.75,359.974,439.126,359.974,433.191,365.91z" fill="#9a9da2"/>
</g>
<g>
</g>
<g>
</g>
<g>
</g>
<g>
</g>
<g>
</g>
<g>
</g>
<g>
</g>
<g>
</g>
<g>
</g>
<g>
</g>
<g>
</g>
<g>
</g>
<g>
</g>
<g>
</g>
<g>
</g>
</svg>
