<?xml version="1.0" encoding="iso-8859-1"?>
<!-- Generator: Adobe Illustrator 19.0.0, SVG Export Plug-In . SVG Version: 6.00 Build 0)  -->
<svg xmlns="http://www.w3.org/2000/svg" xmlns:xlink="http://www.w3.org/1999/xlink" version="1.1" id="Capa_1" x="0px" y="0px" viewBox="0 0 480.002 480.002" style="enable-background:new 0 0 480.002 480.002;" xml:space="preserve" width="512px" height="512px">
<g>
	<g>
		<path d="M443.578,291.358c-12.111-5.968-25.334-9.344-38.824-9.912l0.696-0.752L196.002,86.238    c-23.747-22.054-60.876-20.681-82.929,3.066c-2.53,2.725-4.796,5.684-6.767,8.838L41.938,201.166L3.002,232.31    c-3.374,2.7-3.994,7.592-1.4,11.048l24,32c2.548,3.398,7.307,4.213,10.84,1.856l48-32c0.66-0.444,1.25-0.983,1.752-1.6l66.4-81.16    l44.096,44.104l-81.328,81.328c-25.637-9.97-54.286-8.696-78.936,3.512c-11.313,5.645-23.781,8.589-36.424,8.6v16    c15.121-0.006,30.035-3.511,43.576-10.24c22.943-11.408,49.905-11.408,72.848,0c27.449,13.641,59.703,13.641,87.152,0    c22.943-11.408,49.905-11.408,72.848,0c27.449,13.641,59.703,13.641,87.152,0c22.941-11.416,49.907-11.416,72.848,0    c13.541,6.729,28.455,10.234,43.576,10.24v-16C467.356,299.974,454.887,297.017,443.578,291.358z M356.426,291.358    c-22.943,11.408-49.905,11.408-72.848,0c-27.449-13.641-59.703-13.641-87.152,0c-20.342,10.096-43.966,11.281-65.216,3.272    l82.448-82.416c3.123-3.124,3.123-8.188,0-11.312l-56-56c-3.125-3.124-8.19-3.123-11.314,0.002    c-0.188,0.188-0.366,0.385-0.534,0.59l-71.2,87.072l-40.752,27.136L19.05,239.958l33.952-27.152    c0.701-0.567,1.304-1.245,1.784-2.008l65.112-104.176c12.495-19.992,38.831-26.07,58.824-13.575    c2.292,1.433,4.443,3.08,6.424,4.919l198.856,184.672C374.425,284.147,365.129,287.087,356.426,291.358z" fill="#9a9da2"/>
	</g>
</g>
<g>
	<g>
		<path d="M443.578,336.846c-27.449-13.641-59.703-13.641-87.152,0c-22.945,11.399-49.903,11.399-72.848,0    c-27.449-13.641-59.703-13.641-87.152,0c-22.945,11.399-49.903,11.399-72.848,0c-27.449-13.641-59.703-13.641-87.152,0    c-11.315,5.639-23.782,8.583-36.424,8.6v16c15.125-0.019,30.04-3.54,43.576-10.288c22.943-11.408,49.905-11.408,72.848,0    c27.449,13.641,59.703,13.641,87.152,0c22.943-11.408,49.905-11.408,72.848,0c27.449,13.641,59.703,13.641,87.152,0    c22.941-11.416,49.907-11.416,72.848,0c13.536,6.748,28.451,10.269,43.576,10.288v-16    C467.359,345.429,454.893,342.485,443.578,336.846z" fill="#9a9da2"/>
	</g>
</g>
<g>
	<g>
		<path d="M443.578,384.846c-27.449-13.641-59.703-13.641-87.152,0c-22.945,11.399-49.903,11.399-72.848,0    c-27.449-13.641-59.703-13.641-87.152,0c-22.945,11.399-49.903,11.399-72.848,0c-27.449-13.641-59.703-13.641-87.152,0    c-11.315,5.639-23.782,8.583-36.424,8.6v16c15.125-0.019,30.04-3.54,43.576-10.288c22.943-11.408,49.905-11.408,72.848,0    c27.449,13.641,59.703,13.641,87.152,0c22.943-11.408,49.905-11.408,72.848,0c27.449,13.641,59.703,13.641,87.152,0    c22.941-11.416,49.907-11.416,72.848,0c13.536,6.748,28.451,10.269,43.576,10.288v-16    C467.359,393.429,454.893,390.485,443.578,384.846z" fill="#9a9da2"/>
	</g>
</g>
<g>
	<g>
		<path d="M392.002,70.558c-30.928,0-56,25.072-56,56v40c0.035,30.913,25.087,55.965,56,56c30.913-0.035,55.965-25.087,56-56v-40    C448.002,95.63,422.93,70.558,392.002,70.558z M385.234,205.958c-19.202-3.273-33.243-19.92-33.232-39.4v-24h33.472    c-0.948,2.562-1.445,5.268-1.472,8c0,13.255,10.745,24,24,24h16c2.491-0.033,4.962-0.459,7.32-1.264    C427.615,195.041,406.98,209.665,385.234,205.958z M424.002,158.558h-16c-4.418,0-8-3.582-8-8c0-4.418,3.582-8,8-8h16    c4.418,0,8,3.582,8,8C432.002,154.976,428.42,158.558,424.002,158.558z M352.002,126.558c0.026-22.08,17.92-39.974,40-40    c22.08,0.026,39.974,17.92,40,40H352.002z" fill="#9a9da2"/>
	</g>
</g>
<g>
</g>
<g>
</g>
<g>
</g>
<g>
</g>
<g>
</g>
<g>
</g>
<g>
</g>
<g>
</g>
<g>
</g>
<g>
</g>
<g>
</g>
<g>
</g>
<g>
</g>
<g>
</g>
<g>
</g>
</svg>
