<?xml version="1.0" encoding="iso-8859-1"?>
<!-- Generator: Adobe Illustrator 19.0.0, SVG Export Plug-In . SVG Version: 6.00 Build 0)  -->
<svg xmlns="http://www.w3.org/2000/svg" xmlns:xlink="http://www.w3.org/1999/xlink" version="1.1" id="Capa_1" x="0px" y="0px" viewBox="0 0 418.4 418.4" style="enable-background:new 0 0 418.4 418.4;" xml:space="preserve" width="512px" height="512px">
<g>
	<g>
		<path d="M417.111,297.6c-4-3.2-8.8-4.8-12.8-2.4c-34.4,20-64.8,26.4-93.6,26.4V55.2c0-30.4-24.8-55.2-55.2-55.2    s-55.2,24-55.2,55.2c0,4.8,3.2,8,8,8s8-3.2,8-8c0-21.6,17.6-39.2,39.2-39.2c21.6,0,39.2,17.6,39.2,39.2v38.4h-155.2V55.2    c0-30.4-24.8-55.2-55.2-55.2s-55.2,24.8-55.2,55.2c0,4.8,3.2,8,8,8c4.8,0,8-3.2,8-8c0-21.6,17.6-39.2,39.2-39.2    c21.6,0,39.2,17.6,39.2,39.2v230.4c-36,0-75.2,10.4-119.2,42.4c-3.2,2.4-4,8-1.6,11.2c1.6,2.4,4,3.2,6.4,3.2    c1.6,0,3.2-0.8,4.8-1.6c44-32,82.4-40.8,118.4-39.2c28.8,1.6,56,9.6,84,17.6c28,8.8,56.8,16.8,88,18.4    c33.6,1.6,68.8-4.8,109.6-28.8C417.911,306.4,418.711,301.6,417.111,297.6z M139.511,108.8h155.2v88h-155.2V108.8z M295.511,320.8    c-25.6-2.4-50.4-9.6-75.2-17.6c-26.4-7.2-52.8-15.2-80.8-17.6v-72.8h156V320.8z" fill="#9a9da2"/>
	</g>
</g>
<g>
	<g>
		<path d="M415.511,374.4c-2.4-4-7.2-5.6-11.2-3.2c-71.2,42.4-126.4,25.6-184.8,8c-64-19.2-129.6-38.4-216,24c-3.2,2.4-4,8-1.6,11.2    c1.6,2.4,4,4,6.4,4c1.6,0,3.2-0.8,4.8-1.6c79.2-58.4,139.2-40,201.6-21.6c59.2,17.6,120,36,197.6-9.6    C416.311,383.2,417.111,378.4,415.511,374.4z" fill="#9a9da2"/>
	</g>
</g>
<g>
</g>
<g>
</g>
<g>
</g>
<g>
</g>
<g>
</g>
<g>
</g>
<g>
</g>
<g>
</g>
<g>
</g>
<g>
</g>
<g>
</g>
<g>
</g>
<g>
</g>
<g>
</g>
<g>
</g>
</svg>
